<svg version="1.1" viewBox="0.0 0.0 682.6482939632546 407.3070866141732" fill="none" stroke="none" stroke-linecap="square" stroke-miterlimit="10" xmlns:xlink="http://www.w3.org/1999/xlink" xmlns="http://www.w3.org/2000/svg"><clipPath id="p.0"><path d="m0 0l682.6483 0l0 407.3071l-682.6483 0l0 -407.3071z" clip-rule="nonzero"/></clipPath><g clip-path="url(#p.0)"><path fill="#ffffff" d="m0 0l682.6483 0l0 407.3071l-682.6483 0z" fill-rule="evenodd"/><path fill="#000000" fill-opacity="0.0" d="m187.05511 16.941917l0 0c0 -8.949438 7.254959 -16.20439 16.204391 -16.20439l462.42584 0c4.2976685 0 8.419312 1.7072432 11.458252 4.7461557c3.0388794 3.0389123 4.746155 7.160562 4.746155 11.458235l0 167.8432c0 8.949432 -7.254944 16.204391 -16.204407 16.204391l-462.42584 0l0 0c-8.949432 0 -16.204391 -7.254959 -16.204391 -16.204391z" fill-rule="evenodd"/><path stroke="#cccccc" stroke-width="0.7637795275590551" stroke-linejoin="round" stroke-linecap="butt" d="m187.05511 16.941917l0 0c0 -8.949438 7.254959 -16.20439 16.204391 -16.20439l462.42584 0c4.2976685 0 8.419312 1.7072432 11.458252 4.7461557c3.0388794 3.0389123 4.746155 7.160562 4.746155 11.458235l0 167.8432c0 8.949432 -7.254944 16.204391 -16.204407 16.204391l-462.42584 0l0 0c-8.949432 0 -16.204391 -7.254959 -16.204391 -16.204391z" fill-rule="evenodd"/><path fill="#000000" d="m399.1205 22.868685l1.265625 -0.109375q0.09375 0.765625 0.421875 1.265625q0.328125 0.484375 1.015625 0.796875q0.703125 0.296875 1.578125 0.296875q0.765625 0 1.359375 -0.234375q0.59375 -0.234375 0.875 -0.625q0.296875 -0.40625 0.296875 -0.875q0 -0.484375 -0.28125 -0.84375q-0.28125 -0.359375 -0.921875 -0.59375q-0.40625 -0.15625 -1.8125 -0.484375q-1.40625 -0.34375 -1.96875 -0.65625q-0.71875 -0.375 -1.078125 -0.9375q-0.359375 -0.578125 -0.359375 -1.28125q0 -0.765625 0.4375 -1.4375q0.4375 -0.671875 1.28125 -1.015625q0.84375 -0.34375 1.859375 -0.34375q1.140625 0 2.0 0.359375q0.875 0.359375 1.328125 1.078125q0.46875 0.703125 0.5 1.609375l-1.28125 0.09375q-0.109375 -0.96875 -0.71875 -1.453125q-0.59375 -0.5 -1.765625 -0.5q-1.21875 0 -1.78125 0.453125q-0.5625 0.4375 -0.5625 1.078125q0 0.546875 0.390625 0.90625q0.390625 0.34375 2.03125 0.71875q1.65625 0.375 2.265625 0.65625q0.890625 0.40625 1.3125 1.03125q0.421875 0.625 0.421875 1.453125q0 0.8125 -0.46875 1.53125q-0.46875 0.71875 -1.34375 1.125q-0.859375 0.390625 -1.953125 0.390625q-1.390625 0 -2.328125 -0.390625q-0.921875 -0.40625 -1.453125 -1.21875q-0.53125 -0.8125 -0.5625 -1.84375zm14.634827 3.28125l0 -1.078125q-0.875 1.25 -2.34375 1.25q-0.65625 0 -1.234375 -0.25q-0.5625 -0.25 -0.84375 -0.625q-0.265625 -0.390625 -0.375 -0.9375q-0.078125 -0.375 -0.078125 -1.171875l0 -4.5625l1.25 0l0 4.09375q0 0.96875 0.078125 1.3125q0.125 0.5 0.5 0.78125q0.390625 0.28125 0.953125 0.28125q0.5625 0 1.046875 -0.28125q0.5 -0.296875 0.703125 -0.796875q0.203125 -0.5 0.203125 -1.4375l0 -3.953125l1.25 0l0 7.375l-1.109375 0zm3.072754 0l0 -7.375l1.125 0l0 1.03125q0.34375 -0.546875 0.921875 -0.875q0.578125 -0.328125 1.3125 -0.328125q0.8125 0 1.34375 0.34375q0.53125 0.34375 0.734375 0.953125q0.875 -1.296875 2.28125 -1.296875q1.109375 0 1.6875 0.609375q0.59375 0.609375 0.59375 1.875l0 5.0625l-1.234375 0l0 -4.65625q0 -0.75 -0.125 -1.078125q-0.125 -0.328125 -0.453125 -0.53125q-0.3125 -0.203125 -0.75 -0.203125q-0.765625 0 -1.28125 0.53125q-0.515625 0.515625 -0.515625 1.65625l0 4.28125l-1.25 0l0 -4.796875q0 -0.828125 -0.3125 -1.25q-0.296875 -0.421875 -1.0 -0.421875q-0.53125 0 -0.984375 0.28125q-0.4375 0.28125 -0.640625 0.8125q-0.203125 0.53125 -0.203125 1.546875l0 3.828125l-1.25 0zm23.687103 -1.09375q0.953125 0.65625 1.734375 0.953125l-0.390625 0.9375q-1.09375 -0.40625 -2.1875 -1.25q-1.140625 0.625 -2.5 0.625q-1.390625 0 -2.515625 -0.65625q-1.125 -0.671875 -1.734375 -1.875q-0.609375 -1.21875 -0.609375 -2.734375q0 -1.515625 0.609375 -2.75q0.609375 -1.234375 1.734375 -1.875q1.140625 -0.65625 2.53125 -0.65625q1.421875 0 2.546875 0.671875q1.140625 0.671875 1.734375 1.890625q0.59375 1.203125 0.59375 2.703125q0 1.265625 -0.390625 2.28125q-0.375 1.0 -1.15625 1.734375zm-2.953125 -1.71875q1.15625 0.328125 1.921875 0.96875q1.1875 -1.078125 1.1875 -3.265625q0 -1.234375 -0.421875 -2.15625q-0.421875 -0.921875 -1.234375 -1.421875q-0.8125 -0.515625 -1.8125 -0.515625q-1.515625 0 -2.515625 1.03125q-0.984375 1.03125 -0.984375 3.078125q0 1.984375 0.984375 3.046875q0.984375 1.0625 2.515625 1.0625q0.71875 0 1.359375 -0.265625q-0.625 -0.40625 -1.328125 -0.578125l0.328125 -0.984375zm10.993835 2.8125l0 -1.078125q-0.875 1.25 -2.34375 1.25q-0.65625 0 -1.234375 -0.25q-0.5625 -0.25 -0.84375 -0.625q-0.265625 -0.390625 -0.375 -0.9375q-0.078125 -0.375 -0.078125 -1.171875l0 -4.5625l1.25 0l0 4.09375q0 0.96875 0.078125 1.3125q0.125 0.5 0.5 0.78125q0.390625 0.28125 0.953125 0.28125q0.5625 0 1.046875 -0.28125q0.5 -0.296875 0.703125 -0.796875q0.203125 -0.5 0.203125 -1.4375l0 -3.953125l1.25 0l0 7.375l-1.109375 0zm8.119629 -2.375l1.296875 0.15625q-0.296875 1.140625 -1.125 1.765625q-0.828125 0.625 -2.125 0.625q-1.609375 0 -2.5625 -1.0q-0.953125 -1.0 -0.953125 -2.796875q0 -1.859375 0.953125 -2.890625q0.96875 -1.03125 2.5 -1.03125q1.484375 0 2.421875 1.015625q0.9375 1.0 0.9375 2.828125q0 0.109375 -0.015625 0.328125l-5.5 0q0.078125 1.21875 0.6875 1.875q0.625 0.640625 1.546875 0.640625q0.6875 0 1.171875 -0.359375q0.484375 -0.359375 0.765625 -1.15625zm-4.09375 -2.03125l4.109375 0q-0.078125 -0.921875 -0.46875 -1.390625q-0.59375 -0.71875 -1.546875 -0.71875q-0.859375 0 -1.453125 0.578125q-0.578125 0.578125 -0.640625 1.53125zm6.9477234 4.40625l0 -7.375l1.125 0l0 1.109375q0.4375 -0.78125 0.796875 -1.03125q0.375 -0.25 0.8125 -0.25q0.625 0 1.28125 0.40625l-0.4375 1.15625q-0.453125 -0.265625 -0.90625 -0.265625q-0.421875 0 -0.75 0.25q-0.328125 0.234375 -0.453125 0.671875q-0.21875 0.671875 -0.21875 1.46875l0 3.859375l-1.25 0zm4.693268 2.84375l-0.125 -1.171875q0.40625 0.109375 0.703125 0.109375q0.421875 0 0.671875 -0.140625q0.25 -0.140625 0.40625 -0.390625q0.125 -0.1875 0.390625 -0.9375q0.03125 -0.09375 0.109375 -0.296875l-2.796875 -7.390625l1.34375 0l1.53125 4.265625q0.296875 0.8125 0.546875 1.71875q0.203125 -0.875 0.5 -1.6875l1.578125 -4.296875l1.25 0l-2.796875 7.5q-0.453125 1.21875 -0.703125 1.671875q-0.328125 0.625 -0.765625 0.90625q-0.4375 0.296875 -1.03125 0.296875q-0.359375 0 -0.8125 -0.15625z" fill-rule="nonzero"/><path fill="#000000" fill-opacity="0.0" d="m0.8110236 13.225974l0 0c0 -6.897176 5.591265 -12.488441 12.4884405 -12.488441l129.35382 0c3.312149 0 6.488632 1.3157427 8.830658 3.6577795c2.342041 2.3420372 3.6577911 5.5185213 3.6577911 8.830662l0 380.66092c0 6.897156 -5.591278 12.488434 -12.488449 12.488434l-129.35382 0c-6.8971753 0 -12.4884405 -5.591278 -12.4884405 -12.488434z" fill-rule="evenodd"/><path stroke="#cccccc" stroke-width="0.7637795275590551" stroke-linejoin="round" stroke-linecap="butt" d="m0.8110236 13.225974l0 0c0 -6.897176 5.591265 -12.488441 12.4884405 -12.488441l129.35382 0c3.312149 0 6.488632 1.3157427 8.830658 3.6577795c2.342041 2.3420372 3.6577911 5.5185213 3.6577911 8.830662l0 380.66092c0 6.897156 -5.591278 12.488434 -12.488449 12.488434l-129.35382 0c-6.8971753 0 -12.4884405 -5.591278 -12.4884405 -12.488434z" fill-rule="evenodd"/><path fill="#000000" d="m24.989546 20.092827q0 -2.53125 1.359375 -3.96875q1.359375 -1.437501 3.515625 -1.437501q1.421875 0 2.546873 0.6875q1.140625 0.67187595 1.734375 1.875001q0.59375 1.203125 0.59375 2.734375q0 1.546875 -0.625 2.78125q-0.625 1.21875 -1.78125 1.84375q-1.1406231 0.625 -2.468748 0.625q-1.4375 0 -2.578125 -0.6875q-1.125 -0.703125 -1.71875 -1.90625q-0.578125 -1.203125 -0.578125 -2.546875zm1.390625 0.03125q0 1.84375 0.984375 2.90625q1.0 1.046875 2.484375 1.046875q1.53125 0 2.515623 -1.0625q0.984375 -1.078125 0.984375 -3.046875q0 -1.234375 -0.421875 -2.15625q-0.421875 -0.9375 -1.2343731 -1.4375q-0.8125 -0.51562595 -1.8125 -0.51562595q-1.4375 0 -2.46875 0.98437595q-1.03125 0.96875 -1.03125 3.28125zm9.931334 7.765625l0 -10.203125l1.140625 0l0 0.953125q0.40625 -0.5625 0.90625 -0.84375q0.515625 -0.28125 1.234375 -0.28125q0.953125 0 1.671875 0.484375q0.71875 0.484375 1.078125 1.375q0.375 0.890625 0.375 1.9375q0 1.140625 -0.40625 2.046875q-0.40625 0.90625 -1.1875 1.390625q-0.765625 0.484375 -1.625 0.484375q-0.625 0 -1.125 -0.265625q-0.484375 -0.265625 -0.8125 -0.671875l0 3.59375l-1.25 0zm1.140625 -6.484375q0 1.4375 0.5625 2.125q0.578125 0.671875 1.40625 0.671875q0.828125 0 1.421875 -0.703125q0.59375 -0.703125 0.59375 -2.1875q0 -1.421875 -0.578125 -2.109375q-0.578125 -0.703125 -1.390625 -0.703125q-0.796875 0 -1.40625 0.75q-0.609375 0.734375 -0.609375 2.15625zm11.822739 1.28125l1.296875 0.15625q-0.296875 1.140625 -1.125 1.765625q-0.828125 0.625 -2.125 0.625q-1.609375 0 -2.5625 -1.0q-0.953125 -1.0 -0.953125 -2.796875q0 -1.859375 0.953125 -2.890625q0.96875 -1.03125 2.5 -1.03125q1.484375 0 2.421875 1.015625q0.9375 1.0 0.9375 2.828125q0 0.109375 -0.015625 0.328125l-5.5 0q0.078125 1.21875 0.6875 1.875q0.625 0.640625 1.546875 0.640625q0.6875 0 1.171875 -0.359375q0.484375 -0.359375 0.765625 -1.15625zm-4.09375 -2.03125l4.109375 0q-0.078125 -0.921875 -0.46875 -1.390625q-0.59375 -0.71875 -1.546875 -0.71875q-0.859375 0 -1.453125 0.578125q-0.578125 0.578125 -0.640625 1.53125zm6.9633636 4.40625l0 -7.375l1.125 0l0 1.046875q0.8125 -1.21875 2.34375 -1.21875q0.671875 0 1.234375 0.25q0.5625 0.234375 0.828125 0.625q0.28125 0.375 0.390625 0.921875q0.078125 0.34375 0.078125 1.21875l0 4.53125l-1.25 0l0 -4.484375q0 -0.765625 -0.15625 -1.140625q-0.140625 -0.390625 -0.515625 -0.609375q-0.359375 -0.234375 -0.859375 -0.234375q-0.8125 0 -1.390625 0.515625q-0.578125 0.5 -0.578125 1.921875l0 4.03125l-1.25 0zm8.072739 0l0 -10.187501l3.515625 0q1.1875038 0 1.8125038 0.140625q0.875 0.203125 1.5 0.734375q0.796875 0.68750095 1.1875 1.750001q0.40625 1.046875 0.40625 2.40625q0 1.171875 -0.265625 2.0625q-0.265625 0.890625 -0.703125 1.484375q-0.421875 0.59375 -0.921875 0.9375q-0.5 0.328125 -1.21875 0.5q-0.703125 0.171875 -1.6250038 0.171875l-3.6875 0zm1.359375 -1.203125l2.171875 0q1.0000038 0 1.5781288 -0.1875q0.578125 -0.1875 0.921875 -0.53125q0.46875 -0.46875 0.734375 -1.28125q0.265625 -0.8125 0.265625 -1.96875q0 -1.59375 -0.53125 -2.453125q-0.515625 -0.859375 -1.265625 -1.15625q-0.53125 -0.203125 -1.7343788 -0.203125l-2.140625 0l0 7.78125zm8.920246 1.203125l0 -10.187501l3.84375 0q1.015625 0 1.546875 0.09375q0.765625 0.125 1.265625 0.484375q0.5 0.34375 0.8125 0.98437595q0.3125 0.625 0.3125 1.375q0 1.3125 -0.828125 2.21875q-0.828125 0.890625 -2.984375 0.890625l-2.609375 0l0 4.140625l-1.359375 0zm1.359375 -5.34375l2.625 0q1.3125 0 1.859375 -0.484375q0.546875 -0.484375 0.546875 -1.375q0 -0.640625 -0.328125 -1.09375q-0.3125 -0.453125 -0.84375 -0.59375q-0.34375 -0.09375 -1.265625 -0.09375l-2.59375 0l0 3.640625zm19.113678 1.765625l1.34375 0.34375q-0.421875 1.65625 -1.53125 2.53125q-1.09375 0.875 -2.6875 0.875q-1.65625 0 -2.6875 -0.671875q-1.03125 -0.671875 -1.578125 -1.9375q-0.53125 -1.28125 -0.53125 -2.734375q0 -1.59375 0.609375 -2.765625q0.609375 -1.187501 1.734375 -1.796876q1.125 -0.625 2.46875 -0.625q1.53125 0 2.5625 0.78125q1.046875 0.76562595 1.46875 2.187501l-1.328125 0.3125q-0.359375 -1.109375 -1.03125 -1.609375q-0.671875 -0.51562595 -1.703125 -0.51562595q-1.171875 0 -1.96875 0.56250095q-0.78125 0.5625 -1.109375 1.515625q-0.3125 0.9375 -0.3125 1.953125q0 1.296875 0.375 2.265625q0.390625 0.96875 1.1875 1.453125q0.796875 0.46875 1.734375 0.46875q1.125 0 1.90625 -0.640625q0.796875 -0.65625 1.078125 -1.953125zm2.3733673 -0.109375q0 -2.046875 1.140625 -3.046875q0.953125 -0.8125 2.328125 -0.8125q1.515625 0 2.484375 1.0q0.96875 1.0 0.96875 2.75q0 1.421875 -0.4375 2.25q-0.421875 0.8125 -1.234375 1.265625q-0.8125 0.453125 -1.78125 0.453125q-1.546875 0 -2.515625 -1.0q-0.953125 -1.0 -0.953125 -2.859375zm1.296875 0q0 1.421875 0.609375 2.125q0.625 0.703125 1.5625 0.703125q0.921875 0 1.546875 -0.703125q0.625 -0.71875 0.625 -2.171875q0 -1.375 -0.625 -2.078125q-0.625 -0.703125 -1.546875 -0.703125q-0.9375 0 -1.5625 0.703125q-0.609375 0.703125 -0.609375 2.125zm7.0883636 3.6875l0 -7.375l1.125 0l0 1.046875q0.8125 -1.21875 2.34375 -1.21875q0.671875 0 1.234375 0.25q0.5625 0.234375 0.828125 0.625q0.28125 0.375 0.390625 0.921875q0.078125 0.34375 0.078125 1.21875l0 4.53125l-1.25 0l0 -4.484375q0 -0.765625 -0.15625 -1.140625q-0.140625 -0.390625 -0.515625 -0.609375q-0.359375 -0.234375 -0.859375 -0.234375q-0.8125 0 -1.390625 0.515625q-0.578125 0.5 -0.578125 1.921875l0 4.03125l-1.25 0zm10.650864 -1.125l0.171875 1.109375q-0.515625 0.109375 -0.9375 0.109375q-0.6875 0 -1.0625 -0.203125q-0.375 -0.21875 -0.53125 -0.5625q-0.140625 -0.359375 -0.140625 -1.484375l0 -4.25l-0.921875 0l0 -0.96875l0.921875 0l0 -1.828126l1.234375 -0.75l0 2.578126l1.265625 0l0 0.96875l-1.265625 0l0 4.3125q0 0.53125 0.0625 0.6875q0.078125 0.15625 0.21875 0.25q0.15625 0.078125 0.4375 0.078125q0.203125 0 0.546875 -0.046875zm6.267273 -1.25l1.296875 0.15625q-0.296875 1.140625 -1.125 1.765625q-0.828125 0.625 -2.125 0.625q-1.609375 0 -2.5625 -1.0q-0.953125 -1.0 -0.953125 -2.796875q0 -1.859375 0.953125 -2.890625q0.96875 -1.03125 2.5 -1.03125q1.484375 0 2.421875 1.015625q0.9375 1.0 0.9375 2.828125q0 0.109375 -0.015625 0.328125l-5.5 0q0.078125 1.21875 0.6875 1.875q0.625 0.640625 1.546875 0.640625q0.6875 0 1.171875 -0.359375q0.484375 -0.359375 0.765625 -1.15625zm-4.09375 -2.03125l4.109375 0q-0.078125 -0.921875 -0.46875 -1.390625q-0.59375 -0.71875 -1.546875 -0.71875q-0.859375 0 -1.453125 0.578125q-0.578125 0.578125 -0.640625 1.53125zm6.1352386 4.40625l2.6875 -3.84375l-2.484375 -3.53125l1.5625 0l1.125 1.71875q0.328125 0.5 0.515625 0.828125q0.3125 -0.453125 0.5625 -0.8125l1.25 -1.734375l1.484375 0l-2.546875 3.46875l2.75 3.90625l-1.53125 0l-1.515625 -2.296875l-0.40625 -0.609375l-1.9375 2.90625l-1.515625 0zm10.6796875 -1.125l0.171875 1.109375q-0.515625 0.109375 -0.9375 0.109375q-0.6875 0 -1.0625 -0.203125q-0.375 -0.21875 -0.53125 -0.5625q-0.140625 -0.359375 -0.140625 -1.484375l0 -4.25l-0.921875 0l0 -0.96875l0.921875 0l0 -1.828126l1.234375 -0.75l0 2.578126l1.265625 0l0 0.96875l-1.265625 0l0 4.3125q0 0.53125 0.0625 0.6875q0.078125 0.15625 0.21875 0.25q0.15625 0.078125 0.4375 0.078125q0.203125 0 0.546875 -0.046875z" fill-rule="nonzero"/><path fill="#000000" fill-opacity="0.0" d="m187.06299 222.87775l0 0c0 -8.922684 7.2332764 -16.15596 16.155975 -16.15596l462.52274 0c4.28479 0 8.394165 1.7021332 11.42395 4.731964c3.0298462 3.029831 4.7319946 7.1391754 4.7319946 11.423996l0 167.34161c0 8.922699 -7.2332764 16.155975 -16.155945 16.155975l-462.52274 0l0 0c-8.922699 0 -16.155975 -7.2332764 -16.155975 -16.155975z" fill-rule="evenodd"/><path stroke="#cccccc" stroke-width="0.7637795275590551" stroke-linejoin="round" stroke-linecap="butt" d="m187.06299 222.87775l0 0c0 -8.922684 7.2332764 -16.15596 16.155975 -16.15596l462.52274 0c4.28479 0 8.394165 1.7021332 11.42395 4.731964c3.0298462 3.029831 4.7319946 7.1391754 4.7319946 11.423996l0 167.34161c0 8.922699 -7.2332764 16.155975 -16.155945 16.155975l-462.52274 0l0 0c-8.922699 0 -16.155975 -7.2332764 -16.155975 -16.155975z" fill-rule="evenodd"/><path fill="#000000" d="m402.50488 228.54189l1.34375 0.34375q-0.421875 1.65625 -1.53125 2.53125q-1.09375 0.875 -2.6875 0.875q-1.65625 0 -2.6875 -0.671875q-1.03125 -0.671875 -1.578125 -1.9375q-0.53125 -1.28125 -0.53125 -2.734375q0 -1.59375 0.609375 -2.765625q0.609375 -1.1875 1.734375 -1.796875q1.125 -0.625 2.46875 -0.625q1.53125 0 2.5625 0.78125q1.046875 0.765625 1.46875 2.1875l-1.328125 0.3125q-0.359375 -1.109375 -1.03125 -1.609375q-0.671875 -0.515625 -1.703125 -0.515625q-1.171875 0 -1.96875 0.5625q-0.78125 0.5625 -1.109375 1.515625q-0.3125 0.9375 -0.3125 1.953125q0 1.296875 0.375 2.265625q0.390625 0.96875 1.1875 1.453125q0.796875 0.46875 1.734375 0.46875q1.125 0 1.90625 -0.640625q0.796875 -0.65625 1.078125 -1.953125zm2.373352 -0.109375q0 -2.046875 1.140625 -3.046875q0.953125 -0.8125 2.328125 -0.8125q1.515625 0 2.484375 1.0q0.96875 1.0 0.96875 2.75q0 1.421875 -0.4375 2.25q-0.421875 0.8125 -1.234375 1.265625q-0.8125 0.453125 -1.78125 0.453125q-1.546875 0 -2.515625 -1.0q-0.953125 -1.0 -0.953125 -2.859375zm1.296875 0q0 1.421875 0.609375 2.125q0.625 0.703125 1.5625 0.703125q0.921875 0 1.546875 -0.703125q0.625 -0.71875 0.625 -2.171875q0 -1.375 -0.625 -2.078125q-0.625 -0.703125 -1.546875 -0.703125q-0.9375 0 -1.5625 0.703125q-0.609375 0.703125 -0.609375 2.125zm11.932129 3.6875l0 -1.078125q-0.875 1.25 -2.34375 1.25q-0.65625 0 -1.234375 -0.25q-0.5625 -0.25 -0.84375 -0.625q-0.265625 -0.390625 -0.375 -0.9375q-0.078125 -0.375 -0.078125 -1.171875l0 -4.5625l1.25 0l0 4.09375q0 0.96875 0.078125 1.3125q0.125 0.5 0.5 0.78125q0.390625 0.28125 0.953125 0.28125q0.5625 0 1.046875 -0.28125q0.5 -0.296875 0.703125 -0.796875q0.203125 -0.5 0.203125 -1.4375l0 -3.953125l1.25 0l0 7.375l-1.109375 0zm3.0727234 0l0 -7.375l1.125 0l0 1.046875q0.8125 -1.21875 2.34375 -1.21875q0.671875 0 1.234375 0.25q0.5625 0.234375 0.828125 0.625q0.28125 0.375 0.390625 0.921875q0.078125 0.34375 0.078125 1.21875l0 4.53125l-1.25 0l0 -4.484375q0 -0.765625 -0.15625 -1.140625q-0.140625 -0.390625 -0.515625 -0.609375q-0.359375 -0.234375 -0.859375 -0.234375q-0.8125 0 -1.390625 0.515625q-0.578125 0.5 -0.578125 1.921875l0 4.03125l-1.25 0zm10.650879 -1.125l0.171875 1.109375q-0.515625 0.109375 -0.9375 0.109375q-0.6875 0 -1.0625 -0.203125q-0.375 -0.21875 -0.53125 -0.5625q-0.140625 -0.359375 -0.140625 -1.484375l0 -4.25l-0.921875 0l0 -0.96875l0.921875 0l0 -1.828125l1.234375 -0.75l0 2.578125l1.265625 0l0 0.96875l-1.265625 0l0 4.3125q0 0.53125 0.0625 0.6875q0.078125 0.15625 0.21875 0.25q0.15625 0.078125 0.4375 0.078125q0.203125 0 0.546875 -0.046875zm13.050171 0.03125q0.953125 0.65625 1.734375 0.953125l-0.390625 0.9375q-1.09375 -0.40625 -2.1875 -1.25q-1.140625 0.625 -2.5 0.625q-1.390625 0 -2.515625 -0.65625q-1.125 -0.671875 -1.734375 -1.875q-0.609375 -1.21875 -0.609375 -2.734375q0 -1.515625 0.609375 -2.75q0.609375 -1.234375 1.734375 -1.875q1.140625 -0.65625 2.53125 -0.65625q1.421875 0 2.546875 0.671875q1.140625 0.671875 1.734375 1.890625q0.59375 1.203125 0.59375 2.703125q0 1.265625 -0.390625 2.28125q-0.375 1.0 -1.15625 1.734375zm-2.953125 -1.71875q1.15625 0.328125 1.921875 0.96875q1.1875 -1.078125 1.1875 -3.265625q0 -1.234375 -0.421875 -2.15625q-0.421875 -0.921875 -1.234375 -1.421875q-0.8125 -0.515625 -1.8125 -0.515625q-1.515625 0 -2.515625 1.03125q-0.984375 1.03125 -0.984375 3.078125q0 1.984375 0.984375 3.046875q0.984375 1.0625 2.515625 1.0625q0.71875 0 1.359375 -0.265625q-0.625 -0.40625 -1.328125 -0.578125l0.328125 -0.984375zm10.993835 2.8125l0 -1.078125q-0.875 1.25 -2.34375 1.25q-0.65625 0 -1.234375 -0.25q-0.5625 -0.25 -0.84375 -0.625q-0.265625 -0.390625 -0.375 -0.9375q-0.078125 -0.375 -0.078125 -1.171875l0 -4.5625l1.25 0l0 4.09375q0 0.96875 0.078125 1.3125q0.125 0.5 0.5 0.78125q0.390625 0.28125 0.953125 0.28125q0.5625 0 1.046875 -0.28125q0.5 -0.296875 0.703125 -0.796875q0.203125 -0.5 0.203125 -1.4375l0 -3.953125l1.25 0l0 7.375l-1.109375 0zm8.119598 -2.375l1.296875 0.15625q-0.296875 1.140625 -1.125 1.765625q-0.828125 0.625 -2.125 0.625q-1.609375 0 -2.5625 -1.0q-0.953125 -1.0 -0.953125 -2.796875q0 -1.859375 0.953125 -2.890625q0.96875 -1.03125 2.5 -1.03125q1.484375 0 2.421875 1.015625q0.9375 1.0 0.9375 2.828125q0 0.109375 -0.015625 0.328125l-5.5 0q0.078125 1.21875 0.6875 1.875q0.625 0.640625 1.546875 0.640625q0.6875 0 1.171875 -0.359375q0.484375 -0.359375 0.765625 -1.15625zm-4.09375 -2.03125l4.109375 0q-0.078125 -0.921875 -0.46875 -1.390625q-0.59375 -0.71875 -1.546875 -0.71875q-0.859375 0 -1.453125 0.578125q-0.578125 0.578125 -0.640625 1.53125zm6.947754 4.40625l0 -7.375l1.125 0l0 1.109375q0.4375 -0.78125 0.796875 -1.03125q0.375 -0.25 0.8125 -0.25q0.625 0 1.28125 0.40625l-0.4375 1.15625q-0.453125 -0.265625 -0.90625 -0.265625q-0.421875 0 -0.75 0.25q-0.328125 0.234375 -0.453125 0.671875q-0.21875 0.671875 -0.21875 1.46875l0 3.859375l-1.25 0zm4.6932983 2.84375l-0.125 -1.171875q0.40625 0.109375 0.703125 0.109375q0.421875 0 0.671875 -0.140625q0.25 -0.140625 0.40625 -0.390625q0.125 -0.1875 0.390625 -0.9375q0.03125 -0.09375 0.109375 -0.296875l-2.796875 -7.390625l1.34375 0l1.53125 4.265625q0.296875 0.8125 0.546875 1.71875q0.203125 -0.875 0.5 -1.6875l1.578125 -4.296875l1.25 0l-2.796875 7.5q-0.453125 1.21875 -0.703125 1.671875q-0.328125 0.625 -0.765625 0.90625q-0.4375 0.296875 -1.03125 0.296875q-0.359375 0 -0.8125 -0.15625z" fill-rule="nonzero"/><path fill="#f3f3f3" d="m8.712059 122.08277l134.21759 0l0 158.62082l-134.21759 0z" fill-rule="evenodd"/><path stroke="#cccccc" stroke-width="0.7637795275590551" stroke-linejoin="round" stroke-linecap="butt" d="m8.712059 122.08277l134.21759 0l0 158.62082l-134.21759 0z" fill-rule="evenodd"/><path fill="#000000" d="m38.934124 138.90607l1.0625 -0.15625q0.09375 0.625 0.5 0.96875q0.40625 0.34375 1.140625 0.34375q0.734375 0 1.078125 -0.296875q0.359375 -0.3125 0.359375 -0.71875q0 -0.359375 -0.3125 -0.5625q-0.21875 -0.140625 -1.09375 -0.359375q-1.171875 -0.296875 -1.625 -0.515625q-0.453125 -0.21875 -0.703125 -0.59375q-0.234375 -0.390625 -0.234375 -0.859375q0 -0.421875 0.1875 -0.78125q0.203125 -0.359375 0.546875 -0.59375q0.25 -0.1875 0.671875 -0.3125q0.4375 -0.140625 0.921875 -0.140625q0.75 0 1.3125 0.21875q0.5625 0.21875 0.828125 0.59375q0.265625 0.359375 0.375 0.96875l-1.046875 0.140625q-0.078125 -0.484375 -0.421875 -0.75q-0.34375 -0.28125 -0.96875 -0.28125q-0.734375 0 -1.046875 0.25q-0.3125 0.234375 -0.3125 0.5625q0 0.203125 0.125 0.375q0.125 0.171875 0.40625 0.28125q0.171875 0.0625 0.953125 0.28125q1.140625 0.296875 1.578125 0.5q0.453125 0.1875 0.703125 0.5625q0.265625 0.359375 0.265625 0.90625q0 0.53125 -0.3125 1.015625q-0.3125 0.46875 -0.90625 0.734375q-0.578125 0.25 -1.328125 0.25q-1.234375 0 -1.890625 -0.5q-0.640625 -0.515625 -0.8125 -1.53125zm10.84375 -0.140625l1.109375 0.140625q-0.265625 0.96875 -0.96875 1.5q-0.703125 0.53125 -1.8125 0.53125q-1.375 0 -2.1875 -0.84375q-0.8125 -0.859375 -0.8125 -2.40625q0 -1.59375 0.8125 -2.46875q0.828125 -0.890625 2.125 -0.890625q1.28125 0 2.078125 0.875q0.796875 0.859375 0.796875 2.421875q0 0.09375 0 0.28125l-4.71875 0q0.0625 1.046875 0.59375 1.609375q0.53125 0.546875 1.328125 0.546875q0.578125 0 1.0 -0.3125q0.421875 -0.3125 0.65625 -0.984375zm-3.515625 -1.734375l3.53125 0q-0.078125 -0.796875 -0.40625 -1.203125q-0.515625 -0.609375 -1.328125 -0.609375q-0.734375 0 -1.234375 0.5q-0.5 0.484375 -0.5625 1.3125zm5.9656067 3.765625l0 -6.3125l0.96875 0l0 0.890625q0.703125 -1.046875 2.015625 -1.046875q0.5625 0 1.046875 0.21875q0.484375 0.203125 0.71875 0.53125q0.234375 0.328125 0.328125 0.796875q0.0625 0.296875 0.0625 1.03125l0 3.890625l-1.0625 0l0 -3.84375q0 -0.65625 -0.125 -0.96875q-0.125 -0.328125 -0.453125 -0.515625q-0.3125 -0.203125 -0.75 -0.203125q-0.671875 0 -1.171875 0.4375q-0.5 0.421875 -0.5 1.640625l0 3.453125l-1.078125 0zm6.3562317 -1.890625l1.0625 -0.15625q0.09375 0.625 0.5 0.96875q0.40625 0.34375 1.140625 0.34375q0.734375 0 1.078125 -0.296875q0.359375 -0.3125 0.359375 -0.71875q0 -0.359375 -0.3125 -0.5625q-0.21875 -0.140625 -1.09375 -0.359375q-1.171875 -0.296875 -1.625 -0.515625q-0.453125 -0.21875 -0.703125 -0.59375q-0.234375 -0.390625 -0.234375 -0.859375q0 -0.421875 0.1875 -0.78125q0.203125 -0.359375 0.546875 -0.59375q0.25 -0.1875 0.671875 -0.3125q0.4375 -0.140625 0.921875 -0.140625q0.75 0 1.3125 0.21875q0.5625 0.21875 0.828125 0.59375q0.265625 0.359375 0.375 0.96875l-1.046875 0.140625q-0.078125 -0.484375 -0.421875 -0.75q-0.34375 -0.28125 -0.96875 -0.28125q-0.734375 0 -1.046875 0.25q-0.3125 0.234375 -0.3125 0.5625q0 0.203125 0.125 0.375q0.125 0.171875 0.40625 0.28125q0.171875 0.0625 0.953125 0.28125q1.140625 0.296875 1.578125 0.5q0.453125 0.1875 0.703125 0.5625q0.265625 0.359375 0.265625 0.90625q0 0.53125 -0.3125 1.015625q-0.3125 0.46875 -0.90625 0.734375q-0.578125 0.25 -1.328125 0.25q-1.234375 0 -1.890625 -0.5q-0.640625 -0.515625 -0.8125 -1.53125zm6.531254 -5.609375l0 -1.21875l1.0625 0l0 1.21875l-1.0625 0zm0 7.5l0 -6.3125l1.0625 0l0 6.3125l-1.0625 0zm5.035797 -0.953125l0.15625 0.9375q-0.453125 0.09375 -0.8125 0.09375q-0.578125 0 -0.90625 -0.171875q-0.3125 -0.1875 -0.453125 -0.484375q-0.125 -0.3125 -0.125 -1.265625l0 -3.640625l-0.78125 0l0 -0.828125l0.78125 0l0 -1.578125l1.0625 -0.640625l0 2.21875l1.078125 0l0 0.828125l-1.078125 0l0 3.6875q0 0.46875 0.046875 0.59375q0.0625 0.125 0.1875 0.203125q0.140625 0.078125 0.375 0.078125q0.171875 0 0.46875 -0.03125zm1.0579529 -6.546875l0 -1.21875l1.0625 0l0 1.21875l-1.0625 0zm0 7.5l0 -6.3125l1.0625 0l0 6.3125l-1.0625 0zm4.4576645 0l-2.40625 -6.3125l1.125 0l1.359375 3.78125q0.21875 0.609375 0.40625 1.265625q0.140625 -0.5 0.40625 -1.203125l1.390625 -3.84375l1.109375 0l-2.390625 6.3125l-1.0 0zm8.65625 -2.03125l1.109375 0.140625q-0.265625 0.96875 -0.96875 1.5q-0.703125 0.53125 -1.8125 0.53125q-1.375 0 -2.1875 -0.84375q-0.8125 -0.859375 -0.8125 -2.40625q0 -1.59375 0.8125 -2.46875q0.828125 -0.890625 2.125 -0.890625q1.28125 0 2.078125 0.875q0.796875 0.859375 0.796875 2.421875q0 0.09375 0 0.28125l-4.71875 0q0.0625 1.046875 0.59375 1.609375q0.53125 0.546875 1.328125 0.546875q0.578125 0 1.0 -0.3125q0.421875 -0.3125 0.65625 -0.984375zm-3.515625 -1.734375l3.53125 0q-0.078125 -0.796875 -0.40625 -1.203125q-0.515625 -0.609375 -1.328125 -0.609375q-0.734375 0 -1.234375 0.5q-0.5 0.484375 -0.5625 1.3125zm13.46106 3.765625l0 -0.796875q-0.609375 0.9375 -1.765625 0.9375q-0.765625 0 -1.40625 -0.40625q-0.625 -0.421875 -0.96875 -1.171875q-0.34375 -0.75 -0.34375 -1.71875q0 -0.9375 0.3125 -1.703125q0.3125 -0.78125 0.9375 -1.1875q0.640625 -0.421875 1.421875 -0.421875q0.5625 0 1.0 0.25q0.453125 0.234375 0.734375 0.625l0 -3.125l1.0625 0l0 8.71875l-0.984375 0zm-3.390625 -3.15625q0 1.21875 0.515625 1.828125q0.515625 0.59375 1.203125 0.59375q0.703125 0 1.1875 -0.578125q0.5 -0.578125 0.5 -1.75q0 -1.296875 -0.5 -1.90625q-0.5 -0.609375 -1.234375 -0.609375q-0.71875 0 -1.203125 0.59375q-0.46875 0.578125 -0.46875 1.828125zm10.184357 2.375q-0.59375 0.5 -1.140625 0.71875q-0.546875 0.203125 -1.1875 0.203125q-1.03125 0 -1.59375 -0.5q-0.5625 -0.515625 -0.5625 -1.3125q0 -0.453125 0.203125 -0.828125q0.21875 -0.390625 0.5625 -0.625q0.34375 -0.234375 0.765625 -0.359375q0.328125 -0.078125 0.953125 -0.15625q1.296875 -0.15625 1.921875 -0.375q0 -0.21875 0 -0.28125q0 -0.640625 -0.296875 -0.921875q-0.421875 -0.359375 -1.21875 -0.359375q-0.765625 0 -1.125 0.265625q-0.359375 0.265625 -0.53125 0.9375l-1.046875 -0.140625q0.140625 -0.671875 0.46875 -1.078125q0.328125 -0.421875 0.9375 -0.640625q0.625 -0.234375 1.4375 -0.234375q0.8125 0 1.3125 0.203125q0.515625 0.1875 0.75 0.484375q0.234375 0.28125 0.34375 0.71875q0.046875 0.265625 0.046875 0.984375l0 1.4375q0 1.484375 0.0625 1.890625q0.078125 0.390625 0.28125 0.75l-1.125 0q-0.171875 -0.328125 -0.21875 -0.78125zm-0.078125 -2.390625q-0.59375 0.234375 -1.75 0.40625q-0.671875 0.09375 -0.953125 0.21875q-0.265625 0.109375 -0.421875 0.34375q-0.140625 0.234375 -0.140625 0.5q0 0.4375 0.328125 0.71875q0.328125 0.28125 0.953125 0.28125q0.609375 0 1.09375 -0.265625q0.484375 -0.265625 0.71875 -0.734375q0.171875 -0.375 0.171875 -1.078125l0 -0.390625zm5.0749817 2.21875l0.15625 0.9375q-0.453125 0.09375 -0.8125 0.09375q-0.578125 0 -0.90625 -0.171875q-0.3125 -0.1875 -0.453125 -0.484375q-0.125 -0.3125 -0.125 -1.265625l0 -3.640625l-0.78125 0l0 -0.828125l0.78125 0l0 -1.578125l1.0625 -0.640625l0 2.21875l1.078125 0l0 0.828125l-1.078125 0l0 3.6875q0 0.46875 0.046875 0.59375q0.0625 0.125 0.1875 0.203125q0.140625 0.078125 0.375 0.078125q0.171875 0 0.46875 -0.03125zm5.167328 0.171875q-0.59375 0.5 -1.140625 0.71875q-0.546875 0.203125 -1.1875 0.203125q-1.03125 0 -1.59375 -0.5q-0.5625 -0.515625 -0.5625 -1.3125q0 -0.453125 0.203125 -0.828125q0.21875 -0.390625 0.5625 -0.625q0.34375 -0.234375 0.765625 -0.359375q0.328125 -0.078125 0.953125 -0.15625q1.296875 -0.15625 1.921875 -0.375q0 -0.21875 0 -0.28125q0 -0.640625 -0.296875 -0.921875q-0.421875 -0.359375 -1.21875 -0.359375q-0.765625 0 -1.125 0.265625q-0.359375 0.265625 -0.53125 0.9375l-1.046875 -0.140625q0.140625 -0.671875 0.46875 -1.078125q0.328125 -0.421875 0.9375 -0.640625q0.625 -0.234375 1.4375 -0.234375q0.8125 0 1.3125 0.203125q0.515625 0.1875 0.75 0.484375q0.234375 0.28125 0.34375 0.71875q0.046875 0.265625 0.046875 0.984375l0 1.4375q0 1.484375 0.0625 1.890625q0.078125 0.390625 0.28125 0.75l-1.125 0q-0.171875 -0.328125 -0.21875 -0.78125zm-0.078125 -2.390625q-0.59375 0.234375 -1.75 0.40625q-0.671875 0.09375 -0.953125 0.21875q-0.265625 0.109375 -0.421875 0.34375q-0.140625 0.234375 -0.140625 0.5q0 0.4375 0.328125 0.71875q0.328125 0.28125 0.953125 0.28125q0.609375 0 1.09375 -0.265625q0.484375 -0.265625 0.71875 -0.734375q0.171875 -0.375 0.171875 -1.078125l0 -0.390625z" fill-rule="nonzero"/><path fill="#6fa8dc" d="m39.21606 170.88918l61.008 0l0 6.1007996l-61.008 0z" fill-rule="evenodd"/><path fill="#6fa8dc" d="m39.21606 183.09077l48.8064 0l0 6.1007996l-48.8064 0z" fill-rule="evenodd"/><path fill="#6fa8dc" d="m39.21606 195.29237l67.108795 0l0 6.1007996l-67.108795 0z" fill-rule="evenodd"/><path fill="#6fa8dc" d="m39.21606 207.49397l42.7056 0l0 6.1007996l-42.7056 0z" fill-rule="evenodd"/><path fill="#6fa8dc" d="m39.21606 219.69557l73.209595 0l0 6.1007996l-73.209595 0z" fill-rule="evenodd"/><path fill="#6fa8dc" d="m39.21606 231.89717l79.310394 0l0 6.1007996l-79.310394 0z" fill-rule="evenodd"/><path fill="#6fa8dc" d="m39.21606 244.09877l48.8064 0l0 6.1007996l-48.8064 0z" fill-rule="evenodd"/><path fill="#000000" fill-opacity="0.0" d="m27.01446 164.78838l0 85.411194" fill-rule="evenodd"/><path stroke="#000000" stroke-width="0.7637795275590551" stroke-linejoin="round" stroke-linecap="butt" d="m27.01446 164.78838l0 85.411194" fill-rule="evenodd"/><path fill="#000000" fill-opacity="0.0" d="m27.01446 164.78838l6.1008015 0" fill-rule="evenodd"/><path stroke="#000000" stroke-width="0.7637795275590551" stroke-linejoin="round" stroke-linecap="butt" d="m27.01446 164.78838l6.1008015 0" fill-rule="evenodd"/><path fill="#000000" fill-opacity="0.0" d="m27.01446 176.98997l6.1008015 0" fill-rule="evenodd"/><path stroke="#000000" stroke-width="0.7637795275590551" stroke-linejoin="round" stroke-linecap="butt" d="m27.01446 176.98997l6.1008015 0" fill-rule="evenodd"/><path fill="#000000" fill-opacity="0.0" d="m27.01446 189.19157l6.1008015 0" fill-rule="evenodd"/><path stroke="#000000" stroke-width="0.7637795275590551" stroke-linejoin="round" stroke-linecap="butt" d="m27.01446 189.19157l6.1008015 0" fill-rule="evenodd"/><path fill="#000000" fill-opacity="0.0" d="m27.01446 201.39317l6.1008015 0" fill-rule="evenodd"/><path stroke="#000000" stroke-width="0.7637795275590551" stroke-linejoin="round" stroke-linecap="butt" d="m27.01446 201.39317l6.1008015 0" fill-rule="evenodd"/><path fill="#000000" fill-opacity="0.0" d="m27.01446 213.59477l6.1008015 0" fill-rule="evenodd"/><path stroke="#000000" stroke-width="0.7637795275590551" stroke-linejoin="round" stroke-linecap="butt" d="m27.01446 213.59477l6.1008015 0" fill-rule="evenodd"/><path fill="#000000" fill-opacity="0.0" d="m27.01446 225.79637l6.1008015 0" fill-rule="evenodd"/><path stroke="#000000" stroke-width="0.7637795275590551" stroke-linejoin="round" stroke-linecap="butt" d="m27.01446 225.79637l6.1008015 0" fill-rule="evenodd"/><path fill="#000000" fill-opacity="0.0" d="m27.01446 237.99797l6.1008015 0" fill-rule="evenodd"/><path stroke="#000000" stroke-width="0.7637795275590551" stroke-linejoin="round" stroke-linecap="butt" d="m27.01446 237.99797l6.1008015 0" fill-rule="evenodd"/><path fill="#000000" fill-opacity="0.0" d="m27.01446 250.19957l6.1008015 0" fill-rule="evenodd"/><path stroke="#000000" stroke-width="0.7637795275590551" stroke-linejoin="round" stroke-linecap="butt" d="m27.01446 250.19957l6.1008015 0" fill-rule="evenodd"/><path fill="#000000" fill-opacity="0.0" d="m39.21606 256.30035l0 6.1007996" fill-rule="evenodd"/><path stroke="#000000" stroke-width="0.7637795275590551" stroke-linejoin="round" stroke-linecap="butt" d="m39.21606 256.30035l0 6.1007996" fill-rule="evenodd"/><path fill="#000000" fill-opacity="0.0" d="m39.21606 262.40115l73.209595 0" fill-rule="evenodd"/><path stroke="#000000" stroke-width="0.7637795275590551" stroke-linejoin="round" stroke-linecap="butt" d="m39.216057 262.40115l70.592064 0" fill-rule="evenodd"/><path fill="#000000" stroke="#000000" stroke-width="0.7637795275590551" stroke-linecap="butt" d="m109.80812 262.40115l-0.8589325 0.85894775l2.3599014 -0.85894775l-2.3599014 -0.85891724z" fill-rule="evenodd"/><path fill="#f3f3f3" d="m363.1029 34.810627l134.23624 0l0 158.61418l-134.23624 0z" fill-rule="evenodd"/><path stroke="#cccccc" stroke-width="0.7637795275590551" stroke-linejoin="round" stroke-linecap="butt" d="m363.1029 34.810627l134.23624 0l0 158.61418l-134.23624 0z" fill-rule="evenodd"/><path fill="#000000" d="m419.08395 51.633923l1.0625 -0.15625q0.09375 0.625 0.5 0.96875q0.40625 0.34375 1.140625 0.34375q0.734375 0 1.078125 -0.296875q0.359375 -0.3125 0.359375 -0.71875q0 -0.359375 -0.3125 -0.5625q-0.21875 -0.140625 -1.09375 -0.359375q-1.171875 -0.296875 -1.625 -0.515625q-0.453125 -0.21875 -0.703125 -0.59375q-0.234375 -0.390625 -0.234375 -0.859375q0 -0.421875 0.1875 -0.78125q0.203125 -0.359375 0.546875 -0.59375q0.25 -0.1875 0.671875 -0.3125q0.4375 -0.140625 0.921875 -0.140625q0.75 0 1.3125 0.21875q0.5625 0.21875 0.828125 0.59375q0.265625 0.359375 0.375 0.96875l-1.046875 0.140625q-0.078125 -0.484375 -0.421875 -0.75q-0.34375 -0.28125 -0.96875 -0.28125q-0.734375 0 -1.046875 0.25q-0.3125 0.234375 -0.3125 0.5625q0 0.203125 0.125 0.375q0.125 0.171875 0.40625 0.28125q0.171875 0.0625 0.953125 0.28125q1.140625 0.296875 1.578125 0.5q0.453125 0.1875 0.703125 0.5625q0.265625 0.359375 0.265625 0.90625q0 0.53125 -0.3125 1.015625q-0.3125 0.46875 -0.90625 0.734375q-0.578125 0.25 -1.328125 0.25q-1.234375 0 -1.890625 -0.5q-0.640625 -0.515625 -0.8125 -1.53125zm10.65625 1.890625l0 -0.921875q-0.734375 1.0625 -2.0 1.0625q-0.5625 0 -1.046875 -0.203125q-0.484375 -0.21875 -0.71875 -0.546875q-0.234375 -0.328125 -0.328125 -0.796875q-0.0625 -0.3125 -0.0625 -1.0l0 -3.90625l1.0625 0l0 3.5q0 0.84375 0.078125 1.125q0.09375 0.421875 0.421875 0.671875q0.328125 0.234375 0.8125 0.234375q0.484375 0 0.90625 -0.25q0.421875 -0.25 0.59375 -0.671875q0.171875 -0.421875 0.171875 -1.234375l0 -3.375l1.078125 0l0 6.3125l-0.96875 0zm2.6374817 0l0 -6.3125l0.96875 0l0 0.875q0.296875 -0.453125 0.78125 -0.734375q0.5 -0.296875 1.125 -0.296875q0.703125 0 1.15625 0.296875q0.453125 0.296875 0.640625 0.8125q0.75 -1.109375 1.953125 -1.109375q0.9375 0 1.4375 0.53125q0.5 0.515625 0.5 1.59375l0 4.34375l-1.0625 0l0 -3.984375q0 -0.640625 -0.109375 -0.921875q-0.09375 -0.28125 -0.375 -0.453125q-0.265625 -0.171875 -0.640625 -0.171875q-0.65625 0 -1.109375 0.453125q-0.4375 0.4375 -0.4375 1.40625l0 3.671875l-1.0625 0l0 -4.109375q0 -0.703125 -0.265625 -1.0625q-0.265625 -0.359375 -0.859375 -0.359375q-0.453125 0 -0.84375 0.234375q-0.375 0.234375 -0.546875 0.703125q-0.171875 0.453125 -0.171875 1.3125l0 3.28125l-1.078125 0z" fill-rule="nonzero"/><path fill="#6fa8dc" d="m390.72382 96.82716l53.898407 0l0 6.1007996l-53.898407 0z" fill-rule="evenodd"/><path fill="#000000" fill-opacity="0.0" d="m390.72382 116.14636l61.008026 0" fill-rule="evenodd"/><path stroke="#000000" stroke-width="0.7637795275590551" stroke-linejoin="round" stroke-linecap="butt" d="m390.72382 116.14636l61.008026 0" fill-rule="evenodd"/><path fill="#000000" fill-opacity="0.0" d="m390.72382 110.04556l0 6.1007996" fill-rule="evenodd"/><path stroke="#000000" stroke-width="0.7637795275590551" stroke-linejoin="round" stroke-linecap="butt" d="m390.72382 110.04556l0 6.1007996" fill-rule="evenodd"/><path fill="#000000" fill-opacity="0.0" d="m451.73184 110.04556l0 6.1007996" fill-rule="evenodd"/><path stroke="#000000" stroke-width="0.7637795275590551" stroke-linejoin="round" stroke-linecap="butt" d="m451.73184 110.04556l0 6.1007996" fill-rule="evenodd"/><path fill="#f3f3f3" d="m538.8198 34.810226l134.23627 0l0 158.61418l-134.23627 0z" fill-rule="evenodd"/><path stroke="#cccccc" stroke-width="0.7637795275590551" stroke-linejoin="round" stroke-linecap="butt" d="m538.8198 34.810226l134.23627 0l0 158.61418l-134.23627 0z" fill-rule="evenodd"/><path fill="#000000" d="m585.31537 53.524147l0 -8.71875l3.015625 0q1.015625 0 1.546875 0.125q0.75 0.171875 1.28125 0.625q0.6875 0.578125 1.03125 1.484375q0.34375 0.90625 0.34375 2.078125q0 0.984375 -0.234375 1.765625q-0.234375 0.765625 -0.59375 1.265625q-0.359375 0.5 -0.796875 0.796875q-0.4375 0.28125 -1.046875 0.4375q-0.609375 0.140625 -1.390625 0.140625l-3.15625 0zm1.15625 -1.03125l1.859375 0q0.859375 0 1.34375 -0.15625q0.5 -0.15625 0.796875 -0.453125q0.40625 -0.40625 0.640625 -1.09375q0.234375 -0.703125 0.234375 -1.6875q0 -1.375 -0.453125 -2.109375q-0.453125 -0.734375 -1.09375 -0.984375q-0.46875 -0.171875 -1.5 -0.171875l-1.828125 0l0 6.65625zm7.6452026 1.03125l0 -8.71875l3.296875 0q0.859375 0 1.328125 0.078125q0.640625 0.109375 1.0625 0.40625q0.4375 0.296875 0.703125 0.84375q0.265625 0.546875 0.265625 1.1875q0 1.109375 -0.703125 1.890625q-0.703125 0.765625 -2.5625 0.765625l-2.234375 0l0 3.546875l-1.15625 0zm1.15625 -4.578125l2.25 0q1.125 0 1.59375 -0.40625q0.46875 -0.421875 0.46875 -1.1875q0 -0.546875 -0.28125 -0.9375q-0.265625 -0.390625 -0.71875 -0.515625q-0.296875 -0.0625 -1.078125 -0.0625l-2.234375 0l0 3.109375zm9.575806 2.6875l1.0625 -0.15625q0.09375 0.625 0.5 0.96875q0.40625 0.34375 1.140625 0.34375q0.734375 0 1.078125 -0.296875q0.359375 -0.3125 0.359375 -0.71875q0 -0.359375 -0.3125 -0.5625q-0.21875 -0.140625 -1.09375 -0.359375q-1.171875 -0.296875 -1.625 -0.515625q-0.453125 -0.21875 -0.703125 -0.59375q-0.234375 -0.390625 -0.234375 -0.859375q0 -0.421875 0.1875 -0.78125q0.203125 -0.359375 0.546875 -0.59375q0.25 -0.1875 0.671875 -0.3125q0.4375 -0.140625 0.921875 -0.140625q0.75 0 1.3125 0.21875q0.5625 0.21875 0.828125 0.59375q0.265625 0.359375 0.375 0.96875l-1.046875 0.140625q-0.078125 -0.484375 -0.421875 -0.75q-0.34375 -0.28125 -0.96875 -0.28125q-0.734375 0 -1.046875 0.25q-0.3125 0.234375 -0.3125 0.5625q0 0.203125 0.125 0.375q0.125 0.171875 0.40625 0.28125q0.171875 0.0625 0.953125 0.28125q1.140625 0.296875 1.578125 0.5q0.453125 0.1875 0.703125 0.5625q0.265625 0.359375 0.265625 0.90625q0 0.53125 -0.3125 1.015625q-0.3125 0.46875 -0.90625 0.734375q-0.578125 0.25 -1.328125 0.25q-1.234375 0 -1.890625 -0.5q-0.640625 -0.515625 -0.8125 -1.53125zm10.65625 1.890625l0 -0.921875q-0.734375 1.0625 -2.0 1.0625q-0.5625 0 -1.046875 -0.203125q-0.484375 -0.21875 -0.71875 -0.546875q-0.234375 -0.328125 -0.328125 -0.796875q-0.0625 -0.3125 -0.0625 -1.0l0 -3.90625l1.0625 0l0 3.5q0 0.84375 0.078125 1.125q0.09375 0.421875 0.421875 0.671875q0.328125 0.234375 0.8125 0.234375q0.484375 0 0.90625 -0.25q0.421875 -0.25 0.59375 -0.671875q0.171875 -0.421875 0.171875 -1.234375l0 -3.375l1.078125 0l0 6.3125l-0.96875 0zm2.6375122 0l0 -6.3125l0.96875 0l0 0.875q0.296875 -0.453125 0.78125 -0.734375q0.5 -0.296875 1.125 -0.296875q0.703125 0 1.15625 0.296875q0.453125 0.296875 0.640625 0.8125q0.75 -1.109375 1.953125 -1.109375q0.9375 0 1.4375 0.53125q0.5 0.515625 0.5 1.59375l0 4.34375l-1.0625 0l0 -3.984375q0 -0.640625 -0.109375 -0.921875q-0.09375 -0.28125 -0.375 -0.453125q-0.265625 -0.171875 -0.640625 -0.171875q-0.65625 0 -1.109375 0.453125q-0.4375 0.4375 -0.4375 1.40625l0 3.671875l-1.0625 0l0 -4.109375q0 -0.703125 -0.265625 -1.0625q-0.265625 -0.359375 -0.859375 -0.359375q-0.453125 0 -0.84375 0.234375q-0.375 0.234375 -0.546875 0.703125q-0.171875 0.453125 -0.171875 1.3125l0 3.28125l-1.078125 0z" fill-rule="nonzero"/><path fill="#6fa8dc" d="m572.38214 96.827614l53.898376 0l0 6.1007996l-53.898376 0z" fill-rule="evenodd"/><path fill="#cccccc" d="m626.2805 96.827614l13.210388 0l0 6.1007996l-13.210388 0z" fill-rule="evenodd"/><path fill="#cccccc" d="m178.76196 164.25668l-2.5905457 -5.5275574l-11.05513 5.1811066l-5.1810913 -11.055115l11.055115 -5.1811066l-2.5905457 -5.5275574l16.236206 5.874008z" fill-rule="evenodd"/><path fill="#cccccc" d="m344.66913 118.692795l0 -6.1023636l-12.204742 0l0 -12.204727l12.204742 0l0 -6.102356l12.204712 12.20472z" fill-rule="evenodd"/><path fill="#f3f3f3" d="m192.01735 34.80718l134.2176 0l0 158.6208l-134.2176 0z" fill-rule="evenodd"/><path stroke="#cccccc" stroke-width="0.7637795275590551" stroke-linejoin="round" stroke-linecap="butt" d="m192.01735 34.80718l134.2176 0l0 158.6208l-134.2176 0z" fill-rule="evenodd"/><path fill="#000000" d="m227.46172 51.2086l1.0625 0.140625q-0.171875 1.078125 -0.890625 1.703125q-0.703125 0.609375 -1.75 0.609375q-1.296875 0 -2.09375 -0.84375q-0.78125 -0.84375 -0.78125 -2.4375q0 -1.015625 0.34375 -1.78125q0.34375 -0.765625 1.03125 -1.15625q0.703125 -0.390625 1.515625 -0.390625q1.03125 0 1.671875 0.53125q0.65625 0.515625 0.84375 1.46875l-1.03125 0.171875q-0.15625 -0.640625 -0.53125 -0.953125q-0.375 -0.328125 -0.921875 -0.328125q-0.796875 0 -1.3125 0.578125q-0.5 0.578125 -0.5 1.828125q0 1.28125 0.484375 1.859375q0.484375 0.578125 1.28125 0.578125q0.625 0 1.046875 -0.390625q0.421875 -0.390625 0.53125 -1.1875zm1.953125 2.3125l0 -8.71875l1.0625 0l0 8.71875l-1.0625 0zm6.848297 -0.78125q-0.59375 0.5 -1.140625 0.71875q-0.546875 0.203125 -1.1875 0.203125q-1.03125 0 -1.59375 -0.5q-0.5625 -0.515625 -0.5625 -1.3125q0 -0.453125 0.203125 -0.828125q0.21875 -0.390625 0.5625 -0.625q0.34375 -0.234375 0.765625 -0.359375q0.328125 -0.078125 0.953125 -0.15625q1.296875 -0.15625 1.921875 -0.375q0 -0.21875 0 -0.28125q0 -0.640625 -0.296875 -0.921875q-0.421875 -0.359375 -1.21875 -0.359375q-0.765625 0 -1.125 0.265625q-0.359375 0.265625 -0.53125 0.9375l-1.046875 -0.140625q0.140625 -0.671875 0.46875 -1.078125q0.328125 -0.421875 0.9375 -0.640625q0.625 -0.234375 1.4375 -0.234375q0.8125 0 1.3125 0.203125q0.515625 0.1875 0.75 0.484375q0.234375 0.28125 0.34375 0.71875q0.046875 0.265625 0.046875 0.984375l0 1.4375q0 1.484375 0.0625 1.890625q0.078125 0.390625 0.28125 0.75l-1.125 0q-0.171875 -0.328125 -0.21875 -0.78125zm-0.078125 -2.390625q-0.59375 0.234375 -1.75 0.40625q-0.671875 0.09375 -0.953125 0.21875q-0.265625 0.109375 -0.421875 0.34375q-0.140625 0.234375 -0.140625 0.5q0 0.4375 0.328125 0.71875q0.328125 0.28125 0.953125 0.28125q0.609375 0 1.09375 -0.265625q0.484375 -0.265625 0.71875 -0.734375q0.171875 -0.375 0.171875 -1.078125l0 -0.390625zm2.7312317 3.171875l0 -6.3125l0.96875 0l0 0.875q0.296875 -0.453125 0.78125 -0.734375q0.5 -0.296875 1.125 -0.296875q0.703125 0 1.15625 0.296875q0.453125 0.296875 0.640625 0.8125q0.75 -1.109375 1.953125 -1.109375q0.9375 0 1.4375 0.53125q0.5 0.515625 0.5 1.59375l0 4.34375l-1.0625 0l0 -3.984375q0 -0.640625 -0.109375 -0.921875q-0.09375 -0.28125 -0.375 -0.453125q-0.265625 -0.171875 -0.640625 -0.171875q-0.65625 0 -1.109375 0.453125q-0.4375 0.4375 -0.4375 1.40625l0 3.671875l-1.0625 0l0 -4.109375q0 -0.703125 -0.265625 -1.0625q-0.265625 -0.359375 -0.859375 -0.359375q-0.453125 0 -0.84375 0.234375q-0.375 0.234375 -0.546875 0.703125q-0.171875 0.453125 -0.171875 1.3125l0 3.28125l-1.078125 0zm10.152283 2.421875l0 -8.734375l0.984375 0l0 0.8125q0.34375 -0.484375 0.78125 -0.71875q0.4375 -0.25 1.046875 -0.25q0.8125 0 1.421875 0.421875q0.625 0.421875 0.9375 1.1875q0.328125 0.75 0.328125 1.65625q0 0.96875 -0.359375 1.75q-0.34375 0.765625 -1.015625 1.1875q-0.65625 0.40625 -1.390625 0.40625q-0.53125 0 -0.96875 -0.21875q-0.421875 -0.234375 -0.6875 -0.578125l0 3.078125l-1.078125 0zm0.96875 -5.546875q0 1.21875 0.5 1.8125q0.5 0.578125 1.203125 0.578125q0.703125 0 1.203125 -0.609375q0.515625 -0.609375 0.515625 -1.875q0 -1.203125 -0.5 -1.796875q-0.484375 -0.609375 -1.171875 -0.609375q-0.6875 0 -1.21875 0.640625q-0.53125 0.640625 -0.53125 1.859375zm10.137497 1.09375l1.109375 0.140625q-0.265625 0.96875 -0.96875 1.5q-0.703125 0.53125 -1.8125 0.53125q-1.375 0 -2.1875 -0.84375q-0.81251526 -0.859375 -0.81251526 -2.40625q0 -1.59375 0.81251526 -2.46875q0.828125 -0.890625 2.125 -0.890625q1.28125 0 2.078125 0.875q0.796875 0.859375 0.796875 2.421875q0 0.09375 0 0.28125l-4.71875 0q0.0625 1.046875 0.59375 1.609375q0.53125 0.546875 1.328125 0.546875q0.578125 0 1.0 -0.3125q0.421875 -0.3125 0.65625 -0.984375zm-3.515625 -1.734375l3.53125 0q-0.078125 -0.796875 -0.40625 -1.203125q-0.515625 -0.609375 -1.328125 -0.609375q-0.734375 0 -1.234375 0.5q-0.5 0.484375 -0.5625 1.3125zm10.074982 3.765625l0 -0.796875q-0.609375 0.9375 -1.765625 0.9375q-0.765625 0 -1.40625 -0.40625q-0.625 -0.421875 -0.96875 -1.171875q-0.34375 -0.75 -0.34375 -1.71875q0 -0.9375 0.3125 -1.703125q0.3125 -0.78125 0.9375 -1.1875q0.640625 -0.421875 1.421875 -0.421875q0.5625 0 1.0 0.25q0.453125 0.234375 0.734375 0.625l0 -3.125l1.0625 0l0 8.71875l-0.984375 0zm-3.390625 -3.15625q0 1.21875 0.515625 1.828125q0.515625 0.59375 1.203125 0.59375q0.703125 0 1.1875 -0.578125q0.5 -0.578125 0.5 -1.75q0 -1.296875 -0.5 -1.90625q-0.5 -0.609375 -1.234375 -0.609375q-0.71875 0 -1.203125 0.59375q-0.46875 0.578125 -0.46875 1.828125zm13.55481 3.15625l0 -0.796875q-0.609375 0.9375 -1.765625 0.9375q-0.765625 0 -1.40625 -0.40625q-0.625 -0.421875 -0.96875 -1.171875q-0.34375 -0.75 -0.34375 -1.71875q0 -0.9375 0.3125 -1.703125q0.3125 -0.78125 0.9375 -1.1875q0.640625 -0.421875 1.421875 -0.421875q0.5625 0 1.0 0.25q0.453125 0.234375 0.734375 0.625l0 -3.125l1.0625 0l0 8.71875l-0.984375 0zm-3.390625 -3.15625q0 1.21875 0.515625 1.828125q0.515625 0.59375 1.203125 0.59375q0.703125 0 1.1875 -0.578125q0.5 -0.578125 0.5 -1.75q0 -1.296875 -0.5 -1.90625q-0.5 -0.609375 -1.234375 -0.609375q-0.71875 0 -1.203125 0.59375q-0.46875 0.578125 -0.46875 1.828125zm10.184357 2.375q-0.59375 0.5 -1.140625 0.71875q-0.546875 0.203125 -1.1875 0.203125q-1.03125 0 -1.59375 -0.5q-0.5625 -0.515625 -0.5625 -1.3125q0 -0.453125 0.203125 -0.828125q0.21875 -0.390625 0.5625 -0.625q0.34375 -0.234375 0.765625 -0.359375q0.328125 -0.078125 0.953125 -0.15625q1.296875 -0.15625 1.921875 -0.375q0 -0.21875 0 -0.28125q0 -0.640625 -0.296875 -0.921875q-0.421875 -0.359375 -1.21875 -0.359375q-0.765625 0 -1.125 0.265625q-0.359375 0.265625 -0.53125 0.9375l-1.046875 -0.140625q0.140625 -0.671875 0.46875 -1.078125q0.328125 -0.421875 0.9375 -0.640625q0.625 -0.234375 1.4375 -0.234375q0.8125 0 1.3125 0.203125q0.515625 0.1875 0.75 0.484375q0.234375 0.28125 0.34375 0.71875q0.046875 0.265625 0.046875 0.984375l0 1.4375q0 1.484375 0.0625 1.890625q0.078125 0.390625 0.28125 0.75l-1.125 0q-0.171875 -0.328125 -0.21875 -0.78125zm-0.078125 -2.390625q-0.59375 0.234375 -1.75 0.40625q-0.671875 0.09375 -0.953125 0.21875q-0.265625 0.109375 -0.421875 0.34375q-0.140625 0.234375 -0.140625 0.5q0 0.4375 0.328125 0.71875q0.328125 0.28125 0.953125 0.28125q0.609375 0 1.09375 -0.265625q0.484375 -0.265625 0.71875 -0.734375q0.171875 -0.375 0.171875 -1.078125l0 -0.390625zm5.0749817 2.21875l0.15625 0.9375q-0.453125 0.09375 -0.8125 0.09375q-0.578125 0 -0.90625 -0.171875q-0.3125 -0.1875 -0.453125 -0.484375q-0.125 -0.3125 -0.125 -1.265625l0 -3.640625l-0.78125 0l0 -0.828125l0.78125 0l0 -1.578125l1.0625 -0.640625l0 2.21875l1.078125 0l0 0.828125l-1.078125 0l0 3.6875q0 0.46875 0.046875 0.59375q0.0625 0.125 0.1875 0.203125q0.140625 0.078125 0.375 0.078125q0.171875 0 0.46875 -0.03125zm5.167328 0.171875q-0.59375 0.5 -1.140625 0.71875q-0.546875 0.203125 -1.1875 0.203125q-1.03125 0 -1.59375 -0.5q-0.5625 -0.515625 -0.5625 -1.3125q0 -0.453125 0.203125 -0.828125q0.21875 -0.390625 0.5625 -0.625q0.34375 -0.234375 0.765625 -0.359375q0.328125 -0.078125 0.953125 -0.15625q1.296875 -0.15625 1.921875 -0.375q0 -0.21875 0 -0.28125q0 -0.640625 -0.296875 -0.921875q-0.421875 -0.359375 -1.21875 -0.359375q-0.765625 0 -1.125 0.265625q-0.359375 0.265625 -0.53125 0.9375l-1.046875 -0.140625q0.140625 -0.671875 0.46875 -1.078125q0.328125 -0.421875 0.9375 -0.640625q0.625 -0.234375 1.4375 -0.234375q0.8125 0 1.3125 0.203125q0.515625 0.1875 0.75 0.484375q0.234375 0.28125 0.34375 0.71875q0.046875 0.265625 0.046875 0.984375l0 1.4375q0 1.484375 0.0625 1.890625q0.078125 0.390625 0.28125 0.75l-1.125 0q-0.171875 -0.328125 -0.21875 -0.78125zm-0.078125 -2.390625q-0.59375 0.234375 -1.75 0.40625q-0.671875 0.09375 -0.953125 0.21875q-0.265625 0.109375 -0.421875 0.34375q-0.140625 0.234375 -0.140625 0.5q0 0.4375 0.328125 0.71875q0.328125 0.28125 0.953125 0.28125q0.609375 0 1.09375 -0.265625q0.484375 -0.265625 0.71875 -0.734375q0.171875 -0.375 0.171875 -1.078125l0 -0.390625z" fill-rule="nonzero"/><path fill="#6fa8dc" d="m222.52135 83.61358l61.00801 0l0 6.1007996l-61.00801 0z" fill-rule="evenodd"/><path fill="#6fa8dc" d="m222.52135 95.81518l48.80641 0l0 6.1007996l-48.80641 0z" fill-rule="evenodd"/><path fill="#6fa8dc" d="m222.52135 108.01678l61.416336 0l0 6.1007996l-61.416336 0z" fill-rule="evenodd"/><path fill="#6fa8dc" d="m222.52135 120.218376l42.705612 0l0 6.1007996l-42.705612 0z" fill-rule="evenodd"/><path fill="#6fa8dc" d="m222.52135 132.41998l61.416336 0l0 6.1007996l-61.416336 0z" fill-rule="evenodd"/><path fill="#6fa8dc" d="m222.52135 144.62158l61.416336 0l0 6.1007996l-61.416336 0z" fill-rule="evenodd"/><path fill="#6fa8dc" d="m222.52135 156.82318l48.80641 0l0 6.1007996l-48.80641 0z" fill-rule="evenodd"/><path fill="#000000" fill-opacity="0.0" d="m210.31975 77.51278l0 85.4112" fill-rule="evenodd"/><path stroke="#000000" stroke-width="0.7637795275590551" stroke-linejoin="round" stroke-linecap="butt" d="m210.31975 77.51278l0 85.4112" fill-rule="evenodd"/><path fill="#000000" fill-opacity="0.0" d="m210.31975 77.51278l6.1007996 0" fill-rule="evenodd"/><path stroke="#000000" stroke-width="0.7637795275590551" stroke-linejoin="round" stroke-linecap="butt" d="m210.31975 77.51278l6.1007996 0" fill-rule="evenodd"/><path fill="#000000" fill-opacity="0.0" d="m210.31975 89.71438l6.1007996 0" fill-rule="evenodd"/><path stroke="#000000" stroke-width="0.7637795275590551" stroke-linejoin="round" stroke-linecap="butt" d="m210.31975 89.71438l6.1007996 0" fill-rule="evenodd"/><path fill="#000000" fill-opacity="0.0" d="m210.31975 101.91598l6.1007996 0" fill-rule="evenodd"/><path stroke="#000000" stroke-width="0.7637795275590551" stroke-linejoin="round" stroke-linecap="butt" d="m210.31975 101.91598l6.1007996 0" fill-rule="evenodd"/><path fill="#000000" fill-opacity="0.0" d="m210.31975 114.11758l6.1007996 0" fill-rule="evenodd"/><path stroke="#000000" stroke-width="0.7637795275590551" stroke-linejoin="round" stroke-linecap="butt" d="m210.31975 114.11758l6.1007996 0" fill-rule="evenodd"/><path fill="#000000" fill-opacity="0.0" d="m210.31975 126.319176l6.1007996 0" fill-rule="evenodd"/><path stroke="#000000" stroke-width="0.7637795275590551" stroke-linejoin="round" stroke-linecap="butt" d="m210.31975 126.319176l6.1007996 0" fill-rule="evenodd"/><path fill="#000000" fill-opacity="0.0" d="m210.31975 138.52078l6.1007996 0" fill-rule="evenodd"/><path stroke="#000000" stroke-width="0.7637795275590551" stroke-linejoin="round" stroke-linecap="butt" d="m210.31975 138.52078l6.1007996 0" fill-rule="evenodd"/><path fill="#000000" fill-opacity="0.0" d="m210.31975 150.72238l6.1007996 0" fill-rule="evenodd"/><path stroke="#000000" stroke-width="0.7637795275590551" stroke-linejoin="round" stroke-linecap="butt" d="m210.31975 150.72238l6.1007996 0" fill-rule="evenodd"/><path fill="#000000" fill-opacity="0.0" d="m210.31975 162.92398l6.1007996 0" fill-rule="evenodd"/><path stroke="#000000" stroke-width="0.7637795275590551" stroke-linejoin="round" stroke-linecap="butt" d="m210.31975 162.92398l6.1007996 0" fill-rule="evenodd"/><path fill="#000000" fill-opacity="0.0" d="m222.52135 169.02478l0 6.1007996" fill-rule="evenodd"/><path stroke="#000000" stroke-width="0.7637795275590551" stroke-linejoin="round" stroke-linecap="butt" d="m222.52135 169.02478l0 6.1007996" fill-rule="evenodd"/><path fill="#000000" fill-opacity="0.0" d="m222.51183 175.43774l61.00789 0" fill-rule="evenodd"/><path stroke="#000000" stroke-width="0.7637795275590551" stroke-linejoin="round" stroke-linecap="butt" d="m222.51183 175.43774l61.00789 0" fill-rule="evenodd"/><path fill="#000000" fill-opacity="0.0" d="m283.52197 169.33675l0 6.1102295" fill-rule="evenodd"/><path stroke="#000000" stroke-width="0.7637795275590551" stroke-linejoin="round" stroke-linecap="butt" d="m283.52197 169.33675l0 6.1102295" fill-rule="evenodd"/><path fill="#cccccc" d="m168.30542 267.50897l2.724411 -5.4566956l-10.913376 -5.448822l5.448807 -10.913391l10.913391 5.448822l2.724411 -5.4566956l5.464569 16.362213z" fill-rule="evenodd"/><path fill="#f3f3f3" d="m192.36407 240.23189l134.2362 0l0 158.61418l-134.2362 0z" fill-rule="evenodd"/><path stroke="#cccccc" stroke-width="0.7637795275590551" stroke-linejoin="round" stroke-linecap="butt" d="m192.36407 240.23189l134.2362 0l0 158.61418l-134.2362 0z" fill-rule="evenodd"/><path fill="#000000" d="m249.49698 256.6333l1.0625 0.140625q-0.171875 1.078125 -0.890625 1.703125q-0.703125 0.609375 -1.75 0.609375q-1.296875 0 -2.09375 -0.84375q-0.78125 -0.84375 -0.78125 -2.4375q0 -1.015625 0.34375 -1.78125q0.34375 -0.765625 1.03125 -1.15625q0.703125 -0.390625 1.515625 -0.390625q1.03125 0 1.671875 0.53125q0.65625 0.515625 0.84375 1.46875l-1.03125 0.171875q-0.15625 -0.640625 -0.53125 -0.953125q-0.375 -0.328125 -0.921875 -0.328125q-0.796875 0 -1.3125 0.578125q-0.5 0.578125 -0.5 1.828125q0 1.28125 0.484375 1.859375q0.484375 0.578125 1.28125 0.578125q0.625 0 1.046875 -0.390625q0.421875 -0.390625 0.53125 -1.1875zm1.578125 -0.84375q0 -1.765625 0.96875 -2.609375q0.828125 -0.703125 2.0 -0.703125q1.296875 0 2.125 0.859375q0.828125 0.859375 0.828125 2.359375q0 1.21875 -0.375 1.921875q-0.359375 0.703125 -1.0625 1.09375q-0.6875 0.375 -1.515625 0.375q-1.328125 0 -2.15625 -0.84375q-0.8125 -0.859375 -0.8125 -2.453125zm1.09375 0q0 1.203125 0.53125 1.8125q0.53125 0.609375 1.34375 0.609375q0.796875 0 1.3125 -0.609375q0.53125 -0.609375 0.53125 -1.859375q0 -1.171875 -0.53125 -1.765625q-0.53125 -0.609375 -1.3125 -0.609375q-0.8125 0 -1.34375 0.609375q-0.53125 0.59375 -0.53125 1.8125zm10.215607 3.15625l0 -0.921875q-0.734375 1.0625 -2.0 1.0625q-0.5625 0 -1.046875 -0.203125q-0.484375 -0.21875 -0.71875 -0.546875q-0.234375 -0.328125 -0.328125 -0.796875q-0.0625 -0.3125 -0.0625 -1.0l0 -3.90625l1.0625 0l0 3.5q0 0.84375 0.078125 1.125q0.09375 0.421875 0.421875 0.671875q0.328125 0.234375 0.8125 0.234375q0.484375 0 0.90625 -0.25q0.421875 -0.25 0.59375 -0.671875q0.171875 -0.421875 0.171875 -1.234375l0 -3.375l1.078125 0l0 6.3125l-0.96875 0zm2.6374817 0l0 -6.3125l0.96875 0l0 0.890625q0.703125 -1.046875 2.015625 -1.046875q0.5625 0 1.046875 0.21875q0.484375 0.203125 0.71875 0.53125q0.234375 0.328125 0.328125 0.796875q0.0625 0.296875 0.0625 1.03125l0 3.890625l-1.0625 0l0 -3.84375q0 -0.65625 -0.125 -0.96875q-0.125 -0.328125 -0.453125 -0.515625q-0.3125 -0.203125 -0.75 -0.203125q-0.671875 0 -1.171875 0.4375q-0.5 0.421875 -0.5 1.640625l0 3.453125l-1.078125 0zm9.121857 -0.953125l0.15625 0.9375q-0.453125 0.09375 -0.8125 0.09375q-0.578125 0 -0.90625 -0.171875q-0.3125 -0.1875 -0.453125 -0.484375q-0.125 -0.3125 -0.125 -1.265625l0 -3.640625l-0.78125 0l0 -0.828125l0.78125 0l0 -1.578125l1.0625 -0.640625l0 2.21875l1.078125 0l0 0.828125l-1.078125 0l0 3.6875q0 0.46875 0.046875 0.59375q0.0625 0.125 0.1875 0.203125q0.140625 0.078125 0.375 0.078125q0.171875 0 0.46875 -0.03125z" fill-rule="nonzero"/><path fill="#6fa8dc" d="m224.20677 309.87967l53.89839 0l0 6.1007996l-53.89839 0z" fill-rule="evenodd"/><path fill="#000000" fill-opacity="0.0" d="m224.20677 329.19885l61.00798 0" fill-rule="evenodd"/><path stroke="#000000" stroke-width="0.7637795275590551" stroke-linejoin="round" stroke-linecap="butt" d="m224.20677 329.19885l61.00798 0" fill-rule="evenodd"/><path fill="#000000" fill-opacity="0.0" d="m224.20677 323.09805l0 6.1007996" fill-rule="evenodd"/><path stroke="#000000" stroke-width="0.7637795275590551" stroke-linejoin="round" stroke-linecap="butt" d="m224.20677 323.09805l0 6.1007996" fill-rule="evenodd"/><path fill="#000000" fill-opacity="0.0" d="m285.21475 323.09805l0 6.1007996" fill-rule="evenodd"/><path stroke="#000000" stroke-width="0.7637795275590551" stroke-linejoin="round" stroke-linecap="butt" d="m285.21475 323.09805l0 6.1007996" fill-rule="evenodd"/><path fill="#cccccc" d="m523.8135 118.692795l0 -6.1023636l-12.204712 0l0 -12.204727l12.204712 0l0 -6.102356l12.204712 12.20472z" fill-rule="evenodd"/><path fill="#cccccc" d="m347.86465 331.7453l0 -6.1023865l-12.204712 0l0 -12.204712l12.204712 0l0 -6.102356l12.204742 12.204712z" fill-rule="evenodd"/><path fill="#f3f3f3" d="m364.79886 240.2328l134.2362 0l0 158.61418l-134.2362 0z" fill-rule="evenodd"/><path stroke="#cccccc" stroke-width="0.7637795275590551" stroke-linejoin="round" stroke-linecap="butt" d="m364.79886 240.2328l134.2362 0l0 158.61418l-134.2362 0z" fill-rule="evenodd"/><path fill="#000000" d="m407.89938 258.94672l0 -8.71875l3.015625 0q1.015625 0 1.546875 0.125q0.75 0.171875 1.28125 0.625q0.6875 0.578125 1.03125 1.484375q0.34375 0.90625 0.34375 2.078125q0 0.984375 -0.234375 1.765625q-0.234375 0.765625 -0.59375 1.265625q-0.359375 0.5 -0.796875 0.796875q-0.4375 0.28125 -1.046875 0.4375q-0.609375 0.140625 -1.390625 0.140625l-3.15625 0zm1.15625 -1.03125l1.859375 0q0.859375 0 1.34375 -0.15625q0.5 -0.15625 0.796875 -0.453125q0.40625 -0.40625 0.640625 -1.09375q0.234375 -0.703125 0.234375 -1.6875q0 -1.375 -0.453125 -2.109375q-0.453125 -0.734375 -1.09375 -0.984375q-0.46875 -0.171875 -1.5 -0.171875l-1.828125 0l0 6.65625zm7.645172 1.03125l0 -8.71875l3.296875 0q0.859375 0 1.328125 0.078125q0.640625 0.109375 1.0625 0.40625q0.4375 0.296875 0.703125 0.84375q0.265625 0.546875 0.265625 1.1875q0 1.109375 -0.703125 1.890625q-0.703125 0.765625 -2.5625 0.765625l-2.234375 0l0 3.546875l-1.15625 0zm1.15625 -4.578125l2.25 0q1.125 0 1.59375 -0.40625q0.46875 -0.421875 0.46875 -1.1875q0 -0.546875 -0.28125 -0.9375q-0.265625 -0.390625 -0.71875 -0.515625q-0.296875 -0.0625 -1.078125 -0.0625l-2.234375 0l0 3.109375zm14.122711 2.265625l1.0625 0.140625q-0.171875 1.078125 -0.890625 1.703125q-0.703125 0.609375 -1.75 0.609375q-1.296875 0 -2.09375 -0.84375q-0.78125 -0.84375 -0.78125 -2.4375q0 -1.015625 0.34375 -1.78125q0.34375 -0.765625 1.03125 -1.15625q0.703125 -0.390625 1.515625 -0.390625q1.03125 0 1.671875 0.53125q0.65625 0.515625 0.84375 1.46875l-1.03125 0.171875q-0.15625 -0.640625 -0.53125 -0.953125q-0.375 -0.328125 -0.921875 -0.328125q-0.796875 0 -1.3125 0.578125q-0.5 0.578125 -0.5 1.828125q0 1.28125 0.484375 1.859375q0.484375 0.578125 1.28125 0.578125q0.625 0 1.046875 -0.390625q0.421875 -0.390625 0.53125 -1.1875zm1.578125 -0.84375q0 -1.765625 0.96875 -2.609375q0.828125 -0.703125 2.0 -0.703125q1.296875 0 2.125 0.859375q0.828125 0.859375 0.828125 2.359375q0 1.21875 -0.375 1.921875q-0.359375 0.703125 -1.0625 1.09375q-0.6875 0.375 -1.515625 0.375q-1.328125 0 -2.15625 -0.84375q-0.8125 -0.859375 -0.8125 -2.453125zm1.09375 0q0 1.203125 0.53125 1.8125q0.53125 0.609375 1.34375 0.609375q0.796875 0 1.3125 -0.609375q0.53125 -0.609375 0.53125 -1.859375q0 -1.171875 -0.53125 -1.765625q-0.53125 -0.609375 -1.3125 -0.609375q-0.8125 0 -1.34375 0.609375q-0.53125 0.59375 -0.53125 1.8125zm10.215607 3.15625l0 -0.921875q-0.734375 1.0625 -2.0 1.0625q-0.5625 0 -1.046875 -0.203125q-0.484375 -0.21875 -0.71875 -0.546875q-0.234375 -0.328125 -0.328125 -0.796875q-0.0625 -0.3125 -0.0625 -1.0l0 -3.90625l1.0625 0l0 3.5q0 0.84375 0.078125 1.125q0.09375 0.421875 0.421875 0.671875q0.328125 0.234375 0.8125 0.234375q0.484375 0 0.90625 -0.25q0.421875 -0.25 0.59375 -0.671875q0.171875 -0.421875 0.171875 -1.234375l0 -3.375l1.078125 0l0 6.3125l-0.96875 0zm2.6374817 0l0 -6.3125l0.96875 0l0 0.890625q0.703125 -1.046875 2.015625 -1.046875q0.5625 0 1.046875 0.21875q0.484375 0.203125 0.71875 0.53125q0.234375 0.328125 0.328125 0.796875q0.0625 0.296875 0.0625 1.03125l0 3.890625l-1.0625 0l0 -3.84375q0 -0.65625 -0.125 -0.96875q-0.125 -0.328125 -0.453125 -0.515625q-0.3125 -0.203125 -0.75 -0.203125q-0.671875 0 -1.171875 0.4375q-0.5 0.421875 -0.5 1.640625l0 3.453125l-1.078125 0zm9.121857 -0.953125l0.15625 0.9375q-0.453125 0.09375 -0.8125 0.09375q-0.578125 0 -0.90625 -0.171875q-0.3125 -0.1875 -0.453125 -0.484375q-0.125 -0.3125 -0.125 -1.265625l0 -3.640625l-0.78125 0l0 -0.828125l0.78125 0l0 -1.578125l1.0625 -0.640625l0 2.21875l1.078125 0l0 0.828125l-1.078125 0l0 3.6875q0 0.46875 0.046875 0.59375q0.0625 0.125 0.1875 0.203125q0.140625 0.078125 0.375 0.078125q0.171875 0 0.46875 -0.03125z" fill-rule="nonzero"/><path fill="#6fa8dc" d="m396.6656 316.48904l53.898407 0l0 6.1007996l-53.898407 0z" fill-rule="evenodd"/><path fill="#cccccc" d="m450.564 316.48904l13.210388 0l0 6.1007996l-13.210388 0z" fill-rule="evenodd"/><path fill="#f3f3f3" d="m7.4015746 342.22308l134.23622 0l0 44.44095l-134.23622 0z" fill-rule="evenodd"/><path stroke="#cccccc" stroke-width="0.7637795275590551" stroke-linejoin="round" stroke-linecap="butt" d="m7.4015746 342.22308l134.23622 0l0 44.44095l-134.23622 0z" fill-rule="evenodd"/><path fill="#000000" d="m35.68338 363.35886l0 -8.734375l0.984375 0l0 0.8125q0.34375 -0.484375 0.78125 -0.71875q0.4375 -0.25 1.046875 -0.25q0.8125 0 1.421875 0.421875q0.625 0.421875 0.9375 1.1875q0.328125 0.75 0.328125 1.65625q0 0.96875 -0.359375 1.75q-0.34375 0.765625 -1.015625 1.1875q-0.65625 0.40625 -1.390625 0.40625q-0.53125 0 -0.96875 -0.21875q-0.421875 -0.234375 -0.6875 -0.578125l0 3.078125l-1.078125 0zm0.96875 -5.546875q0 1.21875 0.5 1.8125q0.5 0.578125 1.203125 0.578125q0.703125 0 1.203125 -0.609375q0.515625 -0.609375 0.515625 -1.875q0 -1.203125 -0.5 -1.796875q-0.484375 -0.609375 -1.171875 -0.609375q-0.6875 0 -1.21875 0.640625q-0.53125 0.640625 -0.53125 1.859375zm5.8093567 3.125l0 -6.3125l0.953125 0l0 0.953125q0.375 -0.671875 0.6875 -0.890625q0.3125 -0.21875 0.6875 -0.21875q0.546875 0 1.09375 0.34375l-0.359375 1.0q-0.390625 -0.234375 -0.78125 -0.234375q-0.359375 0 -0.640625 0.21875q-0.28125 0.203125 -0.390625 0.578125q-0.1875 0.578125 -0.1875 1.25l0 3.3125l-1.0625 0zm4.0741577 -7.5l0 -1.21875l1.0625 0l0 1.21875l-1.0625 0zm0 7.5l0 -6.3125l1.0625 0l0 6.3125l-1.0625 0zm4.457672 0l-2.40625 -6.3125l1.125 0l1.359375 3.78125q0.21875 0.609375 0.40625 1.265625q0.140625 -0.5 0.40625 -1.203125l1.390625 -3.84375l1.109375 0l-2.390625 6.3125l-1.0 0zm8.453125 -0.78125q-0.59375 0.5 -1.140625 0.71875q-0.546875 0.203125 -1.1875 0.203125q-1.03125 0 -1.59375 -0.5q-0.5625 -0.515625 -0.5625 -1.3125q0 -0.453125 0.203125 -0.828125q0.21875 -0.390625 0.5625 -0.625q0.34375 -0.234375 0.765625 -0.359375q0.328125 -0.078125 0.953125 -0.15625q1.296875 -0.15625 1.921875 -0.375q0 -0.21875 0 -0.28125q0 -0.640625 -0.296875 -0.921875q-0.421875 -0.359375 -1.21875 -0.359375q-0.765625 0 -1.125 0.265625q-0.359375 0.265625 -0.53125 0.9375l-1.046875 -0.140625q0.140625 -0.671875 0.46875 -1.078125q0.328125 -0.421875 0.9375 -0.640625q0.625 -0.234375 1.4375 -0.234375q0.8125 0 1.3125 0.203125q0.515625 0.1875 0.75 0.484375q0.234375 0.28125 0.34375 0.71875q0.046875 0.265625 0.046875 0.984375l0 1.4375q0 1.484375 0.0625 1.890625q0.078125 0.390625 0.28125 0.75l-1.125 0q-0.171875 -0.328125 -0.21875 -0.78125zm-0.078125 -2.390625q-0.59375 0.234375 -1.75 0.40625q-0.671875 0.09375 -0.953125 0.21875q-0.265625 0.109375 -0.421875 0.34375q-0.140625 0.234375 -0.140625 0.5q0 0.4375 0.328125 0.71875q0.328125 0.28125 0.953125 0.28125q0.609375 0 1.09375 -0.265625q0.484375 -0.265625 0.71875 -0.734375q0.171875 -0.375 0.171875 -1.078125l0 -0.390625zm6.8562317 0.859375l1.0625 0.140625q-0.171875 1.078125 -0.890625 1.703125q-0.703125 0.609375 -1.75 0.609375q-1.296875 0 -2.09375 -0.84375q-0.78125 -0.84375 -0.78125 -2.4375q0 -1.015625 0.34375 -1.78125q0.34375 -0.765625 1.03125 -1.15625q0.703125 -0.390625 1.515625 -0.390625q1.03125 0 1.671875 0.53125q0.65625 0.515625 0.84375 1.46875l-1.03125 0.171875q-0.15625 -0.640625 -0.53125 -0.953125q-0.375 -0.328125 -0.921875 -0.328125q-0.796875 0 -1.3125 0.578125q-0.5 0.578125 -0.5 1.828125q0 1.28125 0.484375 1.859375q0.484375 0.578125 1.28125 0.578125q0.625 0 1.046875 -0.390625q0.421875 -0.390625 0.53125 -1.1875zm1.921875 4.75l-0.109375 -1.015625q0.34375 0.109375 0.609375 0.109375q0.359375 0 0.5625 -0.125q0.21875 -0.125 0.359375 -0.328125q0.09375 -0.171875 0.328125 -0.796875q0.03125 -0.09375 0.09375 -0.265625l-2.390625 -6.328125l1.140625 0l1.328125 3.65625q0.25 0.6875 0.453125 1.453125q0.1875 -0.734375 0.4375 -1.4375l1.359375 -3.671875l1.0625 0l-2.40625 6.421875q-0.375 1.046875 -0.59375 1.4375q-0.28125 0.53125 -0.65625 0.765625q-0.375 0.25 -0.875 0.25q-0.3125 0 -0.703125 -0.125zm10.526703 -2.4375l-1.0 0l0 -8.71875l1.078125 0l0 3.109375q0.671875 -0.859375 1.71875 -0.859375q0.59375 0 1.109375 0.234375q0.515625 0.234375 0.84375 0.671875q0.34375 0.421875 0.53125 1.03125q0.203125 0.59375 0.203125 1.28125q0 1.625 -0.8125 2.515625q-0.796875 0.875 -1.921875 0.875q-1.125 0 -1.75 -0.9375l0 0.796875zm-0.015625 -3.203125q0 1.125 0.3125 1.640625q0.5 0.828125 1.359375 0.828125q0.703125 0 1.21875 -0.609375q0.515625 -0.609375 0.515625 -1.828125q0 -1.234375 -0.5 -1.8125q-0.484375 -0.59375 -1.1875 -0.59375q-0.703125 0 -1.21875 0.609375q-0.5 0.609375 -0.5 1.765625zm9.934357 3.203125l0 -0.921875q-0.734375 1.0625 -2.0 1.0625q-0.5625 0 -1.046875 -0.203125q-0.484375 -0.21875 -0.71875 -0.546875q-0.234375 -0.328125 -0.328125 -0.796875q-0.0625 -0.3125 -0.0625 -1.0l0 -3.90625l1.0625 0l0 3.5q0 0.84375 0.078125 1.125q0.09375 0.421875 0.421875 0.671875q0.328125 0.234375 0.8125 0.234375q0.484375 0 0.90625 -0.25q0.421875 -0.25 0.59375 -0.671875q0.171875 -0.421875 0.171875 -1.234375l0 -3.375l1.078125 0l0 6.3125l-0.96875 0zm6.7468567 0l0 -0.796875q-0.609375 0.9375 -1.765625 0.9375q-0.765625 0 -1.40625 -0.40625q-0.625 -0.421875 -0.96875 -1.171875q-0.34375 -0.75 -0.34375 -1.71875q0 -0.9375 0.3125 -1.703125q0.3125 -0.78125 0.9375 -1.1875q0.640625 -0.421875 1.421875 -0.421875q0.5625 0 1.0 0.25q0.453125 0.234375 0.734375 0.625l0 -3.125l1.0625 0l0 8.71875l-0.984375 0zm-3.390625 -3.15625q0 1.21875 0.515625 1.828125q0.515625 0.59375 1.203125 0.59375q0.703125 0 1.1875 -0.578125q0.5 -0.578125 0.5 -1.75q0 -1.296875 -0.5 -1.90625q-0.5 -0.609375 -1.234375 -0.609375q-0.71875 0 -1.203125 0.59375q-0.46875 0.578125 -0.46875 1.828125zm5.8718567 3.6875l1.03125 0.140625q0.078125 0.484375 0.375 0.703125q0.390625 0.296875 1.078125 0.296875q0.75 0 1.15625 -0.296875q0.40625 -0.296875 0.546875 -0.828125q0.078125 -0.328125 0.078125 -1.375q-0.703125 0.828125 -1.75 0.828125q-1.296875 0 -2.015625 -0.9375q-0.71875 -0.9375 -0.71875 -2.265625q0 -0.890625 0.328125 -1.65625q0.328125 -0.765625 0.953125 -1.1875q0.625 -0.421875 1.453125 -0.421875q1.125 0 1.84375 0.90625l0 -0.75l1.0 0l0 5.453125q0 1.484375 -0.3125 2.09375q-0.296875 0.609375 -0.953125 0.96875q-0.640625 0.359375 -1.59375 0.359375q-1.140625 0 -1.84375 -0.515625q-0.6875 -0.5 -0.65625 -1.515625zm0.890625 -3.796875q0 1.234375 0.484375 1.8125q0.5 0.5625 1.234375 0.5625q0.75 0 1.25 -0.5625q0.5 -0.5625 0.5 -1.78125q0 -1.15625 -0.515625 -1.75q-0.515625 -0.59375 -1.25 -0.59375q-0.703125 0 -1.203125 0.578125q-0.5 0.578125 -0.5 1.734375zm10.403107 1.234375l1.109375 0.140625q-0.265625 0.96875 -0.96875 1.5q-0.703125 0.53125 -1.8125 0.53125q-1.375 0 -2.1875 -0.84375q-0.8125 -0.859375 -0.8125 -2.40625q0 -1.59375 0.8125 -2.46875q0.828125 -0.890625 2.125 -0.890625q1.28125 0 2.078125 0.875q0.796875 0.859375 0.796875 2.421875q0 0.09375 0 0.28125l-4.71875 0q0.0625 1.046875 0.59375 1.609375q0.53125 0.546875 1.328125 0.546875q0.578125 0 1.0 -0.3125q0.421875 -0.3125 0.65625 -0.984375zm-3.515625 -1.734375l3.53125 0q-0.078125 -0.796875 -0.40625 -1.203125q-0.515625 -0.609375 -1.328125 -0.609375q-0.734375 0 -1.234375 0.5q-0.5 0.484375 -0.5625 1.3125zm8.309357 2.8125l0.15625 0.9375q-0.453125 0.09375 -0.8125 0.09375q-0.578125 0 -0.90625 -0.171875q-0.3125 -0.1875 -0.453125 -0.484375q-0.125 -0.3125 -0.125 -1.265625l0 -3.640625l-0.78125 0l0 -0.828125l0.78125 0l0 -1.578125l1.0625 -0.640625l0 2.21875l1.078125 0l0 0.828125l-1.078125 0l0 3.6875q0 0.46875 0.046875 0.59375q0.0625 0.125 0.1875 0.203125q0.140625 0.078125 0.375 0.078125q0.171875 0 0.46875 -0.03125z" fill-rule="nonzero"/><path fill="#000000" d="m51.82631 373.79636l1.046875 0.09375q-0.21875 0.78125 -1.03125 1.484375q-0.8125 0.703125 -1.9375 0.703125q-0.703125 0 -1.296875 -0.3125q-0.578125 -0.328125 -0.890625 -0.953125q-0.3125 -0.625 -0.3125 -1.40625q0 -1.046875 0.484375 -2.015625q0.484375 -0.96875 1.234375 -1.4375q0.765625 -0.484375 1.65625 -0.484375q1.125 0 1.796875 0.703125q0.6875 0.703125 0.6875 1.921875q0 0.46875 -0.09375 0.953125l-4.640625 0q-0.03125 0.1875 -0.03125 0.328125q0 0.890625 0.40625 1.359375q0.40625 0.46875 1.0 0.46875q0.546875 0 1.078125 -0.359375q0.546875 -0.375 0.84375 -1.046875zm-3.125 -1.578125l3.546875 0q0 -0.15625 0 -0.234375q0 -0.8125 -0.40625 -1.234375q-0.40625 -0.4375 -1.046875 -0.4375q-0.6875 0 -1.25 0.484375q-0.5625 0.46875 -0.84375 1.421875zm4.7312317 6.140625l1.828125 -8.734375l1.0 0l-0.1875 0.875q0.546875 -0.578125 0.984375 -0.796875q0.4375 -0.234375 0.921875 -0.234375q0.90625 0 1.5 0.671875q0.59375 0.65625 0.59375 1.875q0 0.984375 -0.328125 1.796875q-0.3125 0.8125 -0.796875 1.3125q-0.46875 0.484375 -0.96875 0.71875q-0.484375 0.234375 -1.0 0.234375q-1.125 0 -1.75 -1.15625l-0.71875 3.4375l-1.078125 0zm2.125 -5.0q0 0.703125 0.109375 0.984375q0.140625 0.375 0.484375 0.625q0.34375 0.234375 0.78125 0.234375q0.9375 0 1.5 -1.046875q0.578125 -1.046875 0.578125 -2.140625q0 -0.796875 -0.390625 -1.234375q-0.375 -0.4375 -0.953125 -0.4375q-0.40625 0 -0.765625 0.21875q-0.34375 0.21875 -0.65625 0.65625q-0.296875 0.421875 -0.5 1.046875q-0.1875 0.625 -0.1875 1.09375zm5.2781067 0.421875l1.078125 -0.0625q0 0.453125 0.140625 0.78125q0.15625 0.328125 0.53125 0.546875q0.390625 0.203125 0.890625 0.203125q0.71875 0 1.078125 -0.28125q0.359375 -0.296875 0.359375 -0.671875q0 -0.28125 -0.21875 -0.53125q-0.21875 -0.25 -1.078125 -0.609375q-0.84375 -0.375 -1.078125 -0.53125q-0.40625 -0.234375 -0.609375 -0.5625q-0.203125 -0.34375 -0.203125 -0.765625q0 -0.75 0.59375 -1.28125q0.59375 -0.546875 1.671875 -0.546875q1.1875 0 1.8125 0.5625q0.625 0.546875 0.640625 1.4375l-1.046875 0.078125q-0.03125 -0.578125 -0.421875 -0.90625q-0.375 -0.328125 -1.0625 -0.328125q-0.5625 0 -0.875 0.25q-0.3125 0.25 -0.3125 0.5625q0 0.296875 0.28125 0.515625q0.171875 0.15625 0.921875 0.46875q1.234375 0.546875 1.546875 0.859375q0.515625 0.484375 0.515625 1.203125q0 0.46875 -0.296875 0.921875q-0.28125 0.4375 -0.875 0.71875q-0.59375 0.265625 -1.390625 0.265625q-1.09375 0 -1.859375 -0.546875q-0.765625 -0.53125 -0.734375 -1.75zm7.53125 -5.34375l0.25 -1.21875l1.078125 0l-0.265625 1.21875l-1.0625 0zm-1.578125 7.5l1.328125 -6.3125l1.078125 0l-1.328125 6.3125l-1.078125 0zm2.676422 0l1.8125 -8.71875l1.078125 0l-1.8125 8.71875l-1.078125 0zm2.973297 -2.390625q0 -1.859375 1.09375 -3.078125q0.890625 -1.0 2.359375 -1.0q1.140625 0 1.828125 0.71875q0.703125 0.71875 0.703125 1.921875q0 1.09375 -0.4375 2.03125q-0.4375 0.9375 -1.25 1.4375q-0.8125 0.5 -1.71875 0.5q-0.734375 0 -1.34375 -0.3125q-0.59375 -0.3125 -0.921875 -0.890625q-0.3125 -0.578125 -0.3125 -1.328125zm1.078125 -0.109375q0 0.890625 0.421875 1.359375q0.4375 0.453125 1.09375 0.453125q0.34375 0 0.6875 -0.140625q0.34375 -0.140625 0.625 -0.421875q0.296875 -0.296875 0.5 -0.65625q0.203125 -0.359375 0.328125 -0.796875q0.1875 -0.578125 0.1875 -1.125q0 -0.859375 -0.4375 -1.328125q-0.421875 -0.46875 -1.078125 -0.46875q-0.5 0 -0.921875 0.25q-0.421875 0.234375 -0.765625 0.703125q-0.328125 0.453125 -0.484375 1.078125q-0.15625 0.609375 -0.15625 1.09375zm5.5124817 2.5l1.3125 -6.3125l0.984375 0l-0.234375 1.09375q0.640625 -0.65625 1.1875 -0.953125q0.5625 -0.296875 1.140625 -0.296875q0.765625 0 1.203125 0.421875q0.4375 0.421875 0.4375 1.109375q0 0.359375 -0.15625 1.109375l-0.8125 3.828125l-1.078125 0l0.84375 -4.0q0.125 -0.59375 0.125 -0.875q0 -0.3125 -0.21875 -0.5q-0.21875 -0.203125 -0.625 -0.203125q-0.828125 0 -1.484375 0.59375q-0.640625 0.59375 -0.9375 2.046875l-0.609375 2.9375l-1.078125 0zm11.726685 2.5625q-0.9375 -2.046875 -0.9375 -4.203125q0 -1.4375 0.375 -2.671875q0.375 -1.25 1.15625 -2.46875q0.515625 -0.8125 1.640625 -2.09375l0.828125 0q-0.6875 0.75 -1.46875 2.109375q-0.78125 1.34375 -1.140625 2.640625q-0.34375 1.296875 -0.34375 2.625q0 1.953125 0.6875 4.0625l-0.796875 0zm7.6679077 -8.125l-0.828125 0.5625q-0.53125 -0.578125 -1.203125 -0.578125q-0.546875 0 -0.890625 0.3125q-0.328125 0.3125 -0.328125 0.71875q0 0.828125 1.421875 0.921875l-0.15625 0.8125q-0.21875 -0.015625 -0.34375 -0.015625q-0.75 0 -1.234375 0.375q-0.484375 0.359375 -0.484375 0.875q0 0.421875 0.28125 0.65625q0.28125 0.234375 0.765625 0.234375q0.890625 0 1.6875 -0.765625l0.65625 0.6875q-1.015625 0.90625 -2.3125 0.90625q-1.078125 0 -1.640625 -0.484375q-0.5625 -0.5 -0.5625 -1.203125q0 -1.21875 1.484375 -1.796875q-0.640625 -0.546875 -0.640625 -1.28125q0 -0.765625 0.65625 -1.296875q0.65625 -0.546875 1.578125 -0.546875q1.265625 0 2.09375 0.90625zm2.199585 -3.3125q0.9375 2.046875 0.9375 4.203125q0 1.453125 -0.390625 2.6875q-0.375 1.234375 -1.140625 2.453125q-0.515625 0.8125 -1.640625 2.09375l-0.84375 0q0.703125 -0.75 1.46875 -2.109375q0.78125 -1.34375 1.125 -2.640625q0.359375 -1.296875 0.359375 -2.625q0 -1.953125 -0.6875 -4.0625l0.8125 0z" fill-rule="nonzero"/></g></svg>