<svg version="1.1" viewBox="0.0 0.0 697.0761154855643 557.8608923884515" fill="none" stroke="none" stroke-linecap="square" stroke-miterlimit="10" xmlns:xlink="http://www.w3.org/1999/xlink" xmlns="http://www.w3.org/2000/svg"><clipPath id="p.0"><path d="m0 0l697.0761 0l0 557.8609l-697.0761 0l0 -557.8609z" clip-rule="nonzero"/></clipPath><g clip-path="url(#p.0)"><path fill="#000000" fill-opacity="0.0" d="m0 0l697.0761 0l0 557.8609l-697.0761 0z" fill-rule="evenodd"/><path fill="#f3f3f3" d="m494.32547 15.480315l175.99997 0l0 184.59842l-175.99997 0z" fill-rule="evenodd"/><path stroke="#cccccc" stroke-width="1.0" stroke-linejoin="round" stroke-linecap="butt" d="m494.32547 15.480315l175.99997 0l0 184.59842l-175.99997 0z" fill-rule="evenodd"/><path fill="#6fa8dc" d="m550.32544 51.779526l80.0 0l0 8.0l-80.0 0z" fill-rule="evenodd"/><path fill="#6fa8dc" d="m550.32544 67.779526l64.0 0l0 8.0l-64.0 0z" fill-rule="evenodd"/><path fill="#6fa8dc" d="m550.32544 83.779526l80.0 0l0 8.0l-80.0 0z" fill-rule="evenodd"/><path fill="#6fa8dc" d="m550.32544 99.779526l56.0 0l0 8.0l-56.0 0z" fill-rule="evenodd"/><path fill="#6fa8dc" d="m550.32544 115.779526l80.0 0l0 8.0l-80.0 0z" fill-rule="evenodd"/><path fill="#6fa8dc" d="m550.32544 131.77953l80.0 0l0 8.0l-80.0 0z" fill-rule="evenodd"/><path fill="#6fa8dc" d="m550.32544 147.77953l64.0 0l0 8.0l-64.0 0z" fill-rule="evenodd"/><path fill="#000000" fill-opacity="0.0" d="m534.32544 43.779526l0 112.0" fill-rule="evenodd"/><path stroke="#000000" stroke-width="1.0" stroke-linejoin="round" stroke-linecap="butt" d="m534.32544 43.779526l0 112.0" fill-rule="evenodd"/><path fill="#000000" fill-opacity="0.0" d="m534.32544 43.779526l8.0 0" fill-rule="evenodd"/><path stroke="#000000" stroke-width="1.0" stroke-linejoin="round" stroke-linecap="butt" d="m534.32544 43.779526l8.0 0" fill-rule="evenodd"/><path fill="#000000" fill-opacity="0.0" d="m534.32544 59.779526l8.0 0" fill-rule="evenodd"/><path stroke="#000000" stroke-width="1.0" stroke-linejoin="round" stroke-linecap="butt" d="m534.32544 59.779526l8.0 0" fill-rule="evenodd"/><path fill="#000000" fill-opacity="0.0" d="m534.32544 75.779526l8.0 0" fill-rule="evenodd"/><path stroke="#000000" stroke-width="1.0" stroke-linejoin="round" stroke-linecap="butt" d="m534.32544 75.779526l8.0 0" fill-rule="evenodd"/><path fill="#000000" fill-opacity="0.0" d="m534.32544 91.779526l8.0 0" fill-rule="evenodd"/><path stroke="#000000" stroke-width="1.0" stroke-linejoin="round" stroke-linecap="butt" d="m534.32544 91.779526l8.0 0" fill-rule="evenodd"/><path fill="#000000" fill-opacity="0.0" d="m534.32544 107.779526l8.0 0" fill-rule="evenodd"/><path stroke="#000000" stroke-width="1.0" stroke-linejoin="round" stroke-linecap="butt" d="m534.32544 107.779526l8.0 0" fill-rule="evenodd"/><path fill="#000000" fill-opacity="0.0" d="m534.32544 123.779526l8.0 0" fill-rule="evenodd"/><path stroke="#000000" stroke-width="1.0" stroke-linejoin="round" stroke-linecap="butt" d="m534.32544 123.779526l8.0 0" fill-rule="evenodd"/><path fill="#000000" fill-opacity="0.0" d="m534.32544 139.77953l8.0 0" fill-rule="evenodd"/><path stroke="#000000" stroke-width="1.0" stroke-linejoin="round" stroke-linecap="butt" d="m534.32544 139.77953l8.0 0" fill-rule="evenodd"/><path fill="#000000" fill-opacity="0.0" d="m534.32544 155.77953l8.0 0" fill-rule="evenodd"/><path stroke="#000000" stroke-width="1.0" stroke-linejoin="round" stroke-linecap="butt" d="m534.32544 155.77953l8.0 0" fill-rule="evenodd"/><path fill="#000000" fill-opacity="0.0" d="m550.32544 171.77953l80.0 0" fill-rule="evenodd"/><path stroke="#000000" stroke-width="1.0" stroke-linejoin="round" stroke-linecap="butt" d="m550.32544 171.77953l80.0 0" fill-rule="evenodd"/><path fill="#000000" fill-opacity="0.0" d="m550.32544 163.77953l0 8.0" fill-rule="evenodd"/><path stroke="#000000" stroke-width="1.0" stroke-linejoin="round" stroke-linecap="butt" d="m550.32544 163.77953l0 8.0" fill-rule="evenodd"/><path fill="#000000" fill-opacity="0.0" d="m630.32544 163.77953l0 8.0" fill-rule="evenodd"/><path stroke="#000000" stroke-width="1.0" stroke-linejoin="round" stroke-linecap="butt" d="m630.32544 163.77953l0 8.0" fill-rule="evenodd"/><path fill="#f3f3f3" d="m23.548557 15.480315l176.0 0l0 180.34645l-176.0 0z" fill-rule="evenodd"/><path stroke="#cccccc" stroke-width="1.0" stroke-linejoin="round" stroke-linecap="butt" d="m23.548557 15.480315l176.0 0l0 180.34645l-176.0 0z" fill-rule="evenodd"/><path fill="#6fa8dc" d="m63.548557 51.824146l80.0 0l0 8.0l-80.0 0z" fill-rule="evenodd"/><path fill="#6fa8dc" d="m63.548557 67.82415l63.999996 0l0 8.0l-63.999996 0z" fill-rule="evenodd"/><path fill="#6fa8dc" d="m63.548557 83.82415l88.0 0l0 8.0l-88.0 0z" fill-rule="evenodd"/><path fill="#6fa8dc" d="m63.548557 99.82415l55.999996 0l0 8.0l-55.999996 0z" fill-rule="evenodd"/><path fill="#6fa8dc" d="m63.548557 115.82415l96.0 0l0 8.0l-96.0 0z" fill-rule="evenodd"/><path fill="#6fa8dc" d="m63.548557 131.82414l104.0 0l0 8.0l-104.0 0z" fill-rule="evenodd"/><path fill="#6fa8dc" d="m63.548557 147.82414l63.999996 0l0 8.0l-63.999996 0z" fill-rule="evenodd"/><path fill="#000000" fill-opacity="0.0" d="m47.548557 43.824146l0 112.0" fill-rule="evenodd"/><path stroke="#000000" stroke-width="1.0" stroke-linejoin="round" stroke-linecap="butt" d="m47.548557 43.824146l0 112.0" fill-rule="evenodd"/><path fill="#000000" fill-opacity="0.0" d="m47.548557 43.824146l8.0 0" fill-rule="evenodd"/><path stroke="#000000" stroke-width="1.0" stroke-linejoin="round" stroke-linecap="butt" d="m47.548557 43.824146l8.0 0" fill-rule="evenodd"/><path fill="#000000" fill-opacity="0.0" d="m47.548557 59.824146l8.0 0" fill-rule="evenodd"/><path stroke="#000000" stroke-width="1.0" stroke-linejoin="round" stroke-linecap="butt" d="m47.548557 59.824146l8.0 0" fill-rule="evenodd"/><path fill="#000000" fill-opacity="0.0" d="m47.548557 75.82415l8.0 0" fill-rule="evenodd"/><path stroke="#000000" stroke-width="1.0" stroke-linejoin="round" stroke-linecap="butt" d="m47.548557 75.82415l8.0 0" fill-rule="evenodd"/><path fill="#000000" fill-opacity="0.0" d="m47.548557 91.82415l8.0 0" fill-rule="evenodd"/><path stroke="#000000" stroke-width="1.0" stroke-linejoin="round" stroke-linecap="butt" d="m47.548557 91.82415l8.0 0" fill-rule="evenodd"/><path fill="#000000" fill-opacity="0.0" d="m47.548557 107.82415l8.0 0" fill-rule="evenodd"/><path stroke="#000000" stroke-width="1.0" stroke-linejoin="round" stroke-linecap="butt" d="m47.548557 107.82415l8.0 0" fill-rule="evenodd"/><path fill="#000000" fill-opacity="0.0" d="m47.548557 123.82415l8.0 0" fill-rule="evenodd"/><path stroke="#000000" stroke-width="1.0" stroke-linejoin="round" stroke-linecap="butt" d="m47.548557 123.82415l8.0 0" fill-rule="evenodd"/><path fill="#000000" fill-opacity="0.0" d="m47.548557 139.82414l8.0 0" fill-rule="evenodd"/><path stroke="#000000" stroke-width="1.0" stroke-linejoin="round" stroke-linecap="butt" d="m47.548557 139.82414l8.0 0" fill-rule="evenodd"/><path fill="#000000" fill-opacity="0.0" d="m47.548557 155.82414l8.0 0" fill-rule="evenodd"/><path stroke="#000000" stroke-width="1.0" stroke-linejoin="round" stroke-linecap="butt" d="m47.548557 155.82414l8.0 0" fill-rule="evenodd"/><path fill="#000000" fill-opacity="0.0" d="m63.548557 163.82414l0 8.0" fill-rule="evenodd"/><path stroke="#000000" stroke-width="1.0" stroke-linejoin="round" stroke-linecap="butt" d="m63.548557 163.82414l0 8.0" fill-rule="evenodd"/><path fill="#000000" fill-opacity="0.0" d="m63.548557 171.82414l96.0 0" fill-rule="evenodd"/><path stroke="#000000" stroke-width="1.0" stroke-linejoin="round" stroke-linecap="butt" d="m63.548557 171.82414l92.57292 0" fill-rule="evenodd"/><path fill="#000000" stroke="#000000" stroke-width="1.0" stroke-linecap="butt" d="m156.12148 171.82414l-1.124588 1.124588l3.0897675 -1.124588l-3.0897675 -1.1245728z" fill-rule="evenodd"/><path fill="#cccccc" d="m466.73227 121.65354l0 -8.0l-255.68503 0l0 -16.0l255.68503 0l0 -8.0l16.0 16.0z" fill-rule="evenodd"/><path fill="#efefef" d="m284.01706 104.700645l0 0c0 -9.4409485 7.653412 -17.094345 17.09436 -17.094345l75.00815 0c4.5336914 0 8.881714 1.8010025 12.087524 5.0068207c3.2058105 3.2058105 5.0068054 7.5538254 5.0068054 12.087524l0 1.9057922l0 0c0 9.4409485 -7.6533813 17.094353 -17.09433 17.094353l-75.00815 0c-9.4409485 0 -17.09436 -7.653404 -17.09436 -17.094353z" fill-rule="evenodd"/><path stroke="#cccccc" stroke-width="1.0" stroke-linejoin="round" stroke-linecap="butt" d="m284.01706 104.700645l0 0c0 -9.4409485 7.653412 -17.094345 17.09436 -17.094345l75.00815 0c4.5336914 0 8.881714 1.8010025 12.087524 5.0068207c3.2058105 3.2058105 5.0068054 7.5538254 5.0068054 12.087524l0 1.9057922l0 0c0 9.4409485 -7.6533813 17.094353 -17.09433 17.094353l-75.00815 0c-9.4409485 0 -17.09436 -7.653404 -17.09436 -17.094353z" fill-rule="evenodd"/><path fill="#000000" d="m305.11078 101.10479l0 -1.890625l1.640625 0l0 1.890625l-1.640625 0zm0 11.46875l0 -9.671875l1.640625 0l0 9.671875l-1.640625 0zm4.1448364 0l0 -9.671875l1.46875 0l0 1.375q1.0625 -1.59375 3.078125 -1.59375q0.875 0 1.609375 0.3125q0.734375 0.3125 1.09375 0.828125q0.375 0.5 0.515625 1.203125q0.09375 0.453125 0.09375 1.59375l0 5.953125l-1.640625 0l0 -5.890625q0 -1.0 -0.203125 -1.484375q-0.1875 -0.5 -0.671875 -0.796875q-0.484375 -0.296875 -1.140625 -0.296875q-1.046875 0 -1.8125 0.671875q-0.75 0.65625 -0.75 2.515625l0 5.28125l-1.640625 0zm28.496521 -7.984375q1.203125 1.328125 2.078125 2.015625q0.890625 0.6875 1.671875 1.015625l0 0.421875q-0.890625 0.4375 -1.75 1.125q-0.84375 0.671875 -2.015625 1.96875l-0.703125 0q0.859375 -1.828125 1.796875 -2.8125l-14.53125 0l0 -0.921875l14.53125 0q-0.6875 -0.875 -0.96875 -1.296875q-0.265625 -0.4375 -0.8125 -1.515625l0.703125 0zm10.292664 3.140625q0 -2.6875 1.484375 -3.96875q1.25 -1.078125 3.046875 -1.078125q2.0 0 3.265625 1.3125q1.265625 1.296875 1.265625 3.609375q0 1.859375 -0.5625 2.9375q-0.5625 1.0625 -1.640625 1.65625q-1.0625 0.59375 -2.328125 0.59375q-2.03125 0 -3.28125 -1.296875q-1.25 -1.3125 -1.25 -3.765625zm1.6875 0q0 1.859375 0.796875 2.796875q0.8125 0.921875 2.046875 0.921875q1.21875 0 2.03125 -0.921875q0.8125 -0.9375 0.8125 -2.84375q0 -1.796875 -0.8125 -2.71875q-0.8125 -0.921875 -2.03125 -0.921875q-1.234375 0 -2.046875 0.921875q-0.796875 0.90625 -0.796875 2.765625zm15.625732 4.84375l0 -1.421875q-1.125 1.640625 -3.0625 1.640625q-0.859375 0 -1.609375 -0.328125q-0.734375 -0.328125 -1.09375 -0.828125q-0.359375 -0.5 -0.5 -1.21875q-0.109375 -0.46875 -0.109375 -1.53125l0 -5.984375l1.640625 0l0 5.359375q0 1.28125 0.109375 1.734375q0.15625 0.640625 0.65625 1.015625q0.5 0.375 1.234375 0.375q0.734375 0 1.375 -0.375q0.65625 -0.390625 0.921875 -1.03125q0.265625 -0.65625 0.265625 -1.890625l0 -5.1875l1.640625 0l0 9.671875l-1.46875 0zm7.625702 -1.46875l0.234375 1.453125q-0.6875 0.140625 -1.234375 0.140625q-0.890625 0 -1.390625 -0.28125q-0.484375 -0.28125 -0.6875 -0.734375q-0.203125 -0.46875 -0.203125 -1.9375l0 -5.578125l-1.203125 0l0 -1.265625l1.203125 0l0 -2.390625l1.625 -0.984375l0 3.375l1.65625 0l0 1.265625l-1.65625 0l0 5.671875q0 0.6875 0.078125 0.890625q0.09375 0.203125 0.28125 0.328125q0.203125 0.109375 0.578125 0.109375q0.265625 0 0.71875 -0.0625z" fill-rule="nonzero"/><path fill="#efefef" d="m284.01706 464.18097l0 0c0 -9.4409485 7.653412 -17.09436 17.09436 -17.09436l75.00815 0c4.5336914 0 8.881714 1.8010254 12.087524 5.006836c3.2058105 3.2058105 5.0068054 7.5538025 5.0068054 12.087524l0 1.9057922l0 0c0 9.4409485 -7.6533813 17.09433 -17.09433 17.09433l-75.00815 0c-9.4409485 0 -17.09436 -7.6533813 -17.09436 -17.09433z" fill-rule="evenodd"/><path stroke="#cccccc" stroke-width="1.0" stroke-linejoin="round" stroke-linecap="butt" d="m284.01706 464.18097l0 0c0 -9.4409485 7.653412 -17.09436 17.09436 -17.09436l75.00815 0c4.5336914 0 8.881714 1.8010254 12.087524 5.006836c3.2058105 3.2058105 5.0068054 7.5538025 5.0068054 12.087524l0 1.9057922l0 0c0 9.4409485 -7.6533813 17.09433 -17.09433 17.09433l-75.00815 0c-9.4409485 0 -17.09436 -7.6533813 -17.09436 -17.09433z" fill-rule="evenodd"/><path fill="#000000" d="m307.74347 472.05386l0 -1.21875q-0.90625 1.4375 -2.703125 1.4375q-1.15625 0 -2.125 -0.640625q-0.96875 -0.640625 -1.5 -1.78125q-0.53125 -1.140625 -0.53125 -2.625q0 -1.453125 0.484375 -2.625q0.484375 -1.1875 1.4375 -1.8125q0.96875 -0.625 2.171875 -0.625q0.875 0 1.546875 0.375q0.6875 0.359375 1.109375 0.953125l0 -4.796875l1.640625 0l0 13.359375l-1.53125 0zm-5.171875 -4.828125q0 1.859375 0.78125 2.78125q0.78125 0.921875 1.84375 0.921875q1.078125 0 1.828125 -0.875q0.75 -0.890625 0.75 -2.6875q0 -1.984375 -0.765625 -2.90625q-0.765625 -0.9375 -1.890625 -0.9375q-1.078125 0 -1.8125 0.890625q-0.734375 0.890625 -0.734375 2.8125z" fill-rule="nonzero"/><path fill="#000000" d="m311.4473 471.41324l0 -1.265625l1.09375 0l0 1.265625l-1.09375 0zm0 7.640625l0 -6.453125l1.09375 0l0 6.453125l-1.09375 0zm2.7475586 0l0 -6.453125l0.984375 0l0 0.921875q0.71875 -1.0625 2.0625 -1.0625q0.578125 0 1.0625 0.21875q0.5 0.203125 0.734375 0.546875q0.25 0.328125 0.34375 0.796875q0.0625 0.3125 0.0625 1.0625l0 3.96875l-1.09375 0l0 -3.921875q0 -0.671875 -0.125 -1.0q-0.125 -0.328125 -0.453125 -0.515625q-0.328125 -0.203125 -0.765625 -0.203125q-0.703125 0 -1.21875 0.4375q-0.5 0.4375 -0.5 1.6875l0 3.515625l-1.09375 0z" fill-rule="nonzero"/><path fill="#000000" d="m339.65457 464.0695q1.203125 1.328125 2.078125 2.015625q0.890625 0.6875 1.671875 1.015625l0 0.421875q-0.890625 0.4375 -1.75 1.125q-0.84375 0.671875 -2.015625 1.96875l-0.703125 0q0.859375 -1.828125 1.796875 -2.8125l-14.53125 0l0 -0.921875l14.53125 0q-0.6875 -0.875 -0.96875 -1.296875q-0.265625 -0.4375 -0.8125 -1.515625l0.703125 0zm17.167664 7.984375l0 -1.21875q-0.90625 1.4375 -2.703125 1.4375q-1.15625 0 -2.125 -0.640625q-0.96875 -0.640625 -1.5 -1.78125q-0.53125 -1.140625 -0.53125 -2.625q0 -1.453125 0.484375 -2.625q0.484375 -1.1875 1.4375 -1.8125q0.96875 -0.625 2.171875 -0.625q0.875 0 1.546875 0.375q0.6875 0.359375 1.109375 0.953125l0 -4.796875l1.640625 0l0 13.359375l-1.53125 0zm-5.171875 -4.828125q0 1.859375 0.78125 2.78125q0.78125 0.921875 1.84375 0.921875q1.078125 0 1.828125 -0.875q0.75 -0.890625 0.75 -2.6875q0 -1.984375 -0.765625 -2.90625q-0.765625 -0.9375 -1.890625 -0.9375q-1.078125 0 -1.8125 0.890625q-0.734375 0.890625 -0.734375 2.8125z" fill-rule="nonzero"/><path fill="#000000" d="m360.10422 475.8351q0 -1.796875 1.0 -2.65625q0.828125 -0.71875 2.03125 -0.71875q1.328125 0 2.171875 0.875q0.84375 0.859375 0.84375 2.40625q0 1.234375 -0.375 1.953125q-0.375 0.71875 -1.09375 1.109375q-0.703125 0.390625 -1.546875 0.390625q-1.359375 0 -2.203125 -0.859375q-0.828125 -0.875 -0.828125 -2.5zm1.125 0q0 1.234375 0.546875 1.859375q0.546875 0.609375 1.359375 0.609375q0.8125 0 1.34375 -0.609375q0.546875 -0.625 0.546875 -1.90625q0 -1.1875 -0.546875 -1.796875q-0.53125 -0.625 -1.34375 -0.625q-0.8125 0 -1.359375 0.609375q-0.546875 0.609375 -0.546875 1.859375zm10.432648 3.21875l0 -0.953125q-0.75 1.09375 -2.046875 1.09375q-0.578125 0 -1.078125 -0.21875q-0.484375 -0.21875 -0.734375 -0.546875q-0.234375 -0.328125 -0.328125 -0.8125q-0.0625 -0.3125 -0.0625 -1.015625l0 -4.0l1.09375 0l0 3.578125q0 0.859375 0.0625 1.15625q0.109375 0.4375 0.4375 0.6875q0.34375 0.234375 0.828125 0.234375q0.484375 0 0.921875 -0.25q0.4375 -0.25 0.609375 -0.6875q0.1875 -0.4375 0.1875 -1.265625l0 -3.453125l1.09375 0l0 6.453125l-0.984375 0zm5.073303 -0.984375l0.15625 0.96875q-0.453125 0.09375 -0.828125 0.09375q-0.59375 0 -0.921875 -0.1875q-0.328125 -0.1875 -0.46875 -0.484375q-0.125 -0.3125 -0.125 -1.296875l0 -3.703125l-0.796875 0l0 -0.859375l0.796875 0l0 -1.59375l1.09375 -0.65625l0 2.25l1.09375 0l0 0.859375l-1.09375 0l0 3.765625q0 0.46875 0.046875 0.609375q0.0625 0.125 0.1875 0.203125q0.140625 0.078125 0.390625 0.078125q0.171875 0 0.46875 -0.046875z" fill-rule="nonzero"/><path fill="#000000" fill-opacity="0.0" d="m596.3543 342.87247c-13.376587 0 -24.220459 -10.843872 -24.220459 -24.220459l0 -17.24411c0 -13.376587 -10.843872 -24.220459 -24.220459 -24.220459l0 0c13.376587 0 24.220459 -10.843872 24.220459 -24.220474l0 -17.244095l0 0c0 -13.376587 10.843872 -24.220474 24.220459 -24.220474z" fill-rule="evenodd"/><path fill="#000000" fill-opacity="0.0" d="m596.3543 342.87247c-13.376587 0 -24.220459 -10.843872 -24.220459 -24.220459l0 -17.24411c0 -13.376587 -10.843872 -24.220459 -24.220459 -24.220459l0 0c13.376587 0 24.220459 -10.843872 24.220459 -24.220474l0 -17.244095l0 0c0 -13.376587 10.843872 -24.220474 24.220459 -24.220474" fill-rule="evenodd"/><path stroke="#000000" stroke-width="1.0" stroke-linejoin="round" stroke-linecap="butt" d="m596.3543 342.87247c-13.376587 0 -24.220459 -10.843872 -24.220459 -24.220459l0 -17.24411c0 -13.376587 -10.843872 -24.220459 -24.220459 -24.220459l0 0c13.376587 0 24.220459 -10.843872 24.220459 -24.220474l0 -17.244095l0 0c0 -13.376587 10.843872 -24.220474 24.220459 -24.220474" fill-rule="evenodd"/><path fill="#f3f3f3" d="m500.27298 354.2966l175.99997 0l0 184.59842l-175.99997 0z" fill-rule="evenodd"/><path stroke="#cccccc" stroke-width="1.0" stroke-linejoin="round" stroke-linecap="butt" d="m500.27298 354.2966l175.99997 0l0 184.59842l-175.99997 0z" fill-rule="evenodd"/><path fill="#000000" fill-opacity="0.0" d="m534.32544 382.5958l0 112.0" fill-rule="evenodd"/><path stroke="#000000" stroke-width="1.0" stroke-linejoin="round" stroke-linecap="butt" d="m534.32544 382.5958l0 112.0" fill-rule="evenodd"/><path fill="#000000" fill-opacity="0.0" d="m534.32544 382.5958l8.0 0" fill-rule="evenodd"/><path stroke="#000000" stroke-width="1.0" stroke-linejoin="round" stroke-linecap="butt" d="m534.32544 382.5958l8.0 0" fill-rule="evenodd"/><path fill="#000000" fill-opacity="0.0" d="m534.32544 398.5958l8.0 0" fill-rule="evenodd"/><path stroke="#000000" stroke-width="1.0" stroke-linejoin="round" stroke-linecap="butt" d="m534.32544 398.5958l8.0 0" fill-rule="evenodd"/><path fill="#000000" fill-opacity="0.0" d="m534.32544 414.5958l8.0 0" fill-rule="evenodd"/><path stroke="#000000" stroke-width="1.0" stroke-linejoin="round" stroke-linecap="butt" d="m534.32544 414.5958l8.0 0" fill-rule="evenodd"/><path fill="#000000" fill-opacity="0.0" d="m534.32544 430.5958l8.0 0" fill-rule="evenodd"/><path stroke="#000000" stroke-width="1.0" stroke-linejoin="round" stroke-linecap="butt" d="m534.32544 430.5958l8.0 0" fill-rule="evenodd"/><path fill="#000000" fill-opacity="0.0" d="m534.32544 446.5958l8.0 0" fill-rule="evenodd"/><path stroke="#000000" stroke-width="1.0" stroke-linejoin="round" stroke-linecap="butt" d="m534.32544 446.5958l8.0 0" fill-rule="evenodd"/><path fill="#000000" fill-opacity="0.0" d="m534.32544 462.5958l8.0 0" fill-rule="evenodd"/><path stroke="#000000" stroke-width="1.0" stroke-linejoin="round" stroke-linecap="butt" d="m534.32544 462.5958l8.0 0" fill-rule="evenodd"/><path fill="#000000" fill-opacity="0.0" d="m534.32544 478.5958l8.0 0" fill-rule="evenodd"/><path stroke="#000000" stroke-width="1.0" stroke-linejoin="round" stroke-linecap="butt" d="m534.32544 478.5958l8.0 0" fill-rule="evenodd"/><path fill="#000000" fill-opacity="0.0" d="m534.32544 494.5958l8.0 0" fill-rule="evenodd"/><path stroke="#000000" stroke-width="1.0" stroke-linejoin="round" stroke-linecap="butt" d="m534.32544 494.5958l8.0 0" fill-rule="evenodd"/><path fill="#000000" fill-opacity="0.0" d="m550.32544 510.5958l80.0 0" fill-rule="evenodd"/><path stroke="#000000" stroke-width="1.0" stroke-linejoin="round" stroke-linecap="butt" d="m550.32544 510.5958l80.0 0" fill-rule="evenodd"/><path fill="#000000" fill-opacity="0.0" d="m550.32544 502.5958l0 8.0" fill-rule="evenodd"/><path stroke="#000000" stroke-width="1.0" stroke-linejoin="round" stroke-linecap="butt" d="m550.32544 502.5958l0 8.0" fill-rule="evenodd"/><path fill="#000000" fill-opacity="0.0" d="m630.32544 502.5958l0 8.0" fill-rule="evenodd"/><path stroke="#000000" stroke-width="1.0" stroke-linejoin="round" stroke-linecap="butt" d="m630.32544 502.5958l0 8.0" fill-rule="evenodd"/><path fill="#000000" fill-opacity="0.0" d="m558.105 412.40683l48.44098 0l0 68.37796l-48.44098 0z" fill-rule="evenodd"/><path fill="#f3f3f3" d="m23.548557 352.1706l176.0 0l0 184.59845l-176.0 0z" fill-rule="evenodd"/><path stroke="#cccccc" stroke-width="1.0" stroke-linejoin="round" stroke-linecap="butt" d="m23.548557 352.1706l176.0 0l0 184.59845l-176.0 0z" fill-rule="evenodd"/><path fill="#000000" fill-opacity="0.0" d="m55.548557 380.46982l0 112.0" fill-rule="evenodd"/><path stroke="#000000" stroke-width="1.0" stroke-linejoin="round" stroke-linecap="butt" d="m55.548557 380.46982l0 112.0" fill-rule="evenodd"/><path fill="#000000" fill-opacity="0.0" d="m55.548557 380.46982l8.0 0" fill-rule="evenodd"/><path stroke="#000000" stroke-width="1.0" stroke-linejoin="round" stroke-linecap="butt" d="m55.548557 380.46982l8.0 0" fill-rule="evenodd"/><path fill="#000000" fill-opacity="0.0" d="m55.548557 396.46982l8.0 0" fill-rule="evenodd"/><path stroke="#000000" stroke-width="1.0" stroke-linejoin="round" stroke-linecap="butt" d="m55.548557 396.46982l8.0 0" fill-rule="evenodd"/><path fill="#000000" fill-opacity="0.0" d="m55.548557 412.46982l8.0 0" fill-rule="evenodd"/><path stroke="#000000" stroke-width="1.0" stroke-linejoin="round" stroke-linecap="butt" d="m55.548557 412.46982l8.0 0" fill-rule="evenodd"/><path fill="#000000" fill-opacity="0.0" d="m55.548557 428.46982l8.0 0" fill-rule="evenodd"/><path stroke="#000000" stroke-width="1.0" stroke-linejoin="round" stroke-linecap="butt" d="m55.548557 428.46982l8.0 0" fill-rule="evenodd"/><path fill="#000000" fill-opacity="0.0" d="m55.548557 444.46982l8.0 0" fill-rule="evenodd"/><path stroke="#000000" stroke-width="1.0" stroke-linejoin="round" stroke-linecap="butt" d="m55.548557 444.46982l8.0 0" fill-rule="evenodd"/><path fill="#000000" fill-opacity="0.0" d="m55.548557 460.46982l8.0 0" fill-rule="evenodd"/><path stroke="#000000" stroke-width="1.0" stroke-linejoin="round" stroke-linecap="butt" d="m55.548557 460.46982l8.0 0" fill-rule="evenodd"/><path fill="#000000" fill-opacity="0.0" d="m55.548557 476.46982l8.0 0" fill-rule="evenodd"/><path stroke="#000000" stroke-width="1.0" stroke-linejoin="round" stroke-linecap="butt" d="m55.548557 476.46982l8.0 0" fill-rule="evenodd"/><path fill="#000000" fill-opacity="0.0" d="m55.548557 492.46982l8.0 0" fill-rule="evenodd"/><path stroke="#000000" stroke-width="1.0" stroke-linejoin="round" stroke-linecap="butt" d="m55.548557 492.46982l8.0 0" fill-rule="evenodd"/><path fill="#000000" fill-opacity="0.0" d="m71.54855 500.46982l0 8.0" fill-rule="evenodd"/><path stroke="#000000" stroke-width="1.0" stroke-linejoin="round" stroke-linecap="butt" d="m71.54855 500.46982l0 8.0" fill-rule="evenodd"/><path fill="#000000" fill-opacity="0.0" d="m71.54855 508.46982l96.0 0" fill-rule="evenodd"/><path stroke="#000000" stroke-width="1.0" stroke-linejoin="round" stroke-linecap="butt" d="m71.54855 508.46982l92.57292 0" fill-rule="evenodd"/><path fill="#000000" stroke="#000000" stroke-width="1.0" stroke-linecap="butt" d="m164.12148 508.46982l-1.124588 1.1245728l3.0897675 -1.1245728l-3.0897675 -1.1245728z" fill-rule="evenodd"/><path fill="#000000" fill-opacity="0.0" d="m87.32809 410.28085l48.44094 0l0 68.37793l-48.44094 0z" fill-rule="evenodd"/><path fill="#000000" fill-opacity="0.0" d="m113.215225 341.29114c13.376595 0 24.220474 -10.843872 24.220474 -24.220459l0 -17.24411c0 -13.376587 10.843872 -24.220459 24.220474 -24.220459l0 0c-13.376602 0 -24.220474 -10.843872 -24.220474 -24.220474l0 -17.244095l0 0c0 -13.376602 -10.84388 -24.220474 -24.220474 -24.220474z" fill-rule="evenodd"/><path fill="#000000" fill-opacity="0.0" d="m113.215225 341.29114c13.376595 0 24.220474 -10.843872 24.220474 -24.220459l0 -17.24411c0 -13.376587 10.843872 -24.220459 24.220474 -24.220459l0 0c-13.376602 0 -24.220474 -10.843872 -24.220474 -24.220474l0 -17.244095l0 0c0 -13.376602 -10.84388 -24.220474 -24.220474 -24.220474" fill-rule="evenodd"/><path stroke="#000000" stroke-width="1.0" stroke-linejoin="round" stroke-linecap="butt" d="m113.215225 341.29114c13.376595 0 24.220474 -10.843872 24.220474 -24.220459l0 -17.24411c0 -13.376587 10.843872 -24.220459 24.220474 -24.220459l0 0c-13.376602 0 -24.220474 -10.843872 -24.220474 -24.220474l0 -17.244095l0 0c0 -13.376602 -10.84388 -24.220474 -24.220474 -24.220474" fill-rule="evenodd"/><path fill="#efefef" d="m178.30183 281.85828l55.51181 -111.023575l222.80315 0l55.51181 111.023575l-55.51181 111.02356l-222.80315 0z" fill-rule="evenodd"/><path stroke="#cccccc" stroke-width="3.0" stroke-linejoin="round" stroke-linecap="butt" d="m178.30183 281.85828l55.51181 -111.023575l222.80315 0l55.51181 111.023575l-55.51181 111.02356l-222.80315 0z" fill-rule="evenodd"/><path fill="#000000" d="m246.5121 293.57828l0 -20.203125l-7.546875 0l0 -2.703125l18.156235 0l0 2.703125l-7.5781097 0l0 20.203125l-3.03125 0zm12.14061 0l0 -16.59375l2.53125 0l0 2.515625q0.96875 -1.765625 1.78125 -2.328125q0.828125 -0.5625 1.8125 -0.5625q1.421875 0 2.890625 0.90625l-0.96875 2.609375q-1.03125 -0.609375 -2.0625 -0.609375q-0.921875 0 -1.65625 0.5625q-0.734375 0.546875 -1.046875 1.53125q-0.46875 1.5 -0.46875 3.28125l0 8.6875l-2.8125 0zm21.515625 -2.046875q-1.5625 1.328125 -3.015625 1.875q-1.4375 0.546875 -3.09375 0.546875q-2.734375 0 -4.203125 -1.328125q-1.46875 -1.34375 -1.46875 -3.421875q0 -1.21875 0.546875 -2.21875q0.5625 -1.015625 1.453125 -1.625q0.90625 -0.609375 2.03125 -0.921875q0.828125 -0.21875 2.5 -0.421875q3.40625 -0.40625 5.015625 -0.96875q0.015625 -0.578125 0.015625 -0.734375q0 -1.71875 -0.796875 -2.421875q-1.078125 -0.953125 -3.203125 -0.953125q-1.984375 0 -2.9375 0.703125q-0.9375 0.6875 -1.390625 2.453125l-2.75 -0.375q0.375 -1.765625 1.234375 -2.84375q0.859375 -1.09375 2.484375 -1.671875q1.625 -0.59375 3.765625 -0.59375q2.125 0 3.453125 0.5q1.328125 0.5 1.953125 1.265625q0.625 0.75 0.875 1.90625q0.140625 0.71875 0.140625 2.59375l0 3.75q0 3.921875 0.171875 4.96875q0.1875 1.03125 0.71875 1.984375l-2.9375 0q-0.4375 -0.875 -0.5625 -2.046875zm-0.234375 -6.28125q-1.53125 0.625 -4.59375 1.0625q-1.734375 0.25 -2.453125 0.5625q-0.71875 0.3125 -1.109375 0.921875q-0.390625 0.59375 -0.390625 1.328125q0 1.125 0.84375 1.875q0.859375 0.75 2.5 0.75q1.625 0 2.890625 -0.703125q1.265625 -0.71875 1.859375 -1.953125q0.453125 -0.953125 0.453125 -2.8125l0 -1.03125zm7.203125 8.328125l0 -16.59375l2.53125 0l0 2.359375q1.828125 -2.734375 5.28125 -2.734375q1.5 0 2.75 0.546875q1.265625 0.53125 1.890625 1.40625q0.625 0.875 0.875 2.078125q0.15625 0.78125 0.15625 2.734375l0 10.203125l-2.8125 0l0 -10.09375q0 -1.71875 -0.328125 -2.5625q-0.328125 -0.859375 -1.171875 -1.359375q-0.828125 -0.515625 -1.953125 -0.515625q-1.796875 0 -3.109375 1.140625q-1.296875 1.140625 -1.296875 4.328125l0 9.0625l-2.8125 0zm16.671875 -4.953125l2.78125 -0.4375q0.234375 1.671875 1.296875 2.5625q1.078125 0.890625 3.0 0.890625q1.9375 0 2.875 -0.78125q0.9375 -0.796875 0.9375 -1.859375q0 -0.953125 -0.828125 -1.5q-0.578125 -0.375 -2.875 -0.953125q-3.09375 -0.78125 -4.296875 -1.34375q-1.1875 -0.578125 -1.8125 -1.578125q-0.609375 -1.015625 -0.609375 -2.234375q0 -1.109375 0.5 -2.046875q0.515625 -0.953125 1.390625 -1.578125q0.65625 -0.484375 1.78125 -0.8125q1.140625 -0.34375 2.4375 -0.34375q1.953125 0 3.421875 0.5625q1.484375 0.5625 2.1875 1.53125q0.703125 0.953125 0.96875 2.5625l-2.75 0.375q-0.1875 -1.28125 -1.09375 -2.0q-0.890625 -0.71875 -2.53125 -0.71875q-1.9375 0 -2.765625 0.640625q-0.828125 0.640625 -0.828125 1.5q0 0.546875 0.34375 0.984375q0.34375 0.453125 1.078125 0.75q0.421875 0.15625 2.484375 0.71875q2.984375 0.796875 4.15625 1.3125q1.1875 0.5 1.859375 1.46875q0.671875 0.96875 0.671875 2.40625q0 1.40625 -0.828125 2.65625q-0.8125 1.234375 -2.359375 1.921875q-1.546875 0.671875 -3.5 0.671875q-3.234375 0 -4.9375 -1.34375q-1.6875 -1.34375 -2.15625 -3.984375zm17.796875 4.953125l0 -14.40625l-2.484375 0l0 -2.1875l2.484375 0l0 -1.765625q0 -1.671875 0.296875 -2.484375q0.40625 -1.09375 1.421875 -1.765625q1.03125 -0.6875 2.875 -0.6875q1.1875 0 2.625 0.28125l-0.421875 2.453125q-0.875 -0.15625 -1.65625 -0.15625q-1.28125 0 -1.8125 0.546875q-0.53125 0.546875 -0.53125 2.046875l0 1.53125l3.234375 0l0 2.1875l-3.234375 0l0 14.40625l-2.796875 0zm7.171875 -8.296875q0 -4.609375 2.5625 -6.828125q2.140625 -1.84375 5.21875 -1.84375q3.421875 0 5.59375 2.25q2.171875 2.234375 2.171875 6.1875q0 3.203125 -0.96875 5.046875q-0.953125 1.828125 -2.796875 2.84375q-1.828125 1.015625 -4.0 1.015625q-3.484375 0 -5.640625 -2.234375q-2.140625 -2.234375 -2.140625 -6.4375zm2.890625 0q0 3.1875 1.390625 4.78125q1.390625 1.578125 3.5 1.578125q2.09375 0 3.484375 -1.59375q1.390625 -1.59375 1.390625 -4.859375q0 -3.078125 -1.40625 -4.65625q-1.390625 -1.59375 -3.46875 -1.59375q-2.109375 0 -3.5 1.578125q-1.390625 1.578125 -1.390625 4.765625zm15.921875 8.296875l0 -16.59375l2.53125 0l0 2.515625q0.96875 -1.765625 1.78125 -2.328125q0.828125 -0.5625 1.8125 -0.5625q1.421875 0 2.890625 0.90625l-0.96875 2.609375q-1.03125 -0.609375 -2.0625 -0.609375q-0.921875 0 -1.65625 0.5625q-0.734375 0.546875 -1.046875 1.53125q-0.46875 1.5 -0.46875 3.28125l0 8.6875l-2.8125 0zm10.6875 0l0 -16.59375l2.515625 0l0 2.328125q0.78125 -1.21875 2.078125 -1.953125q1.296875 -0.75 2.953125 -0.75q1.84375 0 3.015625 0.765625q1.1875 0.765625 1.671875 2.140625q1.96875 -2.90625 5.125 -2.90625q2.46875 0 3.796875 1.375q1.328125 1.359375 1.328125 4.203125l0 11.390625l-2.796875 0l0 -10.453125q0 -1.6875 -0.28125 -2.421875q-0.265625 -0.75 -0.984375 -1.203125q-0.71875 -0.453125 -1.6875 -0.453125q-1.75 0 -2.90625 1.171875q-1.15625 1.15625 -1.15625 3.71875l0 9.640625l-2.8125 0l0 -10.78125q0 -1.875 -0.6875 -2.8125q-0.6875 -0.9375 -2.25 -0.9375q-1.1875 0 -2.203125 0.625q-1.0 0.625 -1.453125 1.828125q-0.453125 1.203125 -0.453125 3.46875l0 8.609375l-2.8125 0zm37.484375 -2.046875q-1.5625 1.328125 -3.015625 1.875q-1.4375 0.546875 -3.09375 0.546875q-2.734375 0 -4.203125 -1.328125q-1.46875 -1.34375 -1.46875 -3.421875q0 -1.21875 0.546875 -2.21875q0.5625 -1.015625 1.453125 -1.625q0.90625 -0.609375 2.03125 -0.921875q0.828125 -0.21875 2.5 -0.421875q3.40625 -0.40625 5.015625 -0.96875q0.015625 -0.578125 0.015625 -0.734375q0 -1.71875 -0.796875 -2.421875q-1.078125 -0.953125 -3.203125 -0.953125q-1.984375 0 -2.9375 0.703125q-0.9375 0.6875 -1.390625 2.453125l-2.75 -0.375q0.375 -1.765625 1.234375 -2.84375q0.859375 -1.09375 2.484375 -1.671875q1.625 -0.59375 3.765625 -0.59375q2.125 0 3.453125 0.5q1.328125 0.5 1.953125 1.265625q0.625 0.75 0.875 1.90625q0.140625 0.71875 0.140625 2.59375l0 3.75q0 3.921875 0.171875 4.96875q0.1875 1.03125 0.71875 1.984375l-2.9375 0q-0.4375 -0.875 -0.5625 -2.046875zm-0.234375 -6.28125q-1.53125 0.625 -4.59375 1.0625q-1.734375 0.25 -2.453125 0.5625q-0.71875 0.3125 -1.109375 0.921875q-0.390625 0.59375 -0.390625 1.328125q0 1.125 0.84375 1.875q0.859375 0.75 2.5 0.75q1.625 0 2.890625 -0.703125q1.265625 -0.71875 1.859375 -1.953125q0.453125 -0.953125 0.453125 -2.8125l0 -1.03125zm13.34375 5.8125l0.40625 2.484375q-1.1875 0.25 -2.125 0.25q-1.53125 0 -2.375 -0.484375q-0.84375 -0.484375 -1.1875 -1.265625q-0.34375 -0.796875 -0.34375 -3.328125l0 -9.546875l-2.0625 0l0 -2.1875l2.0625 0l0 -4.109375l2.796875 -1.6875l0 5.796875l2.828125 0l0 2.1875l-2.828125 0l0 9.703125q0 1.203125 0.140625 1.546875q0.15625 0.34375 0.484375 0.546875q0.34375 0.203125 0.96875 0.203125q0.46875 0 1.234375 -0.109375zm2.765625 -17.15625l0 -3.234375l2.8125 0l0 3.234375l-2.8125 0zm0 19.671875l0 -16.59375l2.8125 0l0 16.59375l-2.8125 0zm6.046875 -8.296875q0 -4.609375 2.5625 -6.828125q2.140625 -1.84375 5.21875 -1.84375q3.421875 0 5.59375 2.25q2.171875 2.234375 2.171875 6.1875q0 3.203125 -0.96875 5.046875q-0.953125 1.828125 -2.796875 2.84375q-1.828125 1.015625 -4.0 1.015625q-3.484375 0 -5.640625 -2.234375q-2.140625 -2.234375 -2.140625 -6.4375zm2.890625 0q0 3.1875 1.390625 4.78125q1.390625 1.578125 3.5 1.578125q2.09375 0 3.484375 -1.59375q1.390625 -1.59375 1.390625 -4.859375q0 -3.078125 -1.40625 -4.65625q-1.390625 -1.59375 -3.46875 -1.59375q-2.109375 0 -3.5 1.578125q-1.390625 1.578125 -1.390625 4.765625zm15.953125 8.296875l0 -16.59375l2.53125 0l0 2.359375q1.828125 -2.734375 5.28125 -2.734375q1.5 0 2.75 0.546875q1.265625 0.53125 1.890625 1.40625q0.625 0.875 0.875 2.078125q0.15625 0.78125 0.15625 2.734375l0 10.203125l-2.8125 0l0 -10.09375q0 -1.71875 -0.328125 -2.5625q-0.328125 -0.859375 -1.171875 -1.359375q-0.828125 -0.515625 -1.953125 -0.515625q-1.796875 0 -3.109375 1.140625q-1.296875 1.140625 -1.296875 4.328125l0 9.0625l-2.8125 0z" fill-rule="nonzero"/><path fill="#000000" fill-opacity="0.0" d="m290.6168 177.92126l96.0 0l0 32.0l-96.0 0z" fill-rule="evenodd"/><path fill="#000000" d="m306.78934 200.64127l1.765625 -8.40625l-1.484375 0l0.265625 -1.265625l1.484375 0l0.28125 -1.375q0.21875 -1.03125 0.4375 -1.484375q0.234375 -0.453125 0.75 -0.75q0.53125 -0.296875 1.4375 -0.296875q0.625 0 1.828125 0.265625l-0.296875 1.4375q-0.84375 -0.21875 -1.40625 -0.21875q-0.484375 0 -0.734375 0.25q-0.25 0.234375 -0.4375 1.125l-0.21875 1.046875l1.84375 0l-0.265625 1.265625l-1.84375 0l-1.75 8.40625l-1.65625 0zm11.558289 -1.75q-1.734375 1.96875 -3.5625 1.96875q-1.109375 0 -1.796875 -0.640625q-0.6875 -0.640625 -0.6875 -1.578125q0 -0.609375 0.296875 -2.09375l1.171875 -5.578125l1.65625 0l-1.296875 6.1875q-0.171875 0.765625 -0.171875 1.203125q0 0.546875 0.328125 0.859375q0.34375 0.296875 0.984375 0.296875q0.703125 0 1.359375 -0.328125q0.65625 -0.34375 1.125 -0.921875q0.484375 -0.578125 0.796875 -1.359375q0.1875 -0.5 0.453125 -1.765625l0.875 -4.171875l1.65625 0l-2.03125 9.671875l-1.515625 0l0.359375 -1.75zm3.7819824 1.75l2.015625 -9.671875l1.5 0l-0.359375 1.6875q0.96875 -1.0 1.8125 -1.453125q0.859375 -0.453125 1.734375 -0.453125q1.1875 0 1.84375 0.640625q0.671875 0.625 0.671875 1.703125q0 0.53125 -0.234375 1.6875l-1.234375 5.859375l-1.640625 0l1.28125 -6.125q0.1875 -0.890625 0.1875 -1.328125q0 -0.484375 -0.328125 -0.78125q-0.328125 -0.296875 -0.953125 -0.296875q-1.28125 0 -2.265625 0.90625q-0.984375 0.90625 -1.453125 3.125l-0.9375 4.5l-1.640625 0zm17.047577 -3.53125l1.65625 0.171875q-0.625 1.8125 -1.765625 2.703125q-1.140625 0.875 -2.609375 0.875q-1.578125 0 -2.5625 -1.015625q-0.96875 -1.03125 -0.96875 -2.859375q0 -1.578125 0.625 -3.109375q0.640625 -1.53125 1.796875 -2.328125q1.171875 -0.796875 2.6875 -0.796875q1.546875 0 2.453125 0.875q0.921875 0.875 0.921875 2.328125l-1.625 0.109375q-0.015625 -0.921875 -0.546875 -1.4375q-0.515625 -0.515625 -1.359375 -0.515625q-1.0 0 -1.734375 0.625q-0.71875 0.625 -1.140625 1.90625q-0.40625 1.28125 -0.40625 2.46875q0 1.234375 0.546875 1.859375q0.546875 0.609375 1.34375 0.609375q0.796875 0 1.53125 -0.609375q0.734375 -0.609375 1.15625 -1.859375zm6.5 2.1875l-0.265625 1.359375q-0.59375 0.140625 -1.15625 0.140625q-0.984375 0 -1.5625 -0.46875q-0.4375 -0.375 -0.4375 -1.0q0 -0.3125 0.234375 -1.46875l1.171875 -5.625l-1.296875 0l0.265625 -1.265625l1.296875 0l0.5 -2.375l1.890625 -1.140625l-0.734375 3.515625l1.625 0l-0.28125 1.265625l-1.609375 0l-1.125 5.359375q-0.203125 1.015625 -0.203125 1.21875q0 0.28125 0.15625 0.4375q0.171875 0.15625 0.5625 0.15625q0.546875 0 0.96875 -0.109375zm3.667694 -10.140625l0.40625 -1.875l1.625 0l-0.390625 1.875l-1.640625 0zm-2.390625 11.484375l2.015625 -9.671875l1.65625 0l-2.03125 9.671875l-1.640625 0zm4.488556 -3.671875q0 -2.828125 1.671875 -4.6875q1.375 -1.53125 3.609375 -1.53125q1.75 0 2.8125 1.09375q1.078125 1.09375 1.078125 2.953125q0 1.65625 -0.671875 3.09375q-0.671875 1.4375 -1.921875 2.203125q-1.25 0.765625 -2.625 0.765625q-1.125 0 -2.046875 -0.484375q-0.921875 -0.484375 -1.421875 -1.359375q-0.484375 -0.890625 -0.484375 -2.046875zm1.65625 -0.15625q0 1.359375 0.65625 2.0625q0.65625 0.703125 1.65625 0.703125q0.53125 0 1.046875 -0.203125q0.53125 -0.21875 0.96875 -0.65625q0.453125 -0.4375 0.765625 -1.0q0.3125 -0.5625 0.5 -1.203125q0.28125 -0.90625 0.28125 -1.734375q0 -1.3125 -0.65625 -2.03125q-0.65625 -0.734375 -1.65625 -0.734375q-0.78125 0 -1.421875 0.375q-0.625 0.375 -1.140625 1.09375q-0.515625 0.703125 -0.765625 1.640625q-0.234375 0.9375 -0.234375 1.6875zm8.438232 3.828125l2.015625 -9.671875l1.5 0l-0.359375 1.6875q0.96875 -1.0 1.8125 -1.453125q0.859375 -0.453125 1.734375 -0.453125q1.1875 0 1.84375 0.640625q0.671875 0.625 0.671875 1.703125q0 0.53125 -0.234375 1.6875l-1.234375 5.859375l-1.640625 0l1.28125 -6.125q0.1875 -0.890625 0.1875 -1.328125q0 -0.484375 -0.328125 -0.78125q-0.328125 -0.296875 -0.953125 -0.296875q-1.28125 0 -2.265625 0.90625q-0.984375 0.90625 -1.453125 3.125l-0.9375 4.5l-1.640625 0z" fill-rule="nonzero"/><path fill="#000000" fill-opacity="0.0" d="m277.56168 360.8819l135.3071 0l0 32.0l-135.3071 0z" fill-rule="evenodd"/><path fill="#000000" d="m294.15433 380.2894l1.640625 -0.09375q0 0.703125 0.21875 1.21875q0.21875 0.5 0.796875 0.8125q0.59375 0.3125 1.375 0.3125q1.09375 0 1.640625 -0.4375q0.546875 -0.4375 0.546875 -1.015625q0 -0.4375 -0.328125 -0.8125q-0.328125 -0.390625 -1.640625 -0.953125q-1.3125 -0.5625 -1.671875 -0.78125q-0.609375 -0.375 -0.921875 -0.875q-0.3125 -0.515625 -0.3125 -1.171875q0 -1.140625 0.90625 -1.953125q0.921875 -0.828125 2.5625 -0.828125q1.828125 0 2.765625 0.84375q0.953125 0.84375 1.0 2.21875l-1.609375 0.109375q-0.046875 -0.875 -0.625 -1.390625q-0.578125 -0.515625 -1.65625 -0.515625q-0.84375 0 -1.328125 0.40625q-0.46875 0.390625 -0.46875 0.84375q0 0.453125 0.40625 0.796875q0.28125 0.234375 1.421875 0.734375q1.890625 0.8125 2.375 1.28125q0.78125 0.765625 0.78125 1.84375q0 0.71875 -0.4375 1.421875q-0.4375 0.6875 -1.34375 1.109375q-0.90625 0.40625 -2.140625 0.40625q-1.671875 0 -2.84375 -0.828125q-1.1875 -0.828125 -1.109375 -2.703125zm13.015625 1.96875l-0.265625 1.359375q-0.59375 0.140625 -1.15625 0.140625q-0.984375 0 -1.5625 -0.46875q-0.4375 -0.375 -0.4375 -1.0q0 -0.3125 0.234375 -1.46875l1.171875 -5.625l-1.296875 0l0.265625 -1.265625l1.296875 0l0.5 -2.375l1.890625 -1.140625l-0.734375 3.515625l1.625 0l-0.28125 1.265625l-1.609375 0l-1.125 5.359375q-0.203125 1.015625 -0.203125 1.21875q0 0.28125 0.15625 0.4375q0.171875 0.15625 0.5625 0.15625q0.546875 0 0.96875 -0.109375zm7.8551636 0.140625q-0.859375 0.734375 -1.65625 1.078125q-0.78125 0.34375 -1.6875 0.34375q-1.34375 0 -2.171875 -0.78125q-0.8125 -0.796875 -0.8125 -2.03125q0 -0.796875 0.375 -1.421875q0.375 -0.625 0.984375 -1.0q0.609375 -0.390625 1.484375 -0.546875q0.5625 -0.109375 2.109375 -0.171875q1.5625 -0.0625 2.234375 -0.328125q0.1875 -0.671875 0.1875 -1.125q0 -0.578125 -0.421875 -0.90625q-0.5625 -0.453125 -1.671875 -0.453125q-1.03125 0 -1.703125 0.46875q-0.65625 0.453125 -0.953125 1.296875l-1.671875 -0.140625q0.515625 -1.4375 1.609375 -2.203125q1.109375 -0.765625 2.796875 -0.765625q1.796875 0 2.84375 0.859375q0.796875 0.625 0.796875 1.65625q0 0.765625 -0.21875 1.796875l-0.53125 2.40625q-0.265625 1.140625 -0.265625 1.859375q0 0.453125 0.203125 1.3125l-1.671875 0q-0.125 -0.46875 -0.1875 -1.203125zm0.609375 -3.703125q-0.34375 0.140625 -0.75 0.21875q-0.390625 0.0625 -1.3125 0.15625q-1.4375 0.125 -2.03125 0.328125q-0.59375 0.1875 -0.90625 0.625q-0.296875 0.421875 -0.296875 0.9375q0 0.6875 0.484375 1.140625q0.484375 0.4375 1.359375 0.4375q0.828125 0 1.578125 -0.421875q0.75 -0.4375 1.1875 -1.203125q0.4375 -0.78125 0.6875 -2.21875zm3.2507324 4.90625l2.78125 -13.359375l1.65625 0l-1.0 4.78125q0.78125 -0.71875 1.421875 -1.015625q0.640625 -0.296875 1.328125 -0.296875q1.359375 0 2.265625 1.015625q0.90625 1.0 0.90625 2.9375q0 1.28125 -0.375 2.359375q-0.359375 1.0625 -0.890625 1.78125q-0.53125 0.71875 -1.109375 1.15625q-0.578125 0.4375 -1.1875 0.640625q-0.59375 0.21875 -1.140625 0.21875q-0.96875 0 -1.703125 -0.5q-0.71875 -0.515625 -1.125 -1.546875l-0.390625 1.828125l-1.4375 0zm2.4375 -3.96875l-0.015625 0.3125q0 1.234375 0.59375 1.890625q0.59375 0.640625 1.484375 0.640625q0.859375 0 1.578125 -0.609375q0.734375 -0.609375 1.1875 -1.890625q0.46875 -1.28125 0.46875 -2.375q0 -1.21875 -0.59375 -1.890625q-0.578125 -0.671875 -1.4375 -0.671875q-0.90625 0 -1.65625 0.6875q-0.734375 0.6875 -1.234375 2.125q-0.375 1.0625 -0.375 1.78125zm10.266327 -7.515625l0.40625 -1.875l1.625 0l-0.390625 1.875l-1.640625 0zm-2.390625 11.484375l2.015625 -9.671875l1.65625 0l-2.03125 9.671875l-1.640625 0zm4.0667114 0l2.796875 -13.359375l1.640625 0l-2.78125 13.359375l-1.65625 0zm6.613556 -11.484375l0.40625 -1.875l1.625 0l-0.390625 1.875l-1.640625 0zm-2.390625 11.484375l2.015625 -9.671875l1.65625 0l-2.03125 9.671875l-1.640625 0zm8.051086 -1.34375l-0.265625 1.359375q-0.59375 0.140625 -1.15625 0.140625q-0.984375 0 -1.5625 -0.46875q-0.4375 -0.375 -0.4375 -1.0q0 -0.3125 0.234375 -1.46875l1.171875 -5.625l-1.296875 0l0.265625 -1.265625l1.296875 0l0.5 -2.375l1.890625 -1.140625l-0.734375 3.515625l1.625 0l-0.28125 1.265625l-1.609375 0l-1.125 5.359375q-0.203125 1.015625 -0.203125 1.21875q0 0.28125 0.15625 0.4375q0.171875 0.15625 0.5625 0.15625q0.546875 0 0.96875 -0.109375zm0.7145386 5.078125l0.09375 -1.546875q0.515625 0.140625 1.0 0.140625q0.5 0 0.8125 -0.21875q0.40625 -0.3125 0.875 -1.140625l0.53125 -0.9375l-1.625 -9.703125l1.625 0l0.734375 4.890625q0.21875 1.453125 0.375 2.890625l4.328125 -7.78125l1.71875 0l-6.171875 10.953125q-0.890625 1.609375 -1.59375 2.125q-0.6875 0.515625 -1.578125 0.515625q-0.578125 0 -1.125 -0.1875zm15.120819 -3.734375l2.015625 -9.671875l1.65625 0l-0.34375 1.59375q0.921875 -1.03125 1.640625 -1.421875q0.734375 -0.390625 1.578125 -0.390625q0.90625 0 1.515625 0.484375q0.609375 0.46875 0.796875 1.328125q0.734375 -0.90625 1.546875 -1.359375q0.8125 -0.453125 1.71875 -0.453125q1.21875 0 1.8125 0.578125q0.609375 0.5625 0.609375 1.609375q0 0.4375 -0.203125 1.46875l-1.3125 6.234375l-1.640625 0l1.328125 -6.390625q0.171875 -0.78125 0.171875 -1.125q0 -0.46875 -0.296875 -0.734375q-0.296875 -0.28125 -0.84375 -0.28125q-0.75 0 -1.515625 0.453125q-0.765625 0.4375 -1.1875 1.171875q-0.421875 0.71875 -0.734375 2.21875l-0.984375 4.6875l-1.65625 0l1.375 -6.53125q0.140625 -0.671875 0.140625 -0.953125q0 -0.46875 -0.296875 -0.75q-0.296875 -0.296875 -0.765625 -0.296875q-0.703125 0 -1.484375 0.453125q-0.765625 0.4375 -1.25 1.234375q-0.46875 0.796875 -0.78125 2.265625l-0.953125 4.578125l-1.65625 0zm22.072052 -1.203125q-0.859375 0.734375 -1.65625 1.078125q-0.78125 0.34375 -1.6875 0.34375q-1.34375 0 -2.171875 -0.78125q-0.8125 -0.796875 -0.8125 -2.03125q0 -0.796875 0.375 -1.421875q0.375 -0.625 0.984375 -1.0q0.609375 -0.390625 1.484375 -0.546875q0.5625 -0.109375 2.109375 -0.171875q1.5625 -0.0625 2.234375 -0.328125q0.1875 -0.671875 0.1875 -1.125q0 -0.578125 -0.421875 -0.90625q-0.5625 -0.453125 -1.671875 -0.453125q-1.03125 0 -1.703125 0.46875q-0.65625 0.453125 -0.953125 1.296875l-1.671875 -0.140625q0.515625 -1.4375 1.609375 -2.203125q1.109375 -0.765625 2.796875 -0.765625q1.796875 0 2.84375 0.859375q0.796875 0.625 0.796875 1.65625q0 0.765625 -0.21875 1.796875l-0.53125 2.40625q-0.265625 1.140625 -0.265625 1.859375q0 0.453125 0.203125 1.3125l-1.671875 0q-0.125 -0.46875 -0.1875 -1.203125zm0.609375 -3.703125q-0.34375 0.140625 -0.75 0.21875q-0.390625 0.0625 -1.3125 0.15625q-1.4375 0.125 -2.03125 0.328125q-0.59375 0.1875 -0.90625 0.625q-0.296875 0.421875 -0.296875 0.9375q0 0.6875 0.484375 1.140625q0.484375 0.4375 1.359375 0.4375q0.828125 0 1.578125 -0.421875q0.75 -0.4375 1.1875 -1.203125q0.4375 -0.78125 0.6875 -2.21875zm2.438202 8.609375l2.796875 -13.375l1.515625 0l-0.28125 1.34375q0.84375 -0.875 1.515625 -1.21875q0.671875 -0.34375 1.421875 -0.34375q1.375 0 2.28125 1.015625q0.921875 1.0 0.921875 2.875q0 1.515625 -0.5 2.765625q-0.5 1.234375 -1.234375 2.0q-0.71875 0.75 -1.46875 1.109375q-0.75 0.34375 -1.53125 0.34375q-1.75 0 -2.703125 -1.765625l-1.09375 5.25l-1.640625 0zm3.25 -7.65625q0 1.078125 0.15625 1.5q0.234375 0.59375 0.75 0.96875q0.515625 0.359375 1.203125 0.359375q1.421875 0 2.296875 -1.59375q0.875 -1.609375 0.875 -3.28125q0 -1.21875 -0.59375 -1.890625q-0.578125 -0.671875 -1.453125 -0.671875q-0.625 0 -1.171875 0.34375q-0.53125 0.328125 -1.0 0.984375q-0.453125 0.65625 -0.765625 1.609375q-0.296875 0.953125 -0.296875 1.671875z" fill-rule="nonzero"/><path fill="#000000" fill-opacity="0.0" d="m219.45407 216.18636l76.09448 0l0 32.0l-76.09448 0z" fill-rule="evenodd"/><path fill="#000000" d="m240.2268 216.22197l0.40625 -1.875l1.625 0l-0.390625 1.875l-1.640625 0zm-2.390625 11.484375l2.015625 -9.671875l1.65625 0l-2.03125 9.671875l-1.640625 0zm4.207321 0l2.015625 -9.671875l1.5 0l-0.359375 1.6875q0.96875 -1.0 1.8125 -1.453125q0.859375 -0.453125 1.734375 -0.453125q1.1875 0 1.84375 0.640625q0.671875 0.625 0.671875 1.703125q0 0.53125 -0.234375 1.6875l-1.234375 5.859375l-1.640625 0l1.28125 -6.125q0.1875 -0.890625 0.1875 -1.328125q0 -0.484375 -0.328125 -0.78125q-0.328125 -0.296875 -0.953125 -0.296875q-1.28125 0 -2.265625 0.90625q-0.984375 0.90625 -1.453125 3.125l-0.9375 4.5l-1.640625 0zm9.563217 3.703125l2.796875 -13.375l1.515625 0l-0.28125 1.34375q0.84375 -0.875 1.515625 -1.21875q0.671875 -0.34375 1.421875 -0.34375q1.375 0 2.28125 1.015625q0.921875 1.0 0.921875 2.875q0 1.515625 -0.5 2.765625q-0.5 1.234375 -1.234375 2.0q-0.71875 0.75 -1.46875 1.109375q-0.75 0.34375 -1.53125 0.34375q-1.75 0 -2.703125 -1.765625l-1.09375 5.25l-1.640625 0zm3.25 -7.65625q0 1.078125 0.15625 1.5q0.234375 0.59375 0.75 0.96875q0.515625 0.359375 1.203125 0.359375q1.421875 0 2.296875 -1.59375q0.875 -1.609375 0.875 -3.28125q0 -1.21875 -0.59375 -1.890625q-0.578125 -0.671875 -1.453125 -0.671875q-0.625 0 -1.171875 0.34375q-0.53125 0.328125 -1.0 0.984375q-0.453125 0.65625 -0.765625 1.609375q-0.296875 0.953125 -0.296875 1.671875zm14.531952 2.203125q-1.734375 1.96875 -3.5625 1.96875q-1.109375 0 -1.796875 -0.640625q-0.6875 -0.640625 -0.6875 -1.578125q0 -0.609375 0.296875 -2.09375l1.171875 -5.578125l1.65625 0l-1.296875 6.1875q-0.171875 0.765625 -0.171875 1.203125q0 0.546875 0.328125 0.859375q0.34375 0.296875 0.984375 0.296875q0.703125 0 1.359375 -0.328125q0.65625 -0.34375 1.125 -0.921875q0.484375 -0.578125 0.796875 -1.359375q0.1875 -0.5 0.453125 -1.765625l0.875 -4.171875l1.65625 0l-2.03125 9.671875l-1.515625 0l0.359375 -1.75zm7.6257324 0.40625l-0.265625 1.359375q-0.59375 0.140625 -1.15625 0.140625q-0.984375 0 -1.5625 -0.46875q-0.4375 -0.375 -0.4375 -1.0q0 -0.3125 0.234375 -1.46875l1.171875 -5.625l-1.296875 0l0.265625 -1.265625l1.296875 0l0.5 -2.375l1.890625 -1.140625l-0.734375 3.515625l1.625 0l-0.28125 1.265625l-1.609375 0l-1.125 5.359375q-0.203125 1.015625 -0.203125 1.21875q0 0.28125 0.15625 0.4375q0.171875 0.15625 0.5625 0.15625q0.546875 0 0.96875 -0.109375z" fill-rule="nonzero"/><path fill="#000000" d="m232.71797 250.10635l2.015625 -9.671875l1.65625 0l-0.34375 1.59375q0.921875 -1.03125 1.640625 -1.421875q0.734375 -0.390625 1.578125 -0.390625q0.90625 0 1.515625 0.484375q0.609375 0.46875 0.796875 1.328125q0.734375 -0.90625 1.546875 -1.359375q0.8125 -0.453125 1.71875 -0.453125q1.21875 0 1.8125 0.578125q0.609375 0.5625 0.609375 1.609375q0 0.4375 -0.203125 1.46875l-1.3125 6.234375l-1.640625 0l1.328125 -6.390625q0.171875 -0.78125 0.171875 -1.125q0 -0.46875 -0.296875 -0.734375q-0.296875 -0.28125 -0.84375 -0.28125q-0.75 0 -1.515625 0.453125q-0.765625 0.4375 -1.1875 1.171875q-0.421875 0.71875 -0.734375 2.21875l-0.984375 4.6875l-1.65625 0l1.375 -6.53125q0.140625 -0.671875 0.140625 -0.953125q0 -0.46875 -0.296875 -0.75q-0.296875 -0.296875 -0.765625 -0.296875q-0.703125 0 -1.484375 0.453125q-0.765625 0.4375 -1.25 1.234375q-0.46875 0.796875 -0.78125 2.265625l-0.953125 4.578125l-1.65625 0zm22.650177 -3.28125l1.6093597 0.15625q-0.34375 1.1875 -1.5937347 2.265625q-1.234375 1.078125 -2.96875 1.078125q-1.0625 0 -1.96875 -0.5q-0.890625 -0.5 -1.359375 -1.4375q-0.46875 -0.953125 -0.46875 -2.15625q0 -1.59375 0.734375 -3.078125q0.734375 -1.484375 1.890625 -2.203125q1.171875 -0.734375 2.53125 -0.734375q1.734375 0 2.7656097 1.078125q1.03125 1.0625 1.03125 2.921875q0 0.71875 -0.125 1.46875l-7.1249847 0q-0.046875 0.28125 -0.046875 0.5q0 1.359375 0.625 2.078125q0.625 0.71875 1.53125 0.71875q0.84375 0 1.65625 -0.546875q0.828125 -0.5625 1.28125 -1.609375zm-4.78125 -2.40625l5.4218597 0q0.015625 -0.25 0.015625 -0.359375q0 -1.234375 -0.62498474 -1.890625q-0.625 -0.671875 -1.59375 -0.671875q-1.0625 0 -1.9375 0.734375q-0.859375 0.71875 -1.28125 2.1875zm11.906967 4.34375l-0.265625 1.359375q-0.59375 0.140625 -1.15625 0.140625q-0.984375 0 -1.5625 -0.46875q-0.4375 -0.375 -0.4375 -1.0q0 -0.3125 0.234375 -1.46875l1.171875 -5.625l-1.296875 0l0.265625 -1.265625l1.296875 0l0.5 -2.375l1.890625 -1.140625l-0.734375 3.515625l1.625 0l-0.28125 1.265625l-1.609375 0l-1.125 5.359375q-0.203125 1.015625 -0.203125 1.21875q0 0.28125 0.15625 0.4375q0.171875 0.15625 0.5625 0.15625q0.546875 0 0.96875 -0.109375zm1.3395386 1.34375l2.015625 -9.671875l1.453125 0l-0.40625 1.96875q0.75 -1.109375 1.453125 -1.640625q0.71875 -0.546875 1.46875 -0.546875q0.5 0 1.21875 0.359375l-0.671875 1.53125q-0.4375 -0.3125 -0.9375 -0.3125q-0.875 0 -1.78125 0.96875q-0.90625 0.953125 -1.4375 3.46875l-0.8125 3.875l-1.5625 0zm8.540802 -11.484375l0.40625 -1.875l1.625 0l-0.390625 1.875l-1.640625 0zm-2.390625 11.484375l2.015625 -9.671875l1.65625 0l-2.03125 9.671875l-1.640625 0zm10.879211 -3.53125l1.65625 0.171875q-0.625 1.8125 -1.765625 2.703125q-1.140625 0.875 -2.609375 0.875q-1.578125 0 -2.5625 -1.015625q-0.96875 -1.03125 -0.96875 -2.859375q0 -1.578125 0.625 -3.109375q0.640625 -1.53125 1.796875 -2.328125q1.171875 -0.796875 2.6875 -0.796875q1.546875 0 2.453125 0.875q0.921875 0.875 0.921875 2.328125l-1.625 0.109375q-0.015625 -0.921875 -0.546875 -1.4375q-0.515625 -0.515625 -1.359375 -0.515625q-1.0 0 -1.734375 0.625q-0.71875 0.625 -1.140625 1.90625q-0.40625 1.28125 -0.40625 2.46875q0 1.234375 0.546875 1.859375q0.546875 0.609375 1.34375 0.609375q0.796875 0 1.53125 -0.609375q0.734375 -0.609375 1.15625 -1.859375z" fill-rule="nonzero"/><path fill="#000000" fill-opacity="0.0" d="m402.90814 216.18636l76.09448 0l0 32.0l-76.09448 0z" fill-rule="evenodd"/><path fill="#000000" d="m415.92688 224.03447q0 -2.828125 1.671875 -4.6875q1.375 -1.53125 3.609375 -1.53125q1.75 0 2.8125 1.09375q1.078125 1.09375 1.078125 2.953125q0 1.65625 -0.671875 3.09375q-0.671875 1.4375 -1.921875 2.203125q-1.25 0.765625 -2.625 0.765625q-1.125 0 -2.046875 -0.484375q-0.921875 -0.484375 -1.421875 -1.359375q-0.484375 -0.890625 -0.484375 -2.046875zm1.65625 -0.15625q0 1.359375 0.65625 2.0625q0.65625 0.703125 1.65625 0.703125q0.53125 0 1.046875 -0.203125q0.53125 -0.21875 0.96875 -0.65625q0.453125 -0.4375 0.765625 -1.0q0.3125 -0.5625 0.5 -1.203125q0.28125 -0.90625 0.28125 -1.734375q0 -1.3125 -0.65625 -2.03125q-0.65625 -0.734375 -1.65625 -0.734375q-0.78125 0 -1.421875 0.375q-0.625 0.375 -1.140625 1.09375q-0.515625 0.703125 -0.765625 1.640625q-0.234375 0.9375 -0.234375 1.6875zm15.031982 2.078125q-1.734375 1.96875 -3.5625 1.96875q-1.109375 0 -1.796875 -0.640625q-0.6875 -0.640625 -0.6875 -1.578125q0 -0.609375 0.296875 -2.09375l1.171875 -5.578125l1.65625 0l-1.296875 6.1875q-0.171875 0.765625 -0.171875 1.203125q0 0.546875 0.328125 0.859375q0.34375 0.296875 0.984375 0.296875q0.703125 0 1.359375 -0.328125q0.65625 -0.34375 1.125 -0.921875q0.484375 -0.578125 0.796875 -1.359375q0.1875 -0.5 0.453125 -1.765625l0.875 -4.171875l1.65625 0l-2.03125 9.671875l-1.515625 0l0.359375 -1.75zm7.625702 0.40625l-0.265625 1.359375q-0.59375 0.140625 -1.15625 0.140625q-0.984375 0 -1.5625 -0.46875q-0.4375 -0.375 -0.4375 -1.0q0 -0.3125 0.234375 -1.46875l1.171875 -5.625l-1.296875 0l0.265625 -1.265625l1.296875 0l0.5 -2.375l1.890625 -1.140625l-0.734375 3.515625l1.625 0l-0.28125 1.265625l-1.609375 0l-1.125 5.359375q-0.203125 1.015625 -0.203125 1.21875q0 0.28125 0.15625 0.4375q0.171875 0.15625 0.5625 0.15625q0.546875 0 0.96875 -0.109375zm0.5270691 5.046875l2.796875 -13.375l1.515625 0l-0.28125 1.34375q0.84375 -0.875 1.515625 -1.21875q0.671875 -0.34375 1.421875 -0.34375q1.375 0 2.28125 1.015625q0.921875 1.0 0.921875 2.875q0 1.515625 -0.5 2.765625q-0.5 1.234375 -1.234375 2.0q-0.71875 0.75 -1.46875 1.109375q-0.75 0.34375 -1.53125 0.34375q-1.75 0 -2.703125 -1.765625l-1.09375 5.25l-1.640625 0zm3.25 -7.65625q0 1.078125 0.15625 1.5q0.234375 0.59375 0.75 0.96875q0.515625 0.359375 1.203125 0.359375q1.421875 0 2.296875 -1.59375q0.875 -1.609375 0.875 -3.28125q0 -1.21875 -0.59375 -1.890625q-0.578125 -0.671875 -1.453125 -0.671875q-0.625 0 -1.171875 0.34375q-0.53125 0.328125 -1.0 0.984375q-0.453125 0.65625 -0.765625 1.609375q-0.296875 0.953125 -0.296875 1.671875zm14.531952 2.203125q-1.734375 1.96875 -3.5625 1.96875q-1.109375 0 -1.796875 -0.640625q-0.6875 -0.640625 -0.6875 -1.578125q0 -0.609375 0.296875 -2.09375l1.171875 -5.578125l1.65625 0l-1.296875 6.1875q-0.171875 0.765625 -0.171875 1.203125q0 0.546875 0.328125 0.859375q0.34375 0.296875 0.984375 0.296875q0.703125 0 1.359375 -0.328125q0.65625 -0.34375 1.125 -0.921875q0.484375 -0.578125 0.796875 -1.359375q0.1875 -0.5 0.453125 -1.765625l0.875 -4.171875l1.65625 0l-2.03125 9.671875l-1.515625 0l0.359375 -1.75zm7.6257324 0.40625l-0.265625 1.359375q-0.59375 0.140625 -1.15625 0.140625q-0.984375 0 -1.5625 -0.46875q-0.4375 -0.375 -0.4375 -1.0q0 -0.3125 0.234375 -1.46875l1.171875 -5.625l-1.296875 0l0.265625 -1.265625l1.296875 0l0.5 -2.375l1.890625 -1.140625l-0.734375 3.515625l1.625 0l-0.28125 1.265625l-1.609375 0l-1.125 5.359375q-0.203125 1.015625 -0.203125 1.21875q0 0.28125 0.15625 0.4375q0.171875 0.15625 0.5625 0.15625q0.546875 0 0.96875 -0.109375z" fill-rule="nonzero"/><path fill="#000000" d="m416.17203 250.10635l2.015625 -9.671875l1.65625 0l-0.34375 1.59375q0.921875 -1.03125 1.640625 -1.421875q0.734375 -0.390625 1.578125 -0.390625q0.90625 0 1.515625 0.484375q0.609375 0.46875 0.796875 1.328125q0.734375 -0.90625 1.546875 -1.359375q0.8125 -0.453125 1.71875 -0.453125q1.21875 0 1.8125 0.578125q0.609375 0.5625 0.609375 1.609375q0 0.4375 -0.203125 1.46875l-1.3125 6.234375l-1.640625 0l1.328125 -6.390625q0.171875 -0.78125 0.171875 -1.125q0 -0.46875 -0.296875 -0.734375q-0.296875 -0.28125 -0.84375 -0.28125q-0.75 0 -1.515625 0.453125q-0.765625 0.4375 -1.1875 1.171875q-0.421875 0.71875 -0.734375 2.21875l-0.984375 4.6875l-1.65625 0l1.375 -6.53125q0.140625 -0.671875 0.140625 -0.953125q0 -0.46875 -0.296875 -0.75q-0.296875 -0.296875 -0.765625 -0.296875q-0.703125 0 -1.484375 0.453125q-0.765625 0.4375 -1.25 1.234375q-0.46875 0.796875 -0.78125 2.265625l-0.953125 4.578125l-1.65625 0zm22.650177 -3.28125l1.609375 0.15625q-0.34375 1.1875 -1.59375 2.265625q-1.234375 1.078125 -2.96875 1.078125q-1.0625 0 -1.96875 -0.5q-0.890625 -0.5 -1.359375 -1.4375q-0.46875 -0.953125 -0.46875 -2.15625q0 -1.59375 0.734375 -3.078125q0.734375 -1.484375 1.890625 -2.203125q1.171875 -0.734375 2.53125 -0.734375q1.734375 0 2.765625 1.078125q1.03125 1.0625 1.03125 2.921875q0 0.71875 -0.125 1.46875l-7.125 0q-0.046875 0.28125 -0.046875 0.5q0 1.359375 0.625 2.078125q0.625 0.71875 1.53125 0.71875q0.84375 0 1.65625 -0.546875q0.828125 -0.5625 1.28125 -1.609375zm-4.78125 -2.40625l5.421875 0q0.015625 -0.25 0.015625 -0.359375q0 -1.234375 -0.625 -1.890625q-0.625 -0.671875 -1.59375 -0.671875q-1.0625 0 -1.9375 0.734375q-0.859375 0.71875 -1.28125 2.1875zm11.906982 4.34375l-0.265625 1.359375q-0.59375 0.140625 -1.15625 0.140625q-0.984375 0 -1.5625 -0.46875q-0.4375 -0.375 -0.4375 -1.0q0 -0.3125 0.234375 -1.46875l1.171875 -5.625l-1.296875 0l0.265625 -1.265625l1.296875 0l0.5 -2.375l1.890625 -1.140625l-0.734375 3.515625l1.625 0l-0.28125 1.265625l-1.609375 0l-1.125 5.359375q-0.203125 1.015625 -0.203125 1.21875q0 0.28125 0.15625 0.4375q0.171875 0.15625 0.5625 0.15625q0.546875 0 0.96875 -0.109375zm1.3395386 1.34375l2.015625 -9.671875l1.453125 0l-0.40625 1.96875q0.75 -1.109375 1.453125 -1.640625q0.71875 -0.546875 1.46875 -0.546875q0.5 0 1.21875 0.359375l-0.671875 1.53125q-0.4375 -0.3125 -0.9375 -0.3125q-0.875 0 -1.78125 0.96875q-0.90625 0.953125 -1.4375 3.46875l-0.8125 3.875l-1.5625 0zm8.540802 -11.484375l0.40625 -1.875l1.625 0l-0.390625 1.875l-1.640625 0zm-2.390625 11.484375l2.015625 -9.671875l1.65625 0l-2.03125 9.671875l-1.640625 0zm10.879211 -3.53125l1.65625 0.171875q-0.625 1.8125 -1.765625 2.703125q-1.140625 0.875 -2.609375 0.875q-1.578125 0 -2.5625 -1.015625q-0.96875 -1.03125 -0.96875 -2.859375q0 -1.578125 0.625 -3.109375q0.640625 -1.53125 1.796875 -2.328125q1.171875 -0.796875 2.6875 -0.796875q1.546875 0 2.453125 0.875q0.921875 0.875 0.921875 2.328125l-1.625 0.109375q-0.015625 -0.921875 -0.546875 -1.4375q-0.515625 -0.515625 -1.359375 -0.515625q-1.0 0 -1.734375 0.625q-0.71875 0.625 -1.140625 1.90625q-0.40625 1.28125 -0.40625 2.46875q0 1.234375 0.546875 1.859375q0.546875 0.609375 1.34375 0.609375q0.796875 0 1.53125 -0.609375q0.734375 -0.609375 1.15625 -1.859375z" fill-rule="nonzero"/><path fill="#000000" fill-opacity="0.0" d="m215.24934 320.29922l84.50395 0l0 32.0l-84.50395 0z" fill-rule="evenodd"/><path fill="#000000" d="m240.22679 320.33484l0.40625 -1.875l1.625 0l-0.390625 1.875l-1.640625 0zm-2.390625 11.484375l2.015625 -9.671875l1.65625 0l-2.03125 9.671875l-1.640625 0zm4.207321 0l2.015625 -9.671875l1.5 0l-0.359375 1.6875q0.96875 -1.0 1.8125 -1.453125q0.859375 -0.453125 1.734375 -0.453125q1.1875 0 1.84375 0.640625q0.671875 0.625 0.671875 1.703125q0 0.53125 -0.234375 1.6875l-1.234375 5.859375l-1.640625 0l1.28125 -6.125q0.1875 -0.890625 0.1875 -1.328125q0 -0.484375 -0.328125 -0.78125q-0.328125 -0.296875 -0.953125 -0.296875q-1.28125 0 -2.265625 0.90625q-0.984375 0.90625 -1.453125 3.125l-0.9375 4.5l-1.640625 0zm9.563217 3.703125l2.796875 -13.375l1.515625 0l-0.28125 1.34375q0.84376526 -0.875 1.5156403 -1.21875q0.671875 -0.34375 1.421875 -0.34375q1.375 0 2.28125 1.015625q0.921875 1.0 0.921875 2.875q0 1.515625 -0.5 2.765625q-0.5 1.234375 -1.234375 2.0q-0.71875 0.75 -1.46875 1.109375q-0.75 0.34375 -1.53125 0.34375q-1.7500153 0 -2.7031403 -1.765625l-1.09375 5.25l-1.640625 0zm3.25 -7.65625q0 1.078125 0.15625 1.5q0.234375 0.59375 0.75 0.96875q0.51564026 0.359375 1.2031403 0.359375q1.421875 0 2.296875 -1.59375q0.875 -1.609375 0.875 -3.28125q0 -1.21875 -0.59375 -1.890625q-0.578125 -0.671875 -1.453125 -0.671875q-0.625 0 -1.171875 0.34375q-0.53125 0.328125 -1.0000153 0.984375q-0.453125 0.65625 -0.765625 1.609375q-0.296875 0.953125 -0.296875 1.671875zm14.531967 2.203125q-1.734375 1.96875 -3.5625 1.96875q-1.109375 0 -1.796875 -0.640625q-0.6875 -0.640625 -0.6875 -1.578125q0 -0.609375 0.296875 -2.09375l1.171875 -5.578125l1.65625 0l-1.296875 6.1875q-0.171875 0.765625 -0.171875 1.203125q0 0.546875 0.328125 0.859375q0.34375 0.296875 0.984375 0.296875q0.703125 0 1.359375 -0.328125q0.65625 -0.34375 1.125 -0.921875q0.484375 -0.578125 0.796875 -1.359375q0.1875 -0.5 0.453125 -1.765625l0.875 -4.171875l1.65625 0l-2.03125 9.671875l-1.515625 0l0.359375 -1.75zm7.6257324 0.40625l-0.265625 1.359375q-0.59375 0.140625 -1.15625 0.140625q-0.984375 0 -1.5625 -0.46875q-0.4375 -0.375 -0.4375 -1.0q0 -0.3125 0.234375 -1.46875l1.171875 -5.625l-1.296875 0l0.265625 -1.265625l1.296875 0l0.5 -2.375l1.890625 -1.140625l-0.734375 3.515625l1.625 0l-0.28125 1.265625l-1.609375 0l-1.125 5.359375q-0.203125 1.015625 -0.203125 1.21875q0 0.28125 0.15625 0.4375q0.171875 0.15625 0.5625 0.15625q0.546875 0 0.96875 -0.109375z" fill-rule="nonzero"/><path fill="#000000" d="m234.04768 352.81296q-1.40625 1.625 -2.953125 1.625q-1.375 0 -2.296875 -1.015625q-0.90625 -1.015625 -0.90625 -2.953125q0 -1.765625 0.71875 -3.21875q0.734375 -1.46875 1.8125 -2.1875q1.09375 -0.734375 2.1875 -0.734375q1.796875 0 2.71875 1.734375l1.09375 -5.203125l1.640625 0l-2.78125 13.359375l-1.53125 0l0.296875 -1.40625zm-4.515625 -2.640625q0 1.0 0.203125 1.59375q0.203125 0.578125 0.671875 0.96875q0.484375 0.375 1.171875 0.375q1.109375 0 2.03125 -1.15625q1.21875 -1.546875 1.21875 -3.828125q0 -1.140625 -0.609375 -1.78125q-0.59375 -0.65625 -1.515625 -0.65625q-0.59375 0 -1.078125 0.265625q-0.484375 0.265625 -0.96875 0.90625q-0.46875 0.625 -0.796875 1.59375q-0.328125 0.96875 -0.328125 1.71875zm8.656967 0.375q0 -2.828125 1.671875 -4.6875q1.375 -1.53125 3.609375 -1.53125q1.75 0 2.8125 1.09375q1.078125 1.09375 1.078125 2.953125q0 1.65625 -0.671875 3.09375q-0.671875 1.4375 -1.921875 2.203125q-1.25 0.765625 -2.625 0.765625q-1.125 0 -2.046875 -0.484375q-0.921875 -0.484375 -1.421875 -1.359375q-0.484375 -0.890625 -0.484375 -2.046875zm1.65625 -0.15625q0 1.359375 0.65625 2.0625q0.65625 0.703125 1.65625 0.703125q0.53125 0 1.046875 -0.203125q0.53125 -0.21875 0.96875 -0.65625q0.453125 -0.4375 0.765625 -1.0q0.3125 -0.5625 0.5 -1.203125q0.28125 -0.90625 0.28125 -1.734375q0 -1.3125 -0.65625 -2.03125q-0.65625 -0.734375 -1.65625 -0.734375q-0.78125 0 -1.421875 0.375q-0.625 0.375 -1.140625 1.09375q-0.515625 0.703125 -0.765625 1.640625q-0.234375 0.9375 -0.234375 1.6875zm8.422592 3.828125l2.015625 -9.671875l1.65625 0l-0.34375 1.59375q0.921875 -1.03125 1.640625 -1.421875q0.734375 -0.390625 1.578125 -0.390625q0.90625 0 1.5156403 0.484375q0.609375 0.46875 0.796875 1.328125q0.734375 -0.90625 1.546875 -1.359375q0.8125 -0.453125 1.71875 -0.453125q1.21875 0 1.8125 0.578125q0.609375 0.5625 0.609375 1.609375q0 0.4375 -0.203125 1.46875l-1.3125 6.234375l-1.640625 0l1.328125 -6.390625q0.171875 -0.78125 0.171875 -1.125q0 -0.46875 -0.296875 -0.734375q-0.296875 -0.28125 -0.84375 -0.28125q-0.75 0 -1.515625 0.453125q-0.765625 0.4375 -1.1875 1.171875q-0.421875 0.71875 -0.734375 2.21875l-0.98439026 4.6875l-1.65625 0l1.375 -6.53125q0.140625 -0.671875 0.140625 -0.953125q0 -0.46875 -0.296875 -0.75q-0.296875 -0.296875 -0.765625 -0.296875q-0.703125 0 -1.484375 0.453125q-0.765625 0.4375 -1.25 1.234375q-0.46875 0.796875 -0.78125 2.265625l-0.953125 4.578125l-1.65625 0zm22.072067 -1.203125q-0.859375 0.734375 -1.65625 1.078125q-0.78125 0.34375 -1.6875 0.34375q-1.34375 0 -2.171875 -0.78125q-0.8125 -0.796875 -0.8125 -2.03125q0 -0.796875 0.375 -1.421875q0.375 -0.625 0.984375 -1.0q0.609375 -0.390625 1.484375 -0.546875q0.5625 -0.109375 2.109375 -0.171875q1.5625 -0.0625 2.234375 -0.328125q0.1875 -0.671875 0.1875 -1.125q0 -0.578125 -0.421875 -0.90625q-0.5625 -0.453125 -1.671875 -0.453125q-1.03125 0 -1.703125 0.46875q-0.65625 0.453125 -0.953125 1.296875l-1.671875 -0.140625q0.515625 -1.4375 1.609375 -2.203125q1.109375 -0.765625 2.796875 -0.765625q1.796875 0 2.84375 0.859375q0.796875 0.625 0.796875 1.65625q0 0.765625 -0.21875 1.796875l-0.53125 2.40625q-0.265625 1.140625 -0.265625 1.859375q0 0.453125 0.203125 1.3125l-1.671875 0q-0.125 -0.46875 -0.1875 -1.203125zm0.609375 -3.703125q-0.34375 0.140625 -0.75 0.21875q-0.390625 0.0625 -1.3125 0.15625q-1.4375 0.125 -2.03125 0.328125q-0.59375 0.1875 -0.90625 0.625q-0.296875 0.421875 -0.296875 0.9375q0 0.6875 0.484375 1.140625q0.484375 0.4375 1.359375 0.4375q0.828125 0 1.578125 -0.421875q0.75 -0.4375 1.1875 -1.203125q0.4375 -0.78125 0.6875 -2.21875zm5.578827 -6.578125l0.40625 -1.875l1.625 0l-0.390625 1.875l-1.640625 0zm-2.390625 11.484375l2.015625 -9.671875l1.65625 0l-2.03125 9.671875l-1.640625 0zm4.2073364 0l2.015625 -9.671875l1.5 0l-0.359375 1.6875q0.96875 -1.0 1.8125 -1.453125q0.859375 -0.453125 1.734375 -0.453125q1.1875 0 1.84375 0.640625q0.671875 0.625 0.671875 1.703125q0 0.53125 -0.234375 1.6875l-1.234375 5.859375l-1.640625 0l1.28125 -6.125q0.1875 -0.890625 0.1875 -1.328125q0 -0.484375 -0.328125 -0.78125q-0.328125 -0.296875 -0.953125 -0.296875q-1.28125 0 -2.265625 0.90625q-0.984375 0.90625 -1.453125 3.125l-0.9375 4.5l-1.640625 0z" fill-rule="nonzero"/><path fill="#000000" fill-opacity="0.0" d="m392.95538 320.29922l96.0 0l0 32.0l-96.0 0z" fill-rule="evenodd"/><path fill="#000000" d="m415.92688 328.14734q0 -2.828125 1.671875 -4.6875q1.375 -1.53125 3.609375 -1.53125q1.75 0 2.8125 1.09375q1.078125 1.09375 1.078125 2.953125q0 1.65625 -0.671875 3.09375q-0.671875 1.4375 -1.921875 2.203125q-1.25 0.765625 -2.625 0.765625q-1.125 0 -2.046875 -0.484375q-0.921875 -0.484375 -1.421875 -1.359375q-0.484375 -0.890625 -0.484375 -2.046875zm1.65625 -0.15625q0 1.359375 0.65625 2.0625q0.65625 0.703125 1.65625 0.703125q0.53125 0 1.046875 -0.203125q0.53125 -0.21875 0.96875 -0.65625q0.453125 -0.4375 0.765625 -1.0q0.3125 -0.5625 0.5 -1.203125q0.28125 -0.90625 0.28125 -1.734375q0 -1.3125 -0.65625 -2.03125q-0.65625 -0.734375 -1.65625 -0.734375q-0.78125 0 -1.421875 0.375q-0.625 0.375 -1.140625 1.09375q-0.515625 0.703125 -0.765625 1.640625q-0.234375 0.9375 -0.234375 1.6875zm15.031982 2.078125q-1.734375 1.96875 -3.5625 1.96875q-1.109375 0 -1.796875 -0.640625q-0.6875 -0.640625 -0.6875 -1.578125q0 -0.609375 0.296875 -2.09375l1.171875 -5.578125l1.65625 0l-1.296875 6.1875q-0.171875 0.765625 -0.171875 1.203125q0 0.546875 0.328125 0.859375q0.34375 0.296875 0.984375 0.296875q0.703125 0 1.359375 -0.328125q0.65625 -0.34375 1.125 -0.921875q0.484375 -0.578125 0.796875 -1.359375q0.1875 -0.5 0.453125 -1.765625l0.875 -4.171875l1.65625 0l-2.03125 9.671875l-1.515625 0l0.359375 -1.75zm7.625702 0.40625l-0.265625 1.359375q-0.59375 0.140625 -1.15625 0.140625q-0.984375 0 -1.5625 -0.46875q-0.4375 -0.375 -0.4375 -1.0q0 -0.3125 0.234375 -1.46875l1.171875 -5.625l-1.296875 0l0.265625 -1.265625l1.296875 0l0.5 -2.375l1.890625 -1.140625l-0.734375 3.515625l1.625 0l-0.28125 1.265625l-1.609375 0l-1.125 5.359375q-0.203125 1.015625 -0.203125 1.21875q0 0.28125 0.15625 0.4375q0.171875 0.15625 0.5625 0.15625q0.546875 0 0.96875 -0.109375zm0.5270691 5.046875l2.796875 -13.375l1.515625 0l-0.28125 1.34375q0.84375 -0.875 1.515625 -1.21875q0.671875 -0.34375 1.421875 -0.34375q1.375 0 2.28125 1.015625q0.921875 1.0 0.921875 2.875q0 1.515625 -0.5 2.765625q-0.5 1.234375 -1.234375 2.0q-0.71875 0.75 -1.46875 1.109375q-0.75 0.34375 -1.53125 0.34375q-1.75 0 -2.703125 -1.765625l-1.09375 5.25l-1.640625 0zm3.25 -7.65625q0 1.078125 0.15625 1.5q0.234375 0.59375 0.75 0.96875q0.515625 0.359375 1.203125 0.359375q1.421875 0 2.296875 -1.59375q0.875 -1.609375 0.875 -3.28125q0 -1.21875 -0.59375 -1.890625q-0.578125 -0.671875 -1.453125 -0.671875q-0.625 0 -1.171875 0.34375q-0.53125 0.328125 -1.0 0.984375q-0.453125 0.65625 -0.765625 1.609375q-0.296875 0.953125 -0.296875 1.671875zm14.531952 2.203125q-1.734375 1.96875 -3.5625 1.96875q-1.109375 0 -1.796875 -0.640625q-0.6875 -0.640625 -0.6875 -1.578125q0 -0.609375 0.296875 -2.09375l1.171875 -5.578125l1.65625 0l-1.296875 6.1875q-0.171875 0.765625 -0.171875 1.203125q0 0.546875 0.328125 0.859375q0.34375 0.296875 0.984375 0.296875q0.703125 0 1.359375 -0.328125q0.65625 -0.34375 1.125 -0.921875q0.484375 -0.578125 0.796875 -1.359375q0.1875 -0.5 0.453125 -1.765625l0.875 -4.171875l1.65625 0l-2.03125 9.671875l-1.515625 0l0.359375 -1.75zm7.6257324 0.40625l-0.265625 1.359375q-0.59375 0.140625 -1.15625 0.140625q-0.984375 0 -1.5625 -0.46875q-0.4375 -0.375 -0.4375 -1.0q0 -0.3125 0.234375 -1.46875l1.171875 -5.625l-1.296875 0l0.265625 -1.265625l1.296875 0l0.5 -2.375l1.890625 -1.140625l-0.734375 3.515625l1.625 0l-0.28125 1.265625l-1.609375 0l-1.125 5.359375q-0.203125 1.015625 -0.203125 1.21875q0 0.28125 0.15625 0.4375q0.171875 0.15625 0.5625 0.15625q0.546875 0 0.96875 -0.109375z" fill-rule="nonzero"/><path fill="#000000" d="m417.50177 352.81296q-1.40625 1.625 -2.953125 1.625q-1.375 0 -2.296875 -1.015625q-0.90625 -1.015625 -0.90625 -2.953125q0 -1.765625 0.71875 -3.21875q0.734375 -1.46875 1.8125 -2.1875q1.09375 -0.734375 2.1875 -0.734375q1.796875 0 2.71875 1.734375l1.09375 -5.203125l1.640625 0l-2.78125 13.359375l-1.53125 0l0.296875 -1.40625zm-4.515625 -2.640625q0 1.0 0.203125 1.59375q0.203125 0.578125 0.671875 0.96875q0.484375 0.375 1.171875 0.375q1.109375 0 2.03125 -1.15625q1.21875 -1.546875 1.21875 -3.828125q0 -1.140625 -0.609375 -1.78125q-0.59375 -0.65625 -1.515625 -0.65625q-0.59375 0 -1.078125 0.265625q-0.484375 0.265625 -0.96875 0.90625q-0.46875 0.625 -0.796875 1.59375q-0.328125 0.96875 -0.328125 1.71875zm8.656952 0.375q0 -2.828125 1.671875 -4.6875q1.375 -1.53125 3.609375 -1.53125q1.75 0 2.8125 1.09375q1.078125 1.09375 1.078125 2.953125q0 1.65625 -0.671875 3.09375q-0.671875 1.4375 -1.921875 2.203125q-1.25 0.765625 -2.625 0.765625q-1.125 0 -2.046875 -0.484375q-0.921875 -0.484375 -1.421875 -1.359375q-0.484375 -0.890625 -0.484375 -2.046875zm1.65625 -0.15625q0 1.359375 0.65625 2.0625q0.65625 0.703125 1.65625 0.703125q0.53125 0 1.046875 -0.203125q0.53125 -0.21875 0.96875 -0.65625q0.453125 -0.4375 0.765625 -1.0q0.3125 -0.5625 0.5 -1.203125q0.28125 -0.90625 0.28125 -1.734375q0 -1.3125 -0.65625 -2.03125q-0.65625 -0.734375 -1.65625 -0.734375q-0.78125 0 -1.421875 0.375q-0.625 0.375 -1.140625 1.09375q-0.515625 0.703125 -0.765625 1.640625q-0.234375 0.9375 -0.234375 1.6875zm8.422607 3.828125l2.015625 -9.671875l1.65625 0l-0.34375 1.59375q0.921875 -1.03125 1.640625 -1.421875q0.734375 -0.390625 1.578125 -0.390625q0.90625 0 1.515625 0.484375q0.609375 0.46875 0.796875 1.328125q0.734375 -0.90625 1.546875 -1.359375q0.8125 -0.453125 1.71875 -0.453125q1.21875 0 1.8125 0.578125q0.609375 0.5625 0.609375 1.609375q0 0.4375 -0.203125 1.46875l-1.3125 6.234375l-1.640625 0l1.328125 -6.390625q0.171875 -0.78125 0.171875 -1.125q0 -0.46875 -0.296875 -0.734375q-0.296875 -0.28125 -0.84375 -0.28125q-0.75 0 -1.515625 0.453125q-0.765625 0.4375 -1.1875 1.171875q-0.421875 0.71875 -0.734375 2.21875l-0.984375 4.6875l-1.65625 0l1.375 -6.53125q0.140625 -0.671875 0.140625 -0.953125q0 -0.46875 -0.296875 -0.75q-0.296875 -0.296875 -0.765625 -0.296875q-0.703125 0 -1.484375 0.453125q-0.765625 0.4375 -1.25 1.234375q-0.46875 0.796875 -0.78125 2.265625l-0.953125 4.578125l-1.65625 0zm22.072052 -1.203125q-0.859375 0.734375 -1.65625 1.078125q-0.78125 0.34375 -1.6875 0.34375q-1.34375 0 -2.171875 -0.78125q-0.8125 -0.796875 -0.8125 -2.03125q0 -0.796875 0.375 -1.421875q0.375 -0.625 0.984375 -1.0q0.609375 -0.390625 1.484375 -0.546875q0.5625 -0.109375 2.109375 -0.171875q1.5625 -0.0625 2.234375 -0.328125q0.1875 -0.671875 0.1875 -1.125q0 -0.578125 -0.421875 -0.90625q-0.5625 -0.453125 -1.671875 -0.453125q-1.03125 0 -1.703125 0.46875q-0.65625 0.453125 -0.953125 1.296875l-1.671875 -0.140625q0.515625 -1.4375 1.609375 -2.203125q1.109375 -0.765625 2.796875 -0.765625q1.796875 0 2.84375 0.859375q0.796875 0.625 0.796875 1.65625q0 0.765625 -0.21875 1.796875l-0.53125 2.40625q-0.265625 1.140625 -0.265625 1.859375q0 0.453125 0.203125 1.3125l-1.671875 0q-0.125 -0.46875 -0.1875 -1.203125zm0.609375 -3.703125q-0.34375 0.140625 -0.75 0.21875q-0.390625 0.0625 -1.3125 0.15625q-1.4375 0.125 -2.03125 0.328125q-0.59375 0.1875 -0.90625 0.625q-0.296875 0.421875 -0.296875 0.9375q0 0.6875 0.484375 1.140625q0.484375 0.4375 1.359375 0.4375q0.828125 0 1.578125 -0.421875q0.75 -0.4375 1.1875 -1.203125q0.4375 -0.78125 0.6875 -2.21875zm5.578827 -6.578125l0.40625 -1.875l1.625 0l-0.390625 1.875l-1.640625 0zm-2.390625 11.484375l2.015625 -9.671875l1.65625 0l-2.03125 9.671875l-1.640625 0zm4.2073364 0l2.015625 -9.671875l1.5 0l-0.359375 1.6875q0.96875 -1.0 1.8125 -1.453125q0.859375 -0.453125 1.734375 -0.453125q1.1875 0 1.84375 0.640625q0.671875 0.625 0.671875 1.703125q0 0.53125 -0.234375 1.6875l-1.234375 5.859375l-1.640625 0l1.28125 -6.125q0.1875 -0.890625 0.1875 -1.328125q0 -0.484375 -0.328125 -0.78125q-0.328125 -0.296875 -0.953125 -0.296875q-1.28125 0 -2.265625 0.90625q-0.984375 0.90625 -1.453125 3.125l-0.9375 4.5l-1.640625 0z" fill-rule="nonzero"/><path fill="#000000" fill-opacity="0.0" d="m338.6168 177.92126l0 -54.204727" fill-rule="evenodd"/><path stroke="#000000" stroke-width="3.0" stroke-linejoin="round" stroke-linecap="butt" d="m338.6168 177.92126l0 -36.204727" fill-rule="evenodd"/><path fill="#000000" stroke="#000000" stroke-width="3.0" stroke-linecap="butt" d="m343.572 141.71654l-4.9552 -13.614288l-4.9552 13.614288z" fill-rule="evenodd"/><path fill="#000000" fill-opacity="0.0" d="m479.00262 232.18636l68.91339 0" fill-rule="evenodd"/><path stroke="#000000" stroke-width="3.0" stroke-linejoin="round" stroke-linecap="butt" d="m479.00262 232.18636l50.91339 0" fill-rule="evenodd"/><path fill="#000000" stroke="#000000" stroke-width="3.0" stroke-linecap="butt" d="m529.916 237.14156l13.614258 -4.9552l-13.614258 -4.9552z" fill-rule="evenodd"/><path fill="#000000" fill-opacity="0.0" d="m219.45407 232.18636l-62.204727 0.1574707" fill-rule="evenodd"/><path stroke="#000000" stroke-width="3.0" stroke-linejoin="round" stroke-linecap="butt" d="m219.45407 232.18636l-44.20479 0.11190796" fill-rule="evenodd"/><path fill="#000000" stroke="#000000" stroke-width="3.0" stroke-linecap="butt" d="m175.23674 227.34308l-13.6017 4.9896545l13.626785 4.9207153z" fill-rule="evenodd"/><path fill="#000000" fill-opacity="0.0" d="m244.37796 369.56955l-80.12599 64.09448" fill-rule="evenodd"/><path stroke="#000000" stroke-width="3.0" stroke-linejoin="round" stroke-linecap="butt" d="m244.37796 369.56955l-66.06981 52.850647" fill-rule="evenodd"/><path fill="#000000" stroke="#000000" stroke-width="3.0" stroke-linecap="butt" d="m175.21284 418.5507l-7.536087 12.373779l13.726685 -4.6347656z" fill-rule="evenodd"/><path fill="#000000" fill-opacity="0.0" d="m439.65353 369.56955l80.12601 64.09448" fill-rule="evenodd"/><path stroke="#000000" stroke-width="3.0" stroke-linejoin="round" stroke-linecap="butt" d="m439.65353 369.56955l66.069824 52.850647" fill-rule="evenodd"/><path fill="#000000" stroke="#000000" stroke-width="3.0" stroke-linecap="butt" d="m502.62805 426.2897l13.726685 4.6347656l-7.536072 -12.373779z" fill-rule="evenodd"/><path fill="#000000" fill-opacity="0.0" d="m338.6168 392.8819l0 54.204712" fill-rule="evenodd"/><path stroke="#000000" stroke-width="3.0" stroke-linejoin="round" stroke-linecap="butt" d="m338.6168 392.8819l0 36.204712" fill-rule="evenodd"/><path fill="#000000" stroke="#000000" stroke-width="3.0" stroke-linecap="butt" d="m333.6616 429.0866l4.9552 13.614288l4.9552 -13.614288z" fill-rule="evenodd"/></g></svg>
